<svg width="50" height="50" viewBox="0 0 50 50" fill="none" xmlns="http://www.w3.org/2000/svg">
<g clip-path="url(#clip0_158_1694)">
<path d="M48.0335 28.0497C47.6696 28.1031 47.2978 28.1314 46.9188 28.1314C43.4319 28.1314 40.4811 25.8504 39.4689 22.7001C39.2959 22.1616 38.8561 21.7469 38.3004 21.6411C32.5099 20.5386 28.1312 15.455 28.1312 9.3436C28.1312 6.77681 28.9059 4.39263 30.2313 2.40688C30.5465 1.93472 30.2835 1.30581 29.7267 1.19556C28.1978 0.892822 26.6177 0.732666 24.9998 0.732666C11.5973 0.732666 0.732422 11.5975 0.732422 25.0001C0.732422 38.4025 11.5973 49.2674 24.9998 49.2674C37.0788 49.2674 47.0665 40.4751 48.9455 28.9239C49.0308 28.3997 48.5585 27.9725 48.0335 28.0497Z" fill="#F5B97D"/>
<path d="M14.0405 20.3026C15.7697 20.3026 17.1714 18.9008 17.1714 17.1717C17.1714 15.4426 15.7697 14.0409 14.0405 14.0409C12.3114 14.0409 10.9097 15.4426 10.9097 17.1717C10.9097 18.9008 12.3114 20.3026 14.0405 20.3026Z" fill="#CD916E"/>
<path d="M15.6055 35.1766C16.9026 35.1766 17.9541 34.1251 17.9541 32.828C17.9541 31.5309 16.9026 30.4794 15.6055 30.4794C14.3084 30.4794 13.2568 31.5309 13.2568 32.828C13.2568 34.1251 14.3084 35.1766 15.6055 35.1766Z" fill="#CD916E"/>
<path d="M35.08 7.0777L34.8554 8.42529C34.6708 9.53279 35.296 10.6161 36.3473 11.0103L38.3356 11.756C39.649 12.2484 41.0985 11.4874 41.4386 10.1265L42.1473 7.29158C42.589 5.52471 40.9386 3.9492 39.1941 4.47252L36.7215 5.21435C35.864 5.47176 35.2273 6.1944 35.08 7.0777Z" fill="#F5B97D"/>
<path d="M43.0048 15.6063L42.0594 16.0791C41.3179 16.4498 40.994 17.3343 41.3205 18.0962L42.0812 19.8709C42.5417 20.9454 43.9746 21.1545 44.7229 20.2564L45.9465 18.7881C46.5202 18.0996 46.4001 17.071 45.6832 16.5333L44.6443 15.7542C44.17 15.3984 43.5352 15.3411 43.0048 15.6063Z" fill="#F5B97D"/>
<path d="M47.7009 12.4747C48.5657 12.4747 49.2665 11.7739 49.2665 10.9093C49.2665 10.0447 48.5657 9.34387 47.7009 9.34387C46.8366 9.34387 46.1357 10.0447 46.1357 10.9093C46.1357 11.7739 46.8366 12.4747 47.7009 12.4747Z" fill="#F5B97D"/>
<path d="M27.9354 46.332C14.5328 46.332 3.66797 35.4671 3.66797 22.0645C3.66797 16.1106 5.81554 10.6607 9.37384 6.43848C4.09141 10.89 0.732422 17.5515 0.732422 25.0001C0.732422 38.4025 11.5973 49.2673 24.9998 49.2673C32.4531 49.2673 39.1071 45.9169 43.5542 40.6391C39.3365 44.1912 33.8914 46.332 27.9354 46.332Z" fill="#E3AA75"/>
<path d="M38.6839 9.93914C37.3708 9.44677 36.5898 8.09373 36.8204 6.71034L37.0881 5.10449L36.7217 5.21445C35.864 5.47177 35.2273 6.19454 35.08 7.07784L34.8554 8.42538C34.6708 9.53289 35.296 10.6162 36.3473 11.0104L38.3356 11.7561C39.3902 12.1515 40.5223 11.7305 41.1077 10.8482L38.6839 9.93914Z" fill="#E3AA75"/>
<path d="M43.7515 18.862L42.8901 16.8519C42.7282 16.4744 42.7147 16.0725 42.8128 15.7021L42.0594 16.0788C41.318 16.4495 40.9939 17.334 41.3205 18.0959L42.0811 19.8706C42.5417 20.9451 43.9746 21.1543 44.7229 20.2561L45.0269 19.8912C44.489 19.7815 43.997 19.435 43.7515 18.862Z" fill="#E3AA75"/>
<path d="M15.7044 18.6397C13.975 18.6397 12.5732 17.2377 12.5732 15.5084C12.5732 15.0753 12.6612 14.6628 12.8202 14.2877C11.6973 14.7636 10.9097 15.8757 10.9097 17.1719C10.9097 18.9012 12.3116 20.3032 14.0409 20.3032C15.3372 20.3032 16.4493 19.5154 16.9251 18.3926C16.5499 18.5516 16.1374 18.6397 15.7044 18.6397Z" fill="#B67F5F"/>
<path d="M16.8302 33.9536C15.5331 33.9536 14.4817 32.9021 14.4817 31.6052C14.4817 31.2739 14.5519 30.9597 14.6756 30.6738C13.8424 31.0345 13.2585 31.8626 13.2585 32.8283C13.2585 34.1254 14.31 35.1767 15.607 35.1767C16.5728 35.1767 17.4007 34.5928 17.7615 33.7597C17.4756 33.8834 17.1614 33.9536 16.8302 33.9536Z" fill="#B67F5F"/>
<path d="M30.4797 38.3074C32.2089 38.3074 33.6106 36.9057 33.6106 35.1765C33.6106 33.4474 32.2089 32.0457 30.4797 32.0457C28.7506 32.0457 27.3489 33.4474 27.3489 35.1765C27.3489 36.9057 28.7506 38.3074 30.4797 38.3074Z" fill="#CD916E"/>
<path d="M32.1436 36.6443C30.4142 36.6443 29.0124 35.2424 29.0124 33.513C29.0124 33.0799 29.1004 32.6674 29.2594 32.2924C28.1366 32.7682 27.3489 33.8804 27.3489 35.1765C27.3489 36.9058 28.7508 38.3078 30.4801 38.3078C31.7764 38.3078 32.8885 37.52 33.3643 36.3972C32.9892 36.5562 32.5767 36.6443 32.1436 36.6443Z" fill="#B67F5F"/>
<path d="M24.1851 22.6515C25.0496 22.6515 25.7505 21.9506 25.7505 21.086C25.7505 20.2215 25.0496 19.5206 24.1851 19.5206C23.3205 19.5206 22.6196 20.2215 22.6196 21.086C22.6196 21.9506 23.3205 22.6515 24.1851 22.6515Z" fill="#CD916E"/>
<path d="M14.0409 13.3081C11.9104 13.3081 10.1772 15.0414 10.1772 17.1718C10.1772 19.3021 11.9105 21.0354 14.0409 21.0354C16.1714 21.0354 17.9047 19.3021 17.9047 17.1718C17.9047 15.0414 16.1713 13.3081 14.0409 13.3081ZM14.0409 19.5707C12.7181 19.5707 11.6421 18.4945 11.6421 17.1719C11.6421 15.8492 12.7182 14.773 14.0409 14.773C15.3636 14.773 16.4398 15.8492 16.4398 17.1719C16.4398 18.4945 15.3636 19.5707 14.0409 19.5707Z" fill="#1F2937"/>
<path d="M26.6165 35.1766C26.6165 37.3071 28.3498 39.0403 30.4801 39.0403C32.6105 39.0403 34.3438 37.3071 34.3438 35.1766C34.3438 33.0463 32.6105 31.313 30.4801 31.313C28.3498 31.313 26.6165 33.0462 26.6165 35.1766ZM30.4802 32.7777C31.803 32.7777 32.879 33.8539 32.879 35.1766C32.879 36.4992 31.8029 37.5754 30.4802 37.5754C29.1576 37.5754 28.0814 36.4992 28.0814 35.1766C28.0814 33.8539 29.1575 32.7777 30.4802 32.7777Z" fill="#1F2937"/>
<path d="M15.607 29.7472C13.9081 29.7472 12.5261 31.1293 12.5261 32.8281C12.5261 34.527 13.9081 35.909 15.607 35.909C17.3058 35.909 18.688 34.527 18.688 32.8281C18.688 31.1293 17.3058 29.7472 15.607 29.7472ZM15.607 34.4442C14.7159 34.4442 13.9909 33.7192 13.9909 32.8281C13.9909 31.937 14.7159 31.212 15.607 31.212C16.4981 31.212 17.2231 31.937 17.2231 32.8281C17.2231 33.7192 16.4981 34.4442 15.607 34.4442Z" fill="#1F2937"/>
<path d="M21.9187 21.086C21.9187 22.3532 22.9496 23.384 24.2167 23.384C25.4838 23.384 26.5147 22.3531 26.5147 21.086C26.5147 19.8189 25.4838 18.788 24.2167 18.788C22.9496 18.788 21.9187 19.8189 21.9187 21.086ZM24.2167 20.2528C24.6762 20.2528 25.0499 20.6266 25.0499 21.086C25.0499 21.5454 24.6761 21.9192 24.2167 21.9192C23.7574 21.9192 23.3835 21.5454 23.3835 21.086C23.3835 20.6266 23.7572 20.2528 24.2167 20.2528Z" fill="#1F2937"/>
<path d="M39.0909 32.7779C39.201 32.7779 39.3127 32.753 39.4179 32.7005C39.7797 32.5195 39.9264 32.0797 39.7454 31.7178L38.9626 30.152C38.7817 29.7902 38.3418 29.6435 37.98 29.8245C37.6182 30.0054 37.4715 30.4453 37.6525 30.8071L38.4353 32.3728C38.5637 32.6296 38.8223 32.7779 39.0909 32.7779Z" fill="#1F2937"/>
<path d="M30.48 28.0811C30.5901 28.0811 30.7018 28.0562 30.807 28.0037L32.3726 27.2208C32.7344 27.04 32.8811 26.6 32.7001 26.2382C32.5191 25.8764 32.0794 25.7296 31.7175 25.9107L30.1519 26.6935C29.7901 26.8744 29.6434 27.3143 29.8243 27.6761C29.9527 27.9328 30.2112 28.0811 30.48 28.0811Z" fill="#1F2937"/>
<path d="M8.68846 26.1104C8.81677 26.3671 9.07538 26.5154 9.34413 26.5154C9.45418 26.5154 9.56592 26.4905 9.67105 26.4379C10.0329 26.2571 10.1796 25.8171 9.9986 25.4554L9.21579 23.8897C9.03494 23.5279 8.59498 23.3811 8.2332 23.5622C7.87137 23.743 7.72467 24.183 7.90565 24.5448L8.68846 26.1104Z" fill="#1F2937"/>
<path d="M20.759 38.4357L19.1934 39.2185C18.8316 39.3993 18.6849 39.8393 18.8659 40.2011C18.9942 40.4578 19.2528 40.6061 19.5215 40.6061C19.6316 40.6061 19.7433 40.5812 19.8484 40.5287L21.4141 39.7459C21.7759 39.565 21.9226 39.1251 21.7416 38.7632C21.5608 38.4014 21.1208 38.2547 20.759 38.4357Z" fill="#1F2937"/>
<path d="M21.6044 8.82579L20.8216 8.04289C20.5356 7.75686 20.0718 7.75686 19.7858 8.04289C19.4998 8.32892 19.4998 8.79258 19.7858 9.0786L20.5687 9.86151C20.7117 10.0046 20.8992 10.0761 21.0866 10.0761C21.274 10.0761 21.4615 10.0046 21.6045 9.86151C21.8904 9.57561 21.8904 9.11191 21.6044 8.82579Z" fill="#1F2937"/>
<path d="M18.2199 26.0479C17.9339 26.334 17.9339 26.7977 18.2199 27.0837L19.0027 27.8665C19.1457 28.0095 19.3332 28.081 19.5206 28.081C19.708 28.081 19.8955 28.0095 20.0385 27.8665C20.3245 27.5804 20.3245 27.1166 20.0385 26.8307L19.2556 26.0479C18.9697 25.7619 18.5059 25.7619 18.2199 26.0479Z" fill="#1F2937"/>
<path d="M27.3997 43.0049V43.7877C27.3997 44.1922 27.7276 44.5201 28.1321 44.5201C28.5366 44.5201 28.8645 44.1922 28.8645 43.7877V43.0049C28.8645 42.6004 28.5366 42.2725 28.1321 42.2725C27.7276 42.2725 27.3997 42.6004 27.3997 43.0049Z" fill="#1F2937"/>
<path d="M23.9519 14.5586L24.7348 13.7758C25.0208 13.4898 25.0208 13.026 24.7348 12.7401C24.4487 12.454 23.9849 12.454 23.699 12.7401L22.9162 13.5229C22.6302 13.8089 22.6302 14.2727 22.9162 14.5586C23.0592 14.7016 23.2467 14.7731 23.434 14.7731C23.6214 14.7731 23.8089 14.7016 23.9519 14.5586Z" fill="#1F2937"/>
<path d="M36.0917 11.6959L38.0801 12.4416C38.4293 12.5726 38.7957 12.6375 39.1613 12.6375C39.6553 12.6375 40.1479 12.5189 40.5941 12.2846C41.3706 11.8768 41.938 11.155 42.1507 10.3041L42.8594 7.46913C43.1315 6.38055 42.8095 5.26819 41.9978 4.49337C41.1861 3.71846 40.0599 3.44844 38.9851 3.7709L36.5127 4.5127C35.396 4.84765 34.5506 5.80712 34.359 6.95712L34.1344 8.30471C33.893 9.7539 34.7161 11.1801 36.0917 11.6959ZM35.5794 8.5456L35.804 7.19805C35.9045 6.59484 36.3479 6.09149 36.9337 5.91582L39.4061 5.17404C39.5628 5.12707 39.7215 5.10413 39.8781 5.10413C40.2853 5.10413 40.6789 5.25948 40.9864 5.55301C41.4121 5.95939 41.581 6.54288 41.4383 7.11386L40.7297 9.94886C40.6164 10.4018 40.3265 10.7707 39.9132 10.9877C39.4999 11.2047 39.0316 11.234 38.5944 11.0701L36.6061 10.3244C35.8844 10.0538 35.4527 9.30578 35.5794 8.5456Z" fill="#1F2937"/>
<path d="M41.7315 15.4239C40.6447 15.9672 40.1683 17.2677 40.6469 18.3846L41.4076 20.1593C41.725 20.9 42.3906 21.4116 43.1879 21.5281C43.3012 21.5446 43.4142 21.5527 43.5262 21.5527C44.2026 21.5527 44.8425 21.2563 45.2854 20.7252L46.509 19.2569C46.9162 18.7681 47.0997 18.1509 47.026 17.5191C46.9519 16.8872 46.6314 16.3289 46.122 15.9473L45.0836 15.1682C44.3826 14.6425 43.4605 14.5593 42.6768 14.9512L41.7315 15.4239ZM43.3321 16.2614C43.4509 16.2019 43.5785 16.1726 43.7055 16.1726C43.8818 16.1726 44.0568 16.2292 44.2045 16.34L45.2434 17.1191C45.4278 17.2575 45.5443 17.4599 45.5711 17.689C45.5974 17.9181 45.5309 18.1419 45.3836 18.3191L44.1598 19.7875C43.9699 20.0153 43.6927 20.1213 43.3993 20.0785C43.1059 20.0357 42.8706 19.8547 42.7539 19.5822L41.9932 17.8075C41.8197 17.4025 41.9924 16.9309 42.3864 16.7339L43.3321 16.2614C43.332 16.2614 43.332 16.2614 43.3321 16.2614Z" fill="#1F2937"/>
<path d="M47.7013 13.2074C48.9683 13.2074 49.9995 12.1765 49.9995 10.9094C49.9995 9.6423 48.9683 8.61145 47.7013 8.61145C46.4339 8.61145 45.4031 9.64239 45.4031 10.9095C45.4031 12.1766 46.4339 13.2074 47.7013 13.2074ZM47.7013 10.0763C48.1607 10.0763 48.5343 10.4501 48.5343 10.9095C48.5343 11.3689 48.1607 11.7427 47.7013 11.7427C47.2419 11.7427 46.8678 11.3689 46.8678 10.9095C46.8678 10.45 47.2419 10.0763 47.7013 10.0763Z" fill="#1F2937"/>
<path d="M48.9224 27.3249C48.588 27.374 48.2491 27.3989 47.9143 27.3989C44.8215 27.3989 42.108 25.4206 41.1619 22.4758C40.9033 21.6708 40.2408 21.0752 39.433 20.9215C33.8856 19.8653 29.8592 14.9961 29.8592 9.34351C29.8592 7.00931 30.5428 4.75114 31.8362 2.81323C32.12 2.38813 32.1732 1.85454 31.9786 1.38579C31.7837 0.91616 31.3672 0.576414 30.8646 0.476906C28.3728 -0.0165527 25.816 -0.127588 23.2658 0.147119C18.1623 0.696629 13.4056 2.80161 9.50968 6.2348C9.20616 6.50221 9.17696 6.96507 9.44446 7.26851C9.71183 7.57195 10.1747 7.60123 10.4781 7.33373C14.1457 4.10181 18.6218 2.12036 23.4226 1.60366C25.8257 1.34487 28.2338 1.44937 30.58 1.91401C30.5971 1.91743 30.6159 1.92407 30.6257 1.94751C30.6349 1.96968 30.6274 1.98599 30.6178 2.00024C29.1632 4.17974 28.3944 6.71909 28.3944 9.3436C28.3944 15.6986 32.9216 21.173 39.159 22.3605C39.4397 22.4139 39.6728 22.6298 39.7673 22.924C40.9087 26.4767 44.1828 28.8637 47.9143 28.8637C48.3201 28.8637 48.7308 28.8336 49.1353 28.7742C49.1893 28.7661 49.217 28.7981 49.2179 28.8062C48.5121 33.148 46.5938 37.2012 43.6707 40.5279C43.4037 40.8318 43.4336 41.2946 43.7375 41.5616C43.8766 41.6837 44.0491 41.7438 44.2207 41.7438C44.4242 41.7438 44.6264 41.6596 44.7712 41.4948C47.8759 37.9613 49.9139 33.655 50.6639 29.0415C50.7402 28.5723 50.592 28.1085 50.2576 27.7686C49.913 27.4186 49.4139 27.2528 48.9224 27.3249Z" fill="#1F2937"/>
<path d="M40.5284 42.6762C36.2338 46.4545 30.7192 48.5348 25.0002 48.5348C21.7036 48.5348 18.5153 47.867 15.5238 46.5491C12.6336 45.2763 10.0638 43.4616 7.88589 41.1553C5.71147 38.8526 4.04977 36.1887 2.94684 33.2373C1.79997 30.1682 1.31491 26.9299 1.50504 23.6124C1.80143 18.4411 3.87223 13.4234 7.33589 9.48322C7.60299 9.17938 7.57321 8.71661 7.26942 8.44961C6.96567 8.18251 6.50281 8.2122 6.2358 8.51612C2.5571 12.7007 0.357683 18.0322 0.0426436 23.5286C-0.159212 27.0504 0.356218 30.4893 1.57477 33.7501C2.74655 36.8856 4.51161 39.7155 6.82098 42.1609C9.13397 44.6104 11.8634 46.538 14.9335 47.8897C18.1122 49.2897 21.4991 49.9996 25.0002 49.9996C31.0755 49.9996 36.9338 47.7893 41.496 43.7759C41.7997 43.5087 41.8292 43.0459 41.5621 42.7422C41.295 42.4386 40.8321 42.409 40.5284 42.6762Z" fill="#1F2937"/>
</g>
<defs>
<clipPath id="clip0_158_1694">
<rect width="50" height="50" fill="white"/>
</clipPath>
</defs>
</svg>
