<svg width="250" height="250" viewBox="0 0 250 250" fill="none" xmlns="http://www.w3.org/2000/svg">
<path d="M129.708 211.875C169.22 211.875 201.25 210.233 201.25 208.208C201.25 206.183 169.22 204.542 129.708 204.542C90.197 204.542 58.1667 206.183 58.1667 208.208C58.1667 210.233 90.197 211.875 129.708 211.875Z" fill="#E3F0FF"/>
<path d="M161.042 207.458C161.042 207.458 159.667 205.125 162.625 204C165.583 202.875 172.292 202.167 171.625 199.875C170.958 197.583 168.667 193.458 174.417 189.542C180.125 185.667 179 184 179.792 184.375C180.583 184.75 182.5 187.042 182.167 189.208C181.833 191.375 180.25 191.917 181 192.625C181.75 193.292 184.292 190.833 184.292 188.542C184.292 186.25 184.417 184.583 186.083 185.542C187.708 186.5 187.5 187.875 188.667 186.833C189.833 185.792 190.583 183.708 190.083 180.625C189.625 177.542 191.125 175.25 193.292 175.167C195.458 175.083 199.958 179.125 200.333 185.25C200.667 191.375 196.875 196.375 197.417 197.917C197.958 199.5 200.333 198.75 201.583 196.5C202.792 194.25 205.792 197.792 205 200.875C204.167 203.958 203.417 207.333 201.583 207.958C199.75 208.583 167.208 208.083 164.75 208.083C162.25 208.083 161.5 208.125 161.042 207.458Z" fill="#FF8D76"/>
<path d="M168.75 206.417C170.458 206.375 175.583 206.417 174.958 203.542C174.333 200.667 173.25 199.458 175.042 197C176.833 194.542 178.792 196.042 178.875 197.292C178.958 198.5 178.458 200.958 180.583 200.625C182.708 200.292 182.75 194.542 184.542 194.083C186.333 193.625 186.875 195.375 187.125 197.083C187.417 198.792 189.5 196.958 190.333 194.917C191.167 192.875 191.083 190.083 193 189.25C194.917 188.417 195.875 193.208 195.042 197.583C194.208 201.958 193.542 204.125 194.583 204.542C195.625 204.958 197.667 203.917 198.625 205.5C199.583 207.083 198.167 208.167 194.25 208.167C190.375 208.167 170.5 208.167 167.375 208.167C164.167 208.125 164.833 206.5 168.75 206.417Z" fill="#FEC272"/>
<path d="M55.3334 140.167C54.0834 142.375 50.7084 141.25 49.125 138.75C47.5417 136.208 45.1667 137.708 45.7084 142.708C46.25 147.667 48.25 150.958 51.8334 153.333C55.4167 155.708 59.4584 156.667 58.5 158.292C57.5417 159.917 56.0417 163.625 61.4167 165.5C66.7917 167.417 74.5834 166.542 78.5834 162.042C82.625 157.542 82.625 147.625 80.75 142.292C78.9167 136.958 75.2084 133.583 74 131.125C72.7917 128.667 70.5417 130.375 70.9167 132.667C71.3334 134.958 72.0834 136.292 70.4584 136.333C68.8334 136.375 67.75 130.792 62.875 129.75C58 128.667 57.2084 131.583 54.125 129.917C51.0417 128.208 49.9167 128.375 49.7084 131.042C49.5 133.75 51.5417 136.708 53.2917 137.167C55.9167 137.833 56.1667 138.667 55.3334 140.167Z" fill="#FEC272"/>
<path d="M62.5 142.75C62.9584 145.125 61 147.708 57.5834 146.208C54.1667 144.708 52.9584 145.917 54.7084 149.083C56.4584 152.25 60.375 155.167 62.5 156.25C64.625 157.333 63.1667 158.917 63.4584 160.542C63.75 162.167 68.5 164.625 73.2917 159.375C78.0834 154.125 78.125 147.458 76.75 142.583C75.375 137.75 73.5417 138.5 73.5417 140.125C73.5417 141.75 73.75 144.958 72.5 144.625C71.2917 144.292 69.5834 141.917 68 139.167C65.2917 134.458 58.6667 130.625 57.7917 134.25C57.1667 136.792 61.8334 139.125 62.5 142.75Z" fill="#FF8D76"/>
<path d="M159.125 127.208C153.125 122.333 147.667 113.583 146.458 97.875C145.583 86.5 149.375 81.4583 153.292 79.5833C157.167 77.75 157.167 75.9166 158.917 76.4166C160.667 76.9166 160.25 80.9166 158.625 82.875C157 84.8333 156.792 87.875 159.25 88.0833C161.708 88.2916 162 83.875 162.417 79.7917C162.833 75.7083 163.833 74.0833 168.667 71.8333C173.5 69.5833 176.042 67.9583 177.042 64.6666C178.083 61.375 179.083 61.5833 180.917 62.5C182.75 63.4167 183.375 67.7083 181.833 69.3333C180.292 70.9583 179.083 72.2083 179.292 73.625C179.5 75.0416 180.208 72.7917 184.417 70.75C188.625 68.7083 190.333 62.5833 190.875 59.4167C191.417 56.25 192.5 55.4167 195.458 56.875C198.417 58.2917 202.208 63.9167 201.167 71.5833C200.125 79.25 194.917 84.4583 194.125 88.5833C193.292 92.6667 195.875 93.5833 198.542 92.0416C201.208 90.5 199.75 85.9167 201.208 83.75C202.625 81.5833 207.042 86.2083 208.375 93.9583C209.708 101.708 211.75 114.042 200.208 125.583C188.292 137.417 170.833 136.75 159.125 127.208Z" fill="#FEC272"/>
<path d="M163.583 90.8333C166.5 86.0833 169.5 86.2499 169.625 87.9583C169.708 89.7083 167.292 92.1666 168.5 93.3749C169.708 94.5833 171.375 92.4583 171.875 89.3749C172.375 86.2916 175.333 84.5833 178.417 83.1249C181.5 81.7083 182.833 78.6249 184.333 78.5416C185.833 78.4583 186.375 81.7083 185.375 83.6666C184.333 85.6249 180.667 86.6249 180.667 89.3749C180.667 92.1249 183.375 92.2916 184.542 89.9999C185.708 87.7083 185.417 86.4583 187.875 86.2499C190.333 86.0416 190.125 91.9166 188.5 94.0833C186.875 96.2499 184.083 97.9583 185.375 100.083C186.667 102.208 189.042 100.083 190.333 98.6666C191.625 97.2499 194.208 98.7916 194.625 101.542C195.042 104.25 189.708 108.917 190.042 111.292C190.375 113.667 192.5 113.083 193.708 111.417C194.917 109.792 196.5 111.875 196.083 114.625C195.667 117.375 188.25 126.5 175 123C155.75 117.958 158.375 99.3749 163.583 90.8333Z" fill="#FF8D76"/>
<path d="M94.3333 85.1667L137.5 47.5417C137.917 47.1667 138.542 47.2084 138.917 47.6251C139.292 48.0417 139.25 48.7084 138.833 49.0834L96.3749 87.9167L94.3333 85.1667Z" fill="#E1ECFF"/>
<path d="M90.2916 92.8334L66.6249 40.6667C66.3749 40.1667 66.6249 39.5417 67.1249 39.3334C67.6249 39.0834 68.2499 39.2917 68.4999 39.8334L93.4999 91.7084L90.2916 92.8334Z" fill="#E1ECFF"/>
<path d="M90.5417 96.9583C94.8449 96.9583 98.3333 93.4699 98.3333 89.1667C98.3333 84.8634 94.8449 81.375 90.5417 81.375C86.2384 81.375 82.75 84.8634 82.75 89.1667C82.75 93.4699 86.2384 96.9583 90.5417 96.9583Z" fill="#0D2560"/>
<path d="M90.2083 86.625C92.2793 86.625 93.9583 85.5804 93.9583 84.2917C93.9583 83.003 92.2793 81.9584 90.2083 81.9584C88.1372 81.9584 86.4583 83.003 86.4583 84.2917C86.4583 85.5804 88.1372 86.625 90.2083 86.625Z" fill="#273D7A"/>
<path d="M151.875 185.167C151.75 188.708 147.625 188.833 145.583 184.75C144.625 182.792 143.042 179.458 141.667 176.542C140.167 173.333 138.917 170.583 138.917 170.583L150.792 171.792C150.792 171.792 151.042 173.875 151.333 176.5C151.667 179.5 151.958 183.25 151.875 185.167Z" fill="#1C3177"/>
<path d="M151.334 176.5C150.75 176.625 150.083 176.75 149.375 176.875C146.917 177.292 144.083 177 141.708 176.542C140.208 173.333 138.958 170.583 138.958 170.583L150.833 171.792C150.792 171.792 151.084 173.875 151.334 176.5Z" fill="#072359"/>
<path d="M71.3334 171.583C70.0834 174.917 73.7918 176.625 77.2501 173.667C78.9168 172.25 81.6668 169.792 84.0834 167.625C86.7084 165.25 88.9584 163.208 88.9584 163.208L77.5418 159.667C77.5418 159.667 76.5001 161.5 75.2084 163.792C73.7918 166.5 72.0001 169.792 71.3334 171.583Z" fill="#1C3177"/>
<path d="M75.25 163.833C75.75 164.208 76.2917 164.583 76.9167 164.958C79 166.292 81.7083 167.125 84.125 167.667C86.75 165.292 89 163.25 89 163.25L77.5833 159.708C77.5833 159.708 76.5417 161.542 75.25 163.833Z" fill="#072359"/>
<path d="M182.167 126.667C180.583 139.125 179.167 152.333 176.458 161.458C176.125 162.625 175.75 163.708 175.333 164.708C171.875 173.708 165.583 171.875 157.458 172.625C149.333 173.375 146.875 173.292 146.875 173.292L148.958 160.625L158.875 100.792L178.333 102.5C178.333 102.5 179.375 103.25 180.25 104.667C181.167 106.125 183.958 112.583 182.167 126.667Z" fill="#0D2560"/>
<path d="M176.458 161.458C176.125 162.625 175.75 163.708 175.333 164.708C171.875 173.708 165.583 171.875 157.458 172.625C149.333 173.375 146.875 173.292 146.875 173.292L148.958 160.625L176.458 161.458Z" fill="#072359"/>
<path d="M74.7917 91.9166C74.7917 91.9166 79.8751 89.2499 85.6251 89.0416C91.3751 88.8333 136.875 93.3749 151.75 94.9999C166.625 96.6249 173.042 98.6666 176.042 100.25C179.042 101.833 180.25 104.667 180.25 104.667L156.375 102.5L74.7917 91.9166Z" fill="#142966"/>
<path d="M65.7083 147.125L68.75 100.208C69.0833 94.7916 73.9167 90.75 79.2917 91.375L156.625 100.125C161.458 100.667 164.917 105 164.458 109.792L159.375 161C158.583 168.875 151.292 174.417 143.5 173.125L77.375 161.917C70.2917 160.708 65.25 154.292 65.7083 147.125Z" fill="#273D7A"/>
<path d="M138.125 162.583L143.708 108.458C143.958 106.167 146 104.5 148.292 104.75L158 105.833C160.292 106.083 161.917 108.167 161.667 110.417L155.417 164.583C155.167 166.875 153.042 168.5 150.75 168.208L141.75 167.083C139.5 166.833 137.875 164.833 138.125 162.583Z" fill="#FEC272"/>
<path d="M159.208 116.542C159.208 118.292 158.583 119.875 157.583 121.125C156.875 121.958 156.042 122.667 155.042 123.125C154.125 123.583 153.083 123.792 151.958 123.792C147.958 123.792 144.708 120.542 144.708 116.542C144.708 114.875 145.292 113.333 146.208 112.125C146.875 111.25 147.708 110.542 148.708 110.042C149.667 109.542 150.792 109.292 151.958 109.292C155.917 109.292 159.208 112.542 159.208 116.542Z" fill="#F9A95A"/>
<path d="M158.833 115.333C158.833 116.917 158.292 118.375 157.333 119.542C156.708 120.333 155.917 120.958 155 121.375C154.125 121.792 153.208 122 152.167 122C148.5 122 145.5 119.042 145.5 115.333C145.5 113.792 146 112.417 146.875 111.292C147.5 110.5 148.25 109.833 149.167 109.417C150.083 108.958 151.083 108.708 152.125 108.708C155.875 108.667 158.833 111.667 158.833 115.333Z" fill="#99ADF9"/>
<path d="M157.375 119.542C156.75 120.333 155.958 120.958 155.042 121.375L146.958 111.292C147.583 110.5 148.333 109.833 149.25 109.417L157.375 119.542Z" fill="#C5DFFF"/>
<path d="M152.667 140.625C151.083 141.25 149.458 141.292 147.958 140.833C146.958 140.542 146 140 145.208 139.25C144.458 138.583 143.875 137.708 143.458 136.75C142 133.125 143.708 129 147.333 127.542C148.833 126.917 150.417 126.875 151.875 127.292C152.875 127.583 153.833 128.083 154.667 128.792C155.458 129.5 156.125 130.375 156.542 131.417C158.042 135.042 156.292 139.167 152.667 140.625Z" fill="#F9A95A"/>
<path d="M152.667 138.917C151.208 139.5 149.625 139.542 148.208 139.125C147.25 138.833 146.375 138.333 145.625 137.667C144.917 137.042 144.375 136.25 144 135.292C142.625 131.875 144.25 128 147.625 126.625C149.042 126.042 150.542 126 151.917 126.375C152.875 126.625 153.75 127.125 154.542 127.792C155.292 128.458 155.917 129.292 156.333 130.292C157.708 133.667 156.083 137.542 152.667 138.917Z" fill="#99ADF9"/>
<path d="M154.542 127.75L148.208 139.125C147.25 138.833 146.375 138.333 145.625 137.667L151.917 126.375C152.917 126.625 153.792 127.083 154.542 127.75Z" fill="#C5DFFF"/>
<path d="M152.917 148.417L144.167 147.083C143.583 147 143.167 146.458 143.25 145.875C143.333 145.292 143.833 144.875 144.417 144.958L153.167 146.292C153.75 146.375 154.167 146.917 154.083 147.5C154 148.083 153.458 148.5 152.917 148.417Z" fill="#0D2560"/>
<path d="M152.333 153.25L143.583 151.917C143 151.833 142.583 151.292 142.667 150.708C142.75 150.125 143.25 149.708 143.833 149.792L152.583 151.125C153.167 151.208 153.583 151.75 153.5 152.333C153.458 152.958 152.917 153.333 152.333 153.25Z" fill="#0D2560"/>
<path d="M151.792 158.125L143.042 156.792C142.458 156.708 142.042 156.167 142.125 155.583C142.208 155 142.708 154.583 143.292 154.667L152.042 156C152.625 156.083 153.042 156.625 152.958 157.208C152.917 157.792 152.375 158.208 151.792 158.125Z" fill="#0D2560"/>
<path d="M151.25 162.958L142.5 161.625C141.917 161.542 141.5 161 141.583 160.417C141.667 159.833 142.167 159.417 142.75 159.5L151.5 160.833C152.083 160.917 152.5 161.458 152.417 162.042C152.375 162.625 151.833 163.042 151.25 162.958Z" fill="#0D2560"/>
<path d="M140.167 110.042L139.917 112.667L135.5 159.25C135.333 160.833 134.667 162.25 133.625 163.292C132.167 164.792 130.042 165.583 127.792 165.208L78.0001 157.333C72.7917 156.5 69.0417 151.833 69.3751 146.542L72.0417 104.792L72.1251 103.417L72.2917 101.125C72.5001 97.9583 75.3334 95.5833 78.5001 95.9583L134.333 102.667C137.917 103.167 140.5 106.417 140.167 110.042Z" fill="#F8FBFF"/>
<path d="M140.167 110.042L139.917 112.667L72.125 103.458L72.2917 101.167C72.5 97.9999 75.3333 95.6249 78.5 95.9999L134.333 102.708C137.917 103.167 140.5 106.417 140.167 110.042Z" fill="#C5DFFF"/>
<path d="M78.9168 100.75C78.7918 101.583 78.0001 102.208 77.1251 102.083C76.2501 101.958 75.5835 101.208 75.7085 100.375C75.8335 99.5416 76.6251 98.9166 77.5001 99.0416C78.3751 99.1666 79.0001 99.9166 78.9168 100.75Z" fill="white"/>
<path d="M85.5 101.542C85.375 102.375 84.5834 103 83.7084 102.875C82.8334 102.75 82.1667 102 82.2917 101.167C82.4167 100.333 83.2084 99.7082 84.0834 99.8332C84.9584 99.9582 85.5834 100.708 85.5 101.542Z" fill="white"/>
<path d="M92.0418 102.333C91.9168 103.167 91.1251 103.792 90.2501 103.667C89.3751 103.542 88.7085 102.792 88.8335 101.958C88.9585 101.125 89.7501 100.5 90.6251 100.625C91.5418 100.708 92.1668 101.5 92.0418 102.333Z" fill="white"/>
<path d="M133.625 163.292C132.167 164.792 130.042 165.583 127.792 165.208L78.0001 157.333C72.7917 156.5 69.0417 151.833 69.3751 146.542L72.0417 104.792C72.9167 119.25 70.7084 135.375 78.7501 144.542C90.5417 158 101.25 157.917 133.625 163.292Z" fill="#E1ECFF"/>
<path d="M93.4583 120.583L91.375 120.25C90.8333 120.167 90.375 120.5 90.3333 121.042L89.7083 126.75L87.0833 126.458C86.625 126.375 86.3333 125.917 86.5 125.5L88.375 120.917C88.625 120.333 88.2083 119.667 87.5833 119.583L85.875 119.292C85.4583 119.208 85.0416 119.458 84.875 119.833L81.9166 127.167C81.5833 128 82.125 128.958 83.0416 129.125L89.3333 130.208L88.2083 140.375C88.1666 140.917 88.5416 141.417 89.0833 141.5L91.0416 141.792C91.5416 141.875 92 141.542 92.0833 141L94.3333 121.75C94.375 121.208 94 120.667 93.4583 120.583Z" fill="#99ADF9"/>
<path d="M123.167 125.542L121.042 125.167C120.5 125.083 120 125.458 119.958 125.958L119.292 131.875L116.542 131.583C116.083 131.5 115.792 131 115.958 130.583L117.875 125.833C118.125 125.25 117.708 124.542 117.042 124.417L115.292 124.125C114.833 124.042 114.417 124.292 114.25 124.667L111.167 132.25C110.833 133.125 111.417 134.125 112.333 134.292L118.833 135.375L117.667 145.917C117.625 146.458 118 147 118.583 147.083L120.625 147.375C121.167 147.458 121.625 147.083 121.708 146.583L124.042 126.625C124.125 126.125 123.708 125.625 123.167 125.542Z" fill="#99ADF9"/>
<path d="M103.625 121.917C99.4999 121.542 97.0832 123.875 96.0832 130.75C94.8332 139.292 97.0832 142.75 101.25 143.708C106.917 145.042 107.917 140.167 109.042 132.958C110.167 125.75 107.75 122.292 103.625 121.917ZM105.667 132.792C105.125 137.833 103.583 140.708 101.708 140.25C99.7082 139.75 98.9582 137.417 99.5415 131.458C99.9999 126.667 101.167 125.042 103.125 125.208C105.083 125.417 106.208 127.75 105.667 132.792Z" fill="#99ADF9"/>
<path d="M158 67.9167C156 67.8751 155.125 63.0834 157 61.8751C158.875 60.6667 160.208 63.1251 160.25 64.9167C160.292 66.7084 159.792 68.0001 158 67.9167Z" fill="#FF8D76"/>
<path d="M181.125 54.0417C179.292 54 178.5 49.6667 180.25 48.5833C181.958 47.5 183.125 49.7083 183.167 51.3333C183.208 52.9583 182.75 54.0833 181.125 54.0417Z" fill="#FEC272"/>
<path d="M199.417 45.2083C197.542 45.1667 196.708 40.7083 198.5 39.5833C200.292 38.4583 201.458 40.75 201.542 42.4167C201.625 44.0833 201.083 45.2917 199.417 45.2083Z" fill="#FF8D76"/>
<path d="M214.625 79.5833C213.042 79.1666 213.25 75.125 215 74.5416C216.75 73.9583 217.333 76.125 217.042 77.5833C216.75 79.0416 216.083 79.9583 214.625 79.5833Z" fill="#FEC272"/>
<path d="M54.9582 121.833C52.9999 121.542 52.6249 116.75 54.6665 115.792C56.7082 114.833 57.6665 117.375 57.5415 119.125C57.3749 120.917 56.7499 122.042 54.9582 121.833Z" fill="#FEC272"/>
<path d="M49.3333 106.417C47.7916 106.208 47.5416 102.458 49.0833 101.708C50.6249 100.958 51.4166 102.917 51.2916 104.292C51.2083 105.708 50.7083 106.625 49.3333 106.417Z" fill="#FF8D76"/>
<path d="M38.0415 131.167C35.5415 130.833 35.0832 124.667 37.6665 123.458C40.2082 122.25 41.4999 125.458 41.3332 127.75C41.1249 130 40.3332 131.458 38.0415 131.167Z" fill="#FEC272"/>
<path d="M64.2499 89.8333L44.4166 74.0416L40.8333 80.5833L64.2499 89.8333Z" fill="#FEC272"/>
<path d="M65.2083 85.375L45.9583 66.5833L53.1666 61.9166L65.2083 85.375Z" fill="#FEC272"/>
<path d="M62.375 62.5833L69.125 83.5833L68.4583 61.9583L62.375 62.5833Z" fill="#FEC272"/>
</svg>
