<svg width="336" height="323" viewBox="0 0 336 323" fill="none" xmlns="http://www.w3.org/2000/svg">
<g clip-path="url(#clip0_107_1830)">
<path d="M48.3701 187.898C46.9297 177.709 45.6613 166.592 50.9444 157.779C53.3576 153.755 56.9799 150.54 59.1727 146.393C61.3547 142.272 61.9782 137.536 63.0208 132.995C64.1656 128.005 65.8585 123.145 68.0513 118.528C71.2867 111.727 76.1237 105.06 83.2556 102.708C84.0941 102.433 85.0077 102.223 85.8408 102.514C88.0389 103.28 87.8024 106.473 86.9909 108.663C82.2506 121.436 72.5067 132.401 70.6418 145.907C70.0721 150.044 70.228 154.446 68.2125 158.097C65.2996 163.383 58.5869 165.708 55.7868 171.053C54.2228 174.036 54.11 177.531 53.508 180.843C52.7395 185.05 51.1164 189.101 48.7731 192.677C44.0436 190.643 38.9272 188.248 36.7075 183.588C35.0629 180.142 35.3585 176.129 35.5305 172.31C35.8691 164.737 35.5681 157.078 33.7139 149.731C32.5369 145.082 30.7526 140.594 29.8336 135.891C27.6193 124.548 30.586 112.903 33.5366 101.727C34.2084 99.1863 35.3263 96.2035 37.8899 95.6911C40.8458 95.0978 43.1515 98.2963 44.0168 101.198C48.5044 116.258 37.4868 131.932 39.0024 147.579C39.4915 152.66 41.308 157.558 41.6144 162.655C42.0013 169.063 40.0665 175.934 42.9687 181.657C44.35 184.376 46.7309 186.576 47.6176 189.494C48.5044 192.412 46.6341 196.496 43.6298 196.021C42.5603 195.854 41.6627 195.147 40.819 194.462C34.9608 189.721 29.0113 184.877 24.8138 178.604C21.6859 173.928 19.5899 168.54 15.8492 164.338C12.8718 160.988 9.0022 158.577 5.73991 155.503C2.47761 152.428 -0.284856 148.286 0.0322367 143.809C0.349329 139.332 5.0251 135.157 9.20105 136.759C11.8722 137.784 13.3824 140.643 14.1563 143.41C14.9302 146.177 15.2204 149.122 16.5641 151.657C19.0256 156.312 24.5827 158.782 26.7594 163.577C27.974 166.253 27.9901 169.37 29.3123 171.997C30.8816 175.109 34.0203 177.051 36.5033 179.494C41.2328 184.149 43.6513 191.059 42.8666 197.661L48.3754 187.914L48.3701 187.898Z" fill="#749F82"/>
<path d="M74.936 117.482C71.8618 120.864 70.4644 125.26 69.6207 129.672C68.7392 134.267 68.3792 138.971 67.1054 143.485C66.4927 145.67 65.6489 147.795 64.4289 149.715C62.8811 152.153 60.7528 154.117 58.8933 156.306C55.5073 160.292 52.9921 164.99 51.4711 169.99C49.9394 175.007 49.4073 180.352 49.9932 185.573C50.063 186.204 50.149 186.835 50.2511 187.461C50.3371 187.973 51.1164 187.758 51.0304 187.245C50.1974 182.11 50.4984 176.808 51.8043 171.776C53.105 166.781 55.3945 162.029 58.5762 157.968C60.3229 155.74 62.4028 153.809 64.1172 151.56C65.5522 149.683 66.6056 147.574 67.3688 145.341C68.8575 140.988 69.2982 136.366 70.0452 131.851C70.7708 127.471 71.7812 122.957 74.4577 119.321C74.7801 118.884 75.1295 118.464 75.5003 118.059C75.8496 117.676 75.28 117.099 74.9306 117.487L74.936 117.482Z" fill="#F9F9FA"/>
<path d="M34.3804 119.343C33.0905 123.518 33.0905 127.908 33.6817 132.207C34.2944 136.652 35.4821 140.988 36.4925 145.357C37.0031 147.558 37.4707 149.775 37.7985 152.013C38.1425 154.365 38.2876 156.733 38.2661 159.111C38.2177 163.982 37.5889 168.831 37.7179 173.701C37.8308 177.952 38.508 182.294 40.5073 186.091C40.7545 186.566 41.0286 187.024 41.3134 187.477C41.5929 187.914 42.2969 187.509 42.0121 187.067C39.7065 183.47 38.8089 179.203 38.5778 174.98C38.3145 170.217 38.8895 165.47 39.04 160.719C39.1153 158.335 39.0776 155.945 38.8089 153.572C38.5617 151.355 38.1532 149.165 37.6857 146.986C36.7398 142.628 35.5305 138.329 34.7673 133.933C34.0364 129.726 33.7516 125.362 34.7297 121.166C34.8533 120.627 34.9984 120.098 35.165 119.569C35.3209 119.068 34.5362 118.857 34.3858 119.354L34.3804 119.343Z" fill="#F9F9FA"/>
<path d="M7.34687 146.35C7.37374 150.114 9.81911 153.324 12.5117 155.708C15.4085 158.275 18.7783 160.325 21.1431 163.459C23.3251 166.355 24.701 169.748 26.1198 173.06C27.5602 176.414 29.0973 179.721 31.4405 182.553C33.7408 185.33 36.6591 187.612 39.9053 189.16C40.3191 189.36 40.7383 189.543 41.1575 189.716C41.3618 189.802 41.6036 189.624 41.6574 189.43C41.7219 189.198 41.5768 189.014 41.3725 188.928C38.1102 187.569 35.1597 185.465 32.7734 182.849C31.5749 181.539 30.543 180.093 29.6562 178.556C28.7587 177.002 28.0009 175.368 27.2861 173.723C25.8565 170.454 24.572 167.078 22.5834 164.095C21.5462 162.542 20.3208 161.15 18.9288 159.91C17.4777 158.615 15.903 157.466 14.3928 156.236C11.6518 154.009 8.86784 151.236 8.25515 147.59C8.18528 147.175 8.15303 146.759 8.15303 146.339C8.15303 145.816 7.34149 145.816 7.34149 146.339L7.34687 146.35Z" fill="#F9F9FA"/>
<path d="M35.0629 178.739C37.4438 181.722 39.255 185.169 40.3729 188.82C40.69 189.856 40.9533 190.913 41.1575 191.976C41.2005 192.191 41.4585 192.315 41.6574 192.261C41.8831 192.202 41.9798 191.976 41.9422 191.76C41.5714 189.84 41.0124 187.957 40.2869 186.139C39.5506 184.311 38.6584 182.547 37.5943 180.886C36.9923 179.942 36.3367 179.036 35.638 178.162C35.5036 177.989 35.208 178.016 35.0683 178.162C34.9017 178.329 34.9285 178.567 35.0683 178.734L35.0629 178.739Z" fill="#F9F9FA"/>
<path d="M52.804 196.145H30.6666C27.098 196.145 24.2065 193.243 24.2065 189.662C24.2065 186.08 27.098 183.178 30.6666 183.178H52.804C56.3726 183.178 59.2641 186.08 59.2641 189.662C59.2641 193.243 56.3726 196.145 52.804 196.145Z" fill="#FCB415"/>
<path d="M54.1906 195.217H29.28L33.8967 217.44H49.5793L54.1906 195.217Z" fill="#FCB415"/>
<path d="M31.9457 196.215H52.4332C52.9545 196.215 52.9545 195.401 52.4332 195.401H31.9457C31.4244 195.401 31.4244 196.215 31.9457 196.215Z" fill="#D79128"/>
<path d="M23.0242 214.586H63.2734C61.817 216.895 57.6625 218.459 52.9814 218.459H33.3377C28.8984 218.459 24.9052 217.051 23.2714 214.91L23.0242 214.586Z" fill="#D79128"/>
<path d="M25.4265 286.34L24.8084 286.226C23.8196 286.043 23.1692 285.088 23.3573 284.101L28.2374 225.045L32.4294 225.832L27.5494 284.889C27.3667 285.881 26.4154 286.534 25.4319 286.345L25.4265 286.34Z" fill="#D79128"/>
<path d="M60.5325 286.34L61.1505 286.226C62.1394 286.043 62.7897 285.088 62.6016 284.101L57.7216 225.045L53.5295 225.832L58.4095 284.889C58.5923 285.881 59.5436 286.534 60.5271 286.345L60.5325 286.34Z" fill="#D79128"/>
<path d="M58.904 236.436H27.6462V239.29H58.904V236.436Z" fill="#D79128"/>
<path d="M62.4888 226.032H23.4649C21.3903 226.032 19.7135 224.344 19.7135 222.267C19.7135 220.19 21.3957 218.502 23.4649 218.502H62.4888C64.5633 218.502 66.2401 220.19 66.2401 222.267C66.2401 224.344 64.5579 226.032 62.4888 226.032Z" fill="#749F82"/>
<path d="M311.299 150.74H318.372L333.888 322.759L331.039 322.333L311.299 150.74Z" fill="#D79128"/>
<path d="M309.929 150.74H302.856L287.345 322.759L290.194 322.333L309.929 150.74Z" fill="#D79128"/>
<path d="M336 120.815C336 123.07 324.633 124.893 310.616 124.893C296.6 124.893 285.233 123.065 285.233 120.815C285.233 118.566 296.6 116.738 310.616 116.738C324.633 116.738 336 118.566 336 120.815Z" fill="#E18926"/>
<path d="M311.407 322.759H310.138L308.031 111.759H313.202L311.407 322.759Z" fill="#D79128"/>
<path d="M310.772 116.738C323.424 116.738 333.915 118.226 335.839 120.174V90.2596L326.842 89.1269C316.039 87.7677 305.108 87.7677 294.3 89.1323L285.383 90.2596V120.821C285.383 118.566 296.75 116.743 310.767 116.743L310.772 116.738Z" fill="#FCB415"/>
<path d="M223.19 309.576L219.606 309.123L226.13 241.307L229.715 241.766L223.19 309.576Z" fill="#D79128"/>
<path d="M266.847 309.576L270.426 309.123L263.902 241.307L260.322 241.766L266.847 309.576Z" fill="#D79128"/>
<path d="M264.875 261.696H225.157V263.697H264.875V261.696Z" fill="#D79128"/>
<path d="M268.363 245.39H221.669C219.831 245.39 218.337 243.896 218.337 242.046C218.337 240.196 219.826 238.702 221.669 238.702H268.363C270.201 238.702 271.695 240.196 271.695 242.046C271.695 243.896 270.206 245.39 268.363 245.39Z" fill="#749F82"/>
<path d="M258.672 69.1752V118.874C258.672 119.122 259.059 119.122 259.059 118.874V69.1752C259.059 68.9271 258.672 68.9271 258.672 69.1752Z" fill="#5C4CA0"/>
<path d="M258.866 119.737C259.86 119.737 260.666 118.928 260.666 117.93C260.666 116.932 259.86 116.123 258.866 116.123C257.872 116.123 257.065 116.932 257.065 117.93C257.065 118.928 257.872 119.737 258.866 119.737Z" fill="#5C4CA0"/>
<path d="M129.481 62.6703V207.283H268.131V62.6703H129.481ZM266.057 137.973H194.109V64.9897H266.057V137.973ZM192.029 64.9897V137.973H131.556V64.9897H192.029ZM131.556 140.292H192.029V204.958H131.556V140.292ZM194.104 204.958V140.292H266.052V204.958H194.104Z" fill="#FCB415"/>
<path d="M288.452 204.926H109.161V211.247H288.452V204.926Z" fill="#749F82"/>
<path d="M143.407 184.138C141.988 179.311 138.435 175.454 134.996 171.792C140.246 172.407 145.062 175.951 147.228 180.789C147.249 176.134 149.292 171.522 152.72 168.383C151.425 172.137 150.802 176.129 150.904 180.098C153.661 175.902 158.095 172.849 162.991 171.787C158.095 176.204 154.258 181.792 151.877 187.952C148.958 188.567 145.959 188.777 142.987 188.567L143.407 184.138Z" fill="#749F82"/>
<path d="M151.721 179.354C151.393 179.262 151.221 178.815 151.409 178.529C151.603 178.238 152.076 178.254 152.291 178.518C152.393 178.642 152.618 178.507 152.559 178.362C152.468 178.124 152.409 177.871 152.42 177.617C152.43 177.418 152.516 177.186 152.672 177.089C152.747 177.04 152.801 177.024 152.898 177.008C152.876 177.008 152.935 177.008 152.941 177.008C152.962 177.008 152.984 177.008 153.011 177.008C153.059 177.008 153.054 177.008 153.107 177.024C153.124 177.024 153.145 177.035 153.161 177.04C153.215 177.062 153.231 177.072 153.253 177.089C153.317 177.148 153.312 177.137 153.339 177.186C153.355 177.24 153.36 177.261 153.365 177.283C153.468 177.256 153.575 177.223 153.677 177.197C153.586 176.975 153.537 176.733 153.564 176.49C153.575 176.382 153.607 176.274 153.661 176.177C153.709 176.091 153.774 176.015 153.844 175.972C153.978 175.886 154.15 175.87 154.301 175.913C154.456 175.956 154.553 176.037 154.575 176.199C154.677 176.172 154.784 176.139 154.886 176.112C154.806 175.708 154.774 175.212 155.031 174.856C155.085 174.785 155.134 174.732 155.203 174.694C155.268 174.656 155.322 174.64 155.408 174.624C155.461 174.618 155.483 174.618 155.504 174.613C155.542 174.613 155.601 174.613 155.623 174.613C155.639 174.613 155.698 174.629 155.725 174.634C155.741 174.634 155.757 174.645 155.773 174.651C155.805 174.661 155.784 174.651 155.811 174.667C155.843 174.683 155.897 174.715 155.908 174.726C155.908 174.726 155.934 174.753 155.945 174.759C156.02 174.861 156.031 174.893 156.031 174.98C156.133 174.953 156.23 174.926 156.332 174.899C156.166 174.505 156.171 173.982 156.44 173.631C156.504 173.55 156.579 173.48 156.671 173.426C156.714 173.399 156.724 173.399 156.773 173.383C156.81 173.372 156.88 173.356 156.896 173.351C157.085 173.329 157.257 173.362 157.412 173.448C157.455 173.475 157.498 173.502 157.525 173.523C157.547 173.54 157.563 173.561 157.579 173.577C157.595 173.593 157.611 173.615 157.611 173.615C157.638 173.658 157.665 173.701 157.67 173.728C157.686 173.782 157.697 173.825 157.697 173.869L158.014 173.825C157.864 173.469 157.858 173.011 158.106 172.687C158.165 172.612 158.24 172.547 158.326 172.499C158.385 172.466 158.482 172.439 158.546 172.439C158.718 172.428 158.874 172.477 159.019 172.579C159.084 172.623 159.143 172.693 159.181 172.763C159.218 172.833 159.234 172.908 159.224 173.006H159.546C159.53 172.617 159.659 172.078 160.078 171.943C160.164 171.916 160.239 171.916 160.325 171.943C160.411 171.965 160.497 172.013 160.562 172.072C160.632 172.132 160.68 172.202 160.702 172.277C160.723 172.353 160.718 172.407 160.68 172.482L160.976 172.606C161.072 172.24 161.18 171.83 161.465 171.565C161.588 171.452 161.712 171.393 161.862 171.393C162.002 171.393 162.137 171.436 162.255 171.522C162.298 171.555 162.341 171.603 162.373 171.668C162.362 171.646 162.384 171.695 162.384 171.706C162.395 171.787 162.389 171.803 162.384 171.84L162.701 171.884C162.69 171.797 162.701 171.76 162.744 171.695C162.744 171.695 162.792 171.646 162.803 171.636C162.824 171.619 162.873 171.587 162.91 171.576C163.034 171.522 163.19 171.528 163.292 171.636C163.41 171.754 163.426 171.943 163.383 172.099C163.335 172.288 163.201 172.428 163.018 172.493C162.787 172.574 162.523 172.552 162.303 172.445C162.223 172.407 162.126 172.423 162.083 172.504C162.04 172.579 162.061 172.682 162.142 172.725C162.389 172.86 162.47 173.227 162.298 173.442C162.12 173.664 161.717 173.653 161.551 173.421C161.427 173.248 161.191 173.394 161.271 173.583C161.384 173.847 161.271 174.171 161.083 174.381C160.879 174.608 160.583 174.737 160.293 174.656C160.175 174.618 160.062 174.737 160.094 174.856C160.18 175.19 160.024 175.53 159.766 175.762C159.503 175.994 159.154 176.096 158.826 175.967C158.686 175.913 158.579 176.091 158.643 176.204C158.81 176.495 158.794 176.878 158.589 177.148C158.401 177.396 158.068 177.531 157.762 177.472C157.649 177.45 157.514 177.547 157.563 177.671C157.778 178.27 157.24 178.987 156.601 178.944C156.418 178.928 156.38 179.225 156.558 179.262C156.649 179.284 156.708 179.338 156.735 179.435C156.767 179.537 156.762 179.645 156.724 179.742C156.612 180.007 156.273 180.131 156.02 180.228C155.918 180.266 155.87 180.368 155.924 180.465C156.203 180.994 155.666 181.792 155.064 181.706C154.983 181.695 154.903 181.717 154.87 181.797C154.843 181.862 154.86 181.97 154.935 182.002C155.042 182.046 155.085 182.11 155.107 182.224C155.128 182.321 155.107 182.445 155.058 182.542C154.908 182.817 154.542 182.914 154.268 182.995C154.139 183.033 154.123 183.173 154.198 183.265C154.247 183.329 154.268 183.416 154.268 183.502C154.268 183.588 154.236 183.685 154.193 183.772C154.145 183.852 154.086 183.923 154.01 183.971C153.919 184.03 153.849 184.041 153.742 184.03C153.623 184.014 153.537 184.181 153.602 184.273C153.688 184.397 153.693 184.57 153.58 184.678C153.468 184.786 153.296 184.78 153.177 184.694C153.107 184.645 152.995 184.683 152.957 184.753C152.909 184.834 152.941 184.926 153.016 184.974C153.253 185.142 153.607 185.109 153.811 184.904C154.016 184.699 154.048 184.343 153.881 184.106C153.833 184.187 153.79 184.268 153.742 184.349C154.053 184.386 154.338 184.176 154.483 183.912C154.639 183.626 154.634 183.291 154.435 183.027L154.365 183.297C154.741 183.184 155.198 183.033 155.375 182.639C155.515 182.326 155.467 181.862 155.112 181.711L154.989 182.008C155.435 182.073 155.838 181.851 156.096 181.495C156.343 181.145 156.413 180.676 156.214 180.293L156.117 180.53C156.488 180.39 156.923 180.206 157.058 179.791C157.165 179.462 157.025 179.014 156.655 178.933C156.638 179.041 156.628 179.144 156.612 179.252C157.45 179.316 158.17 178.362 157.885 177.569C157.821 177.633 157.751 177.704 157.686 177.768C158.133 177.849 158.595 177.677 158.869 177.31C159.143 176.943 159.164 176.414 158.939 176.015C158.88 176.096 158.815 176.177 158.756 176.253C159.637 176.598 160.659 175.643 160.422 174.742C160.358 174.807 160.288 174.877 160.223 174.942C160.632 175.061 161.067 174.883 161.341 174.57C161.626 174.241 161.744 173.798 161.567 173.389C161.475 173.442 161.379 173.496 161.287 173.55C161.513 173.869 161.938 173.971 162.292 173.815C162.647 173.658 162.792 173.248 162.69 172.887C162.631 172.687 162.502 172.509 162.319 172.407C162.266 172.499 162.212 172.596 162.158 172.687C162.443 172.822 162.771 172.871 163.077 172.779C163.373 172.693 163.604 172.482 163.7 172.191C163.792 171.927 163.749 171.619 163.572 171.398C163.405 171.188 163.12 171.129 162.867 171.209C162.599 171.296 162.357 171.544 162.394 171.84C162.405 171.921 162.448 171.992 162.534 172.002C162.615 172.013 162.69 171.965 162.712 171.884C162.819 171.452 162.448 171.112 162.051 171.042C161.841 171.004 161.621 171.031 161.438 171.15C161.228 171.28 161.067 171.479 160.954 171.7C160.825 171.948 160.75 172.213 160.68 172.482C160.632 172.66 160.884 172.774 160.976 172.606C161.212 172.186 160.863 171.733 160.46 171.603C159.997 171.452 159.562 171.787 159.385 172.196C159.277 172.439 159.229 172.709 159.24 172.973C159.245 173.184 159.541 173.178 159.562 172.973C159.616 172.466 159.116 172.11 158.659 172.078C158.122 172.04 157.713 172.493 157.627 172.995C157.574 173.291 157.6 173.599 157.719 173.874C157.751 173.949 157.81 174.003 157.896 173.993C157.971 173.982 158.041 173.917 158.036 173.831C158.009 173.302 157.498 172.973 157.009 172.979C156.423 172.979 156.015 173.469 155.934 174.025C155.886 174.365 155.934 174.705 156.069 175.017C156.096 175.082 156.187 175.109 156.251 175.093C156.321 175.071 156.37 175.007 156.37 174.937C156.375 174.478 155.918 174.219 155.504 174.235C155.284 174.246 155.069 174.322 154.913 174.473C154.72 174.661 154.602 174.926 154.559 175.19C154.505 175.508 154.532 175.827 154.596 176.145C154.612 176.231 154.714 176.28 154.795 176.258C154.886 176.231 154.924 176.145 154.908 176.058C154.843 175.665 154.413 175.476 154.053 175.519C153.854 175.541 153.666 175.622 153.532 175.773C153.365 175.956 153.285 176.188 153.263 176.431C153.236 176.695 153.29 176.975 153.392 177.223C153.473 177.418 153.736 177.342 153.704 177.137C153.65 176.738 153.21 176.582 152.855 176.636C152.677 176.663 152.5 176.743 152.382 176.884C152.215 177.072 152.14 177.321 152.124 177.563C152.108 177.844 152.178 178.13 152.274 178.394C152.366 178.34 152.457 178.286 152.543 178.238C152.28 177.909 151.769 177.855 151.414 178.065C151.022 178.291 150.942 178.782 151.135 179.171C151.237 179.386 151.431 179.554 151.662 179.613C151.866 179.667 151.952 179.354 151.748 179.3L151.721 179.354Z" fill="#A8E890"/>
<path d="M147.384 180.125C147.007 180.098 146.551 179.893 146.561 179.451C146.561 179.289 146.653 179.16 146.787 179.122C146.857 179.101 146.916 179.101 146.981 179.117C147.045 179.133 147.083 179.16 147.12 179.219L147.373 179.02C147.169 178.809 146.895 178.55 146.878 178.232C146.878 178.114 146.916 177.995 146.991 177.909C147.024 177.865 147.077 177.828 147.115 177.806C147.174 177.779 147.212 177.779 147.265 177.795C147.437 177.838 147.556 177.585 147.389 177.499C147.061 177.326 146.69 176.927 146.841 176.522C146.889 176.393 147.018 176.274 147.142 176.226C147.222 176.193 147.282 176.183 147.368 176.188C147.411 176.188 147.486 176.22 147.529 176.263C147.663 176.387 147.873 176.231 147.781 176.064C147.674 175.864 147.572 175.659 147.513 175.444C147.464 175.266 147.443 175.05 147.529 174.888C147.593 174.764 147.701 174.661 147.824 174.613C147.937 174.57 148.055 174.564 148.141 174.635C148.276 174.748 148.491 174.608 148.394 174.435C148.201 174.079 147.943 173.545 148.184 173.162C148.26 173.038 148.394 172.941 148.523 172.903C148.657 172.86 148.781 172.871 148.878 172.968C148.937 173.022 149.028 173.033 149.093 172.979C149.152 172.935 149.184 172.833 149.136 172.768C148.937 172.509 148.733 172.105 148.899 171.787C148.958 171.673 149.06 171.582 149.173 171.538C149.297 171.49 149.404 171.49 149.517 171.565L149.679 171.285C149.426 171.129 149.361 170.724 149.555 170.503C149.77 170.26 150.178 170.298 150.372 170.546C150.447 170.471 150.522 170.395 150.603 170.314C150.447 170.141 150.329 169.926 150.302 169.694C150.286 169.586 150.297 169.473 150.334 169.37C150.35 169.322 150.377 169.273 150.404 169.23C150.393 169.246 150.431 169.203 150.431 169.198C150.522 169.117 150.587 169.09 150.667 169.074C150.716 169.063 150.705 169.063 150.759 169.063C150.78 169.063 150.802 169.063 150.829 169.063C150.834 169.063 150.899 169.068 150.866 169.063C150.958 169.079 150.995 169.09 151.065 169.144C151.14 169.235 151.14 169.235 151.151 169.295C151.194 169.467 151.484 169.435 151.468 169.252C151.447 168.987 151.457 168.707 151.592 168.469C151.699 168.281 151.893 168.146 152.108 168.146C152.156 168.146 152.199 168.151 152.242 168.167C152.285 168.184 152.328 168.211 152.344 168.227C152.371 168.254 152.387 168.27 152.409 168.318C152.398 168.297 152.42 168.351 152.42 168.362C152.42 168.367 152.43 168.426 152.43 168.405C152.441 168.491 152.43 168.561 152.398 168.615C152.398 168.62 152.36 168.669 152.377 168.647C152.366 168.664 152.35 168.68 152.334 168.691C152.355 168.674 152.307 168.707 152.301 168.707C152.323 168.696 152.269 168.712 152.264 168.718L152.387 169.014C152.527 168.917 152.753 168.755 152.914 168.847C153.011 168.901 153.048 169.036 153.048 169.16C153.048 169.305 152.957 169.435 152.839 169.543C152.688 169.672 152.5 169.759 152.323 169.845C152.205 169.899 152.231 170.061 152.323 170.125C152.522 170.266 152.516 170.584 152.409 170.783C152.253 171.08 151.925 171.247 151.64 171.404L151.839 171.657C151.877 171.625 151.925 171.614 151.963 171.619C152.033 171.63 152.092 171.663 152.14 171.711C152.264 171.83 152.258 172.013 152.178 172.175C152.076 172.38 151.904 172.531 151.732 172.677C151.543 172.833 151.361 172.984 151.221 173.189C151.135 173.313 151.275 173.459 151.404 173.426C151.447 173.416 151.5 173.421 151.543 173.442C151.597 173.469 151.64 173.513 151.672 173.567C151.748 173.68 151.78 173.825 151.748 173.95C151.656 174.3 151.269 174.5 150.979 174.656C150.834 174.737 150.904 174.958 151.06 174.958C151.173 174.958 151.275 175.028 151.339 175.136C151.414 175.255 151.447 175.4 151.425 175.541C151.372 175.902 151.022 176.177 150.759 176.404C150.667 176.479 150.716 176.652 150.829 176.673C151.022 176.711 151.221 176.749 151.415 176.787C151.382 176.706 151.35 176.625 151.318 176.549C151.119 176.938 150.866 177.283 150.555 177.58C150.452 177.677 150.528 177.86 150.667 177.855C150.85 177.849 151.028 177.844 151.21 177.833C151.157 177.763 151.108 177.698 151.054 177.628C151.017 177.882 150.925 178.119 150.759 178.313C150.684 178.405 150.705 178.55 150.829 178.583C150.872 178.594 150.899 178.626 150.915 178.669C150.936 178.734 150.936 178.793 150.915 178.858C150.856 179.014 150.662 179.122 150.522 179.208C150.345 179.316 150.506 179.597 150.684 179.489C150.915 179.349 151.189 179.171 151.243 178.885C151.291 178.631 151.183 178.34 150.915 178.265L150.985 178.534C151.183 178.297 151.323 178.011 151.366 177.704C151.382 177.606 151.329 177.493 151.21 177.499C151.028 177.504 150.85 177.509 150.667 177.52L150.78 177.795C151.114 177.477 151.388 177.105 151.597 176.695C151.64 176.609 151.608 176.479 151.5 176.458C151.307 176.42 151.108 176.382 150.915 176.344L150.985 176.614C151.334 176.323 151.732 175.967 151.753 175.476C151.769 175.071 151.495 174.629 151.06 174.624L151.14 174.926C151.543 174.71 152.033 174.408 152.081 173.906C152.124 173.48 151.775 173 151.318 173.103C151.377 173.184 151.441 173.264 151.5 173.34C151.662 173.108 151.904 172.952 152.113 172.763C152.323 172.574 152.511 172.326 152.549 172.04C152.586 171.776 152.479 171.533 152.258 171.387C152.054 171.253 151.785 171.247 151.608 171.42C151.468 171.549 151.646 171.76 151.807 171.673C152.167 171.479 152.565 171.247 152.731 170.848C152.876 170.497 152.817 170.055 152.489 169.834V170.115C152.914 169.915 153.419 169.613 153.376 169.074C153.36 168.863 153.258 168.642 153.059 168.54C152.769 168.394 152.473 168.55 152.231 168.718C152.081 168.825 152.172 169.052 152.355 169.014C152.801 168.923 152.882 168.291 152.597 167.995C152.425 167.811 152.145 167.774 151.914 167.833C151.662 167.898 151.441 168.07 151.318 168.302C151.162 168.588 151.135 168.923 151.157 169.235L151.474 169.192C151.377 168.798 150.931 168.658 150.576 168.75C150.114 168.869 149.926 169.338 149.996 169.786C150.044 170.066 150.189 170.325 150.377 170.535C150.436 170.6 150.549 170.595 150.608 170.535C150.678 170.465 150.662 170.373 150.608 170.303C150.366 169.996 149.915 169.931 149.571 170.088C149.211 170.255 149.066 170.67 149.157 171.042C149.211 171.253 149.34 171.441 149.523 171.555C149.7 171.668 149.856 171.387 149.684 171.274C149.329 171.037 148.851 171.242 148.647 171.582C148.383 172.013 148.582 172.563 148.862 172.93C148.948 172.865 149.034 172.801 149.114 172.731C148.76 172.385 148.206 172.585 147.943 172.946C147.577 173.442 147.857 174.122 148.12 174.597L148.373 174.397C148.012 174.095 147.507 174.3 147.276 174.661C146.964 175.152 147.26 175.767 147.502 176.22C147.588 176.156 147.674 176.091 147.755 176.021C147.454 175.746 147.007 175.837 146.733 176.102C146.411 176.409 146.427 176.889 146.653 177.25C146.792 177.472 146.991 177.65 147.222 177.768C147.265 177.671 147.303 177.569 147.346 177.472C146.927 177.364 146.588 177.752 146.551 178.135C146.502 178.577 146.852 178.95 147.136 179.241C147.265 179.37 147.486 179.203 147.389 179.041C147.179 178.691 146.642 178.685 146.389 178.993C146.239 179.171 146.207 179.408 146.25 179.635C146.293 179.861 146.432 180.055 146.615 180.19C146.835 180.352 147.11 180.422 147.378 180.444C147.464 180.449 147.54 180.363 147.54 180.282C147.54 180.19 147.464 180.125 147.378 180.12L147.384 180.125Z" fill="#A8E890"/>
<path d="M143.6 184.3C143.358 184.457 142.993 184.419 142.81 184.176C142.633 183.933 142.686 183.577 142.901 183.383C142.993 183.302 142.944 183.135 142.831 183.113C142.504 183.043 142.176 182.779 142.149 182.423C142.122 182.11 142.412 181.738 142.751 181.803C142.74 181.706 142.724 181.603 142.713 181.506C142.418 181.668 142.02 181.598 141.794 181.35C141.563 181.102 141.547 180.659 141.757 180.395C141.826 180.303 141.816 180.152 141.687 180.125C141.321 180.039 140.848 179.942 140.623 179.613C140.531 179.483 140.494 179.332 140.499 179.176C140.504 179.041 140.563 178.912 140.687 178.842C140.854 178.745 140.735 178.513 140.563 178.545C140.284 178.594 139.983 178.432 139.865 178.184C139.741 177.925 139.822 177.601 140.026 177.412C140.085 177.358 140.085 177.261 140.037 177.197C139.983 177.126 139.902 177.121 139.827 177.153C139.51 177.299 139.107 177.191 138.887 176.932C138.661 176.663 138.656 176.22 138.871 175.94C138.914 175.88 138.935 175.81 138.897 175.74C138.86 175.681 138.785 175.643 138.715 175.665C138.392 175.762 138.027 175.665 137.796 175.417C137.57 175.174 137.5 174.775 137.629 174.467C137.656 174.408 137.661 174.343 137.618 174.289C137.581 174.241 137.511 174.208 137.446 174.23C137.296 174.278 137.14 174.311 136.984 174.3C136.866 174.289 136.715 174.23 136.662 174.144C136.635 174.1 136.619 174.063 136.613 174.014C136.608 173.976 136.613 173.906 136.613 173.879C136.635 173.809 136.645 173.798 136.651 173.788C136.667 173.766 136.678 173.755 136.688 173.75C136.731 173.728 136.748 173.728 136.764 173.723L136.64 173.426C136.194 173.637 135.726 173.227 135.447 172.919C135.361 172.828 135.286 172.73 135.211 172.633C135.13 172.526 135.044 172.412 134.99 172.288C134.953 172.196 134.931 172.094 134.974 171.997C135.006 171.921 135.082 171.851 135.151 171.873C135.227 171.889 135.34 171.851 135.35 171.76C135.377 171.571 135.597 171.479 135.78 171.522C136.044 171.582 136.226 171.84 136.377 172.045C136.431 172.121 136.56 172.17 136.629 172.078C136.909 171.727 137.532 171.776 137.742 172.18C137.801 172.288 137.962 172.283 138.021 172.18C138.183 171.905 138.532 171.765 138.833 171.857C139.15 171.954 139.343 172.288 139.322 172.606C139.311 172.736 139.467 172.806 139.564 172.747C139.73 172.65 139.935 172.671 140.101 172.763C140.273 172.855 140.408 173.022 140.418 173.205C140.418 173.27 140.467 173.351 140.537 173.362C140.854 173.415 141.074 173.712 141.042 174.03C141.026 174.192 141.273 174.246 141.343 174.111C141.445 173.922 141.708 173.842 141.891 173.944C142.084 174.057 142.127 174.327 142.02 174.505C141.95 174.618 142.068 174.796 142.203 174.742C142.439 174.645 142.767 174.575 142.993 174.742C143.073 174.807 143.127 174.899 143.149 174.996C143.17 175.082 143.159 175.174 143.1 175.244C143.041 175.309 143.036 175.411 143.1 175.476C143.159 175.535 143.272 175.541 143.331 175.476C143.374 175.427 143.407 175.422 143.455 175.433C143.525 175.444 143.589 175.487 143.632 175.541C143.756 175.713 143.675 175.988 143.627 176.172C143.729 176.199 143.837 176.231 143.939 176.258C144.009 175.918 144.46 175.686 144.734 175.907C144.971 176.096 144.922 176.544 144.637 176.668C144.492 176.733 144.562 176.986 144.718 176.97C144.836 176.959 144.901 176.97 144.997 177.045C145.067 177.094 145.132 177.186 145.175 177.283C145.255 177.466 145.245 177.677 145.094 177.811C145.18 177.876 145.266 177.941 145.347 178.011C145.476 177.811 145.825 177.79 145.976 177.979C146.126 178.162 146.029 178.507 145.809 178.588C145.852 178.685 145.89 178.788 145.933 178.885C145.997 178.858 146.094 178.955 146.121 179.03C146.18 179.187 146.083 179.386 146.024 179.527C145.986 179.608 146.002 179.699 146.083 179.748C146.153 179.791 146.271 179.769 146.303 179.688C146.422 179.424 146.54 179.122 146.395 178.842C146.271 178.61 146.013 178.502 145.771 178.604C145.605 178.674 145.723 178.966 145.895 178.901C146.33 178.739 146.524 178.157 146.228 177.779C145.938 177.407 145.314 177.461 145.062 177.844C144.954 178.006 145.186 178.157 145.314 178.043C145.825 177.59 145.395 176.571 144.707 176.641L144.788 176.943C145.169 176.776 145.277 176.274 145.121 175.918C144.938 175.492 144.428 175.395 144.046 175.6C143.831 175.713 143.659 175.918 143.611 176.161C143.568 176.366 143.874 176.452 143.923 176.247C144.003 175.929 144.073 175.541 143.826 175.276C143.638 175.077 143.283 175.007 143.084 175.233C143.159 175.309 143.235 175.384 143.315 175.465C143.552 175.19 143.487 174.775 143.235 174.532C142.934 174.241 142.461 174.273 142.101 174.419C142.16 174.5 142.224 174.581 142.283 174.656C142.488 174.327 142.375 173.847 142.036 173.653C141.697 173.459 141.23 173.593 141.047 173.933L141.348 174.014C141.397 173.561 141.053 173.103 140.606 173.033C140.644 173.086 140.687 173.135 140.725 173.189C140.687 172.563 139.935 172.137 139.381 172.45C139.462 172.499 139.542 172.542 139.623 172.59C139.661 172.126 139.343 171.663 138.897 171.528C138.457 171.393 137.951 171.603 137.72 171.997H138C137.699 171.42 136.785 171.317 136.377 171.83C136.463 171.841 136.549 171.851 136.629 171.862C136.42 171.571 136.162 171.231 135.78 171.177C135.463 171.129 135.065 171.296 135.012 171.652C135.076 171.614 135.146 171.576 135.211 171.538C134.942 171.474 134.716 171.662 134.63 171.905C134.533 172.175 134.678 172.455 134.829 172.671C135.125 173.092 135.495 173.518 135.984 173.712C136.248 173.82 136.527 173.809 136.785 173.691C136.855 173.658 136.882 173.556 136.85 173.486C136.817 173.41 136.742 173.378 136.656 173.394C136.269 173.464 136.183 173.955 136.345 174.262C136.565 174.678 137.135 174.661 137.511 174.532C137.452 174.451 137.387 174.37 137.328 174.295C137.14 174.737 137.204 175.255 137.527 175.622C137.833 175.967 138.344 176.102 138.779 175.972C138.725 175.88 138.672 175.789 138.623 175.702C138.301 176.118 138.29 176.722 138.623 177.137C138.946 177.531 139.521 177.633 139.972 177.428L139.773 177.175C139.456 177.466 139.37 177.957 139.558 178.345C139.752 178.734 140.209 178.933 140.623 178.858L140.499 178.561C140.096 178.798 140.069 179.354 140.284 179.726C140.542 180.179 141.106 180.325 141.574 180.438L141.504 180.168C141.187 180.578 141.182 181.172 141.525 181.571C141.848 181.943 142.428 182.024 142.853 181.792C142.971 181.727 142.955 181.522 142.815 181.495C142.294 181.398 141.8 181.857 141.8 182.385C141.8 182.903 142.24 183.329 142.724 183.437L142.654 183.167C142.316 183.469 142.262 184.03 142.536 184.386C142.81 184.748 143.364 184.84 143.74 184.591C143.912 184.478 143.751 184.198 143.579 184.311L143.6 184.3Z" fill="#A8E890"/>
<path d="M137.167 173.281C138.07 173.712 138.924 174.252 139.698 174.888C140.483 175.524 141.192 176.253 141.832 177.035C142.488 177.844 143.063 178.723 143.557 179.64C144.089 180.627 144.535 181.657 144.901 182.714C145.271 183.782 145.567 184.877 145.809 185.983C145.841 186.123 145.868 186.258 145.895 186.398C145.911 186.485 146.013 186.533 146.094 186.512C146.185 186.485 146.223 186.398 146.207 186.312C145.981 185.196 145.696 184.084 145.341 183C144.981 181.916 144.551 180.854 144.03 179.84C143.536 178.879 142.96 177.962 142.299 177.11C141.676 176.301 140.972 175.557 140.198 174.888C139.424 174.225 138.575 173.642 137.672 173.173C137.559 173.113 137.446 173.06 137.333 173.006C137.253 172.968 137.156 172.984 137.113 173.065C137.07 173.135 137.092 173.248 137.172 173.286L137.167 173.281Z" fill="white"/>
<path d="M150.764 171.598C150.173 173.491 149.587 175.39 149.12 177.315C148.657 179.219 148.313 181.161 148.222 183.124C148.168 184.225 148.195 185.325 148.324 186.415C148.335 186.501 148.394 186.576 148.485 186.576C148.566 186.576 148.657 186.501 148.647 186.415C148.421 184.478 148.512 182.52 148.797 180.595C149.087 178.653 149.566 176.744 150.114 174.856C150.42 173.793 150.748 172.736 151.081 171.679C151.146 171.479 150.829 171.393 150.77 171.592L150.764 171.598Z" fill="white"/>
<path d="M159.175 173.976C158.38 174.721 157.59 175.471 156.827 176.247C156.063 177.024 155.322 177.822 154.634 178.664C153.962 179.489 153.333 180.352 152.785 181.263C152.253 182.153 151.791 183.092 151.431 184.068C151.071 185.044 150.818 186.059 150.7 187.094C150.684 187.218 150.673 187.348 150.662 187.472C150.657 187.558 150.743 187.634 150.823 187.634C150.915 187.634 150.979 187.558 150.985 187.472C151.071 186.458 151.291 185.46 151.619 184.5C151.947 183.534 152.382 182.607 152.892 181.722C153.408 180.821 154.005 179.969 154.65 179.16C155.322 178.318 156.042 177.515 156.794 176.743C157.547 175.967 158.326 175.222 159.111 174.483C159.207 174.392 159.304 174.3 159.401 174.208C159.551 174.063 159.326 173.836 159.17 173.976H159.175Z" fill="white"/>
<path d="M158.401 184.543H139.145V189.23C141.241 189.23 142.939 190.935 142.939 193.038V198.604C142.939 201.841 145.551 204.462 148.776 204.462C152 204.462 154.612 201.841 154.612 198.604V193.038C154.612 190.935 156.311 189.23 158.407 189.23V184.543H158.401Z" fill="#FCB415"/>
<path d="M158.982 199.775H138.559C138.559 202.688 140.913 205.045 143.81 205.045H153.731C156.633 205.045 158.982 202.682 158.982 199.775Z" fill="#D79128"/>
<path d="M139.956 188.901H157.042C157.251 188.901 157.251 188.577 157.042 188.577H139.956C139.747 188.577 139.747 188.901 139.956 188.901Z" fill="#D79128"/>
<path d="M143.514 196.291C143.928 195.681 144.336 195.072 144.75 194.462C144.664 194.473 144.578 194.484 144.498 194.494C144.96 195.028 145.363 195.611 145.712 196.226C145.777 196.339 145.922 196.317 145.992 196.226C146.513 195.53 147.099 194.883 147.738 194.295C147.652 194.284 147.566 194.273 147.486 194.262C147.894 194.872 148.227 195.535 148.475 196.231C148.523 196.366 148.69 196.393 148.77 196.269C149.146 195.697 149.582 195.174 150.076 194.699C150.2 194.581 150.329 194.467 150.458 194.354C150.506 194.311 150.56 194.257 150.619 194.23C150.673 194.209 150.7 194.23 150.732 194.268C150.839 194.387 150.915 194.554 150.995 194.689C151.087 194.85 151.178 195.007 151.264 195.174C151.457 195.541 151.64 195.913 151.807 196.291C151.855 196.404 152.033 196.388 152.086 196.291C152.505 195.579 152.995 194.91 153.554 194.3C153.468 194.289 153.382 194.279 153.301 194.268C153.586 194.683 153.865 195.099 154.15 195.508C154.198 195.579 154.29 195.611 154.37 195.568C154.44 195.525 154.478 195.417 154.43 195.347L153.58 194.106C153.527 194.025 153.403 193.993 153.328 194.074C152.753 194.699 152.242 195.39 151.812 196.129H152.092C151.93 195.762 151.758 195.401 151.57 195.05C151.474 194.867 151.377 194.689 151.269 194.511C151.178 194.354 151.092 194.182 150.974 194.047C150.845 193.896 150.651 193.853 150.469 193.944C150.307 194.025 150.168 194.176 150.033 194.295C149.759 194.543 149.496 194.813 149.254 195.093C148.974 195.411 148.722 195.751 148.491 196.107C148.588 196.118 148.69 196.134 148.786 196.145C148.534 195.422 148.19 194.737 147.765 194.101C147.706 194.009 147.593 193.993 147.513 194.068C146.852 194.678 146.25 195.347 145.718 196.064H145.997C145.637 195.428 145.207 194.823 144.729 194.268C144.653 194.182 144.53 194.219 144.476 194.3C144.062 194.91 143.654 195.519 143.24 196.129C143.122 196.301 143.401 196.463 143.519 196.291H143.514Z" fill="#D79128"/>
<path d="M141.676 185.444H151.941C152.151 185.444 152.151 185.12 151.941 185.12H141.676C141.466 185.12 141.466 185.444 141.676 185.444Z" fill="#D79128"/>
<path d="M139.042 69.1752V93.0643C139.042 93.3124 139.429 93.3124 139.429 93.0643V69.1752C139.429 68.9271 139.042 68.9271 139.042 69.1752Z" fill="#443923"/>
<path d="M271.673 67.0178H124.016V74.8927H271.673V67.0178Z" fill="#D79128"/>
<path d="M271.673 75.9229H124.016V83.7978H271.673V75.9229Z" fill="#D79128"/>
<path d="M271.673 84.8281H124.016V92.703H271.673V84.8281Z" fill="#D79128"/>
<path d="M144.245 315.682C149.367 315.024 154.489 314.366 159.616 313.702C161.271 313.492 163.082 313.195 164.179 311.933C164.534 311.529 164.797 310.973 164.652 310.455C164.458 309.76 163.663 309.447 162.959 309.285C158.847 308.346 154.559 309.096 150.409 309.846C147.593 310.353 144.777 310.865 141.961 311.372L144.245 315.677V315.682Z" fill="#425F57"/>
<path d="M215.096 295.984C218.058 291.734 221.014 287.489 223.975 283.238C224.932 281.868 225.931 280.326 225.738 278.664C225.673 278.13 225.448 277.564 224.969 277.321C224.324 276.992 223.561 277.375 222.97 277.791C219.509 280.212 217.182 283.902 214.941 287.489C213.425 289.921 211.904 292.359 210.388 294.792L215.096 295.989V295.984Z" fill="#425F57"/>
<path d="M163.636 274.916C160.449 282.677 157.681 290.612 155.349 298.67C154.639 301.113 153.903 303.692 152.081 305.461C148.485 308.961 140.967 309.695 137.081 312.872C140.402 313.244 154.51 311.523 155.671 311.345C157.068 311.13 158.498 311.432 159.911 311.356C161.325 311.281 162.884 310.671 163.383 309.339C163.727 308.416 163.475 307.392 163.421 306.405C163.249 303.158 165.264 300.256 167.113 297.58C172.928 289.171 178.034 279.932 179.458 269.797L163.636 274.91V274.916Z" fill="#F6A472"/>
<path d="M199.489 255.401C202.859 263.082 206.642 270.579 210.818 277.855C212.081 280.061 213.425 282.381 213.436 284.921C213.457 289.948 208.378 293.772 207.97 298.783C211.35 301.345 220.498 286.356 223.099 283.341C224.023 282.267 224.668 280.714 224.056 279.436C223.631 278.546 222.717 278.023 221.976 277.375C219.52 275.25 218.832 271.782 218.187 268.594C216.166 258.562 213.065 248.465 206.766 240.412L199.484 255.406L199.489 255.401Z" fill="#F6A472"/>
<path d="M244.468 140.886C242.323 140.886 240.582 139.138 240.582 136.986C240.582 134.834 242.323 133.086 244.468 133.086C246.612 133.086 248.353 134.834 248.353 136.986C248.353 139.138 246.612 140.886 244.468 140.886ZM244.468 133.388C242.49 133.388 240.883 135.001 240.883 136.986C240.883 138.971 242.49 140.584 244.468 140.584C246.446 140.584 248.053 138.971 248.053 136.986C248.053 135.001 246.446 133.388 244.468 133.388Z" fill="white"/>
<path d="M244.307 117.126C245.236 115.67 247.289 115.627 248.869 116.161C250.45 116.694 251.96 117.644 253.626 117.622C254.706 117.611 255.749 117.185 256.818 116.997C259.704 116.5 262.789 117.94 264.348 120.508C264.869 121.371 265.245 122.363 265.987 123.032C266.96 123.917 268.346 124.052 269.561 124.505C272.372 125.556 274.35 128.636 274.231 131.77C274.14 134.089 273.076 136.641 274.28 138.582C275.016 139.769 276.371 140.325 277.526 141.053C284.416 145.395 281.353 154.079 281.353 154.079C281.353 154.079 273.479 154.1 273.479 154.079C273.135 152.72 272.565 150.799 271.808 149.64C271.308 150.864 271.109 152.757 271.233 154.079C269.765 154.5 268.234 154.381 266.745 154.079C265.256 153.777 263.843 152.504 263.859 150.913C263.687 151.77 263.509 152.628 263.337 153.485C256.292 153.901 249.224 153.917 242.184 153.529C241.845 152.169 241.501 150.81 241.162 149.451C240.663 150.74 240.163 152.024 239.663 153.313C237.997 153.005 236.331 152.693 234.67 152.385C234.547 151.242 234.423 150.098 234.294 148.955C233.869 150.125 233.45 151.296 233.026 152.466C231.273 152.266 229.527 152.072 227.775 151.873C229.989 150.066 228.688 146.474 228.613 143.55C228.549 140.988 229.688 138.415 231.607 136.803C234.052 134.747 237.97 133.663 238.303 130.416C238.443 129.041 237.82 127.719 237.664 126.349C237.298 123.075 244.312 117.131 244.312 117.131L244.307 117.126Z" fill="#3F3622"/>
<path d="M230.752 195.767C240.238 199.759 250.1 202.855 260.161 205.002C259.597 211.118 258.506 217.181 256.91 223.108C255.695 227.618 254.083 232.213 250.804 235.53C245.553 240.838 237.406 241.631 229.967 242.116C218.418 242.866 206.863 243.616 195.313 244.365C187.902 257.909 181.42 271.965 175.943 286.404C165.571 285.407 155.257 283.74 145.094 281.426C149.851 267.138 155.682 253.238 161.508 239.349C163.287 235.11 165.066 230.865 167.248 226.819C168.462 224.565 169.833 222.337 171.794 220.692C174.17 218.696 177.212 217.72 180.205 216.916C186.902 215.115 193.765 213.939 200.677 213.405C204.67 213.098 208.835 212.968 212.372 211.086C214.215 210.109 215.784 208.702 217.343 207.305C221.702 203.4 226.06 199.494 230.414 195.589L230.752 195.767Z" fill="#FCB415"/>
<path d="M246.462 159.359C250.073 159.607 247.338 159.58 250.648 159.537C255.276 159.478 259.941 159.408 264.45 158.394C266.895 157.844 269.443 157.299 271.813 158.124C278.956 160.611 279.73 169.03 280.573 172.358C282.96 181.765 282.696 195.007 278.671 202.439C275.306 202.914 270.206 200.686 266.842 201.161C265.288 195.697 267.229 191.965 266.374 186.355C265.315 192.876 262.037 198.648 260.15 204.975C260.048 205.325 250.6 203.993 242.721 201.474C235.847 199.279 230.392 195.897 230.392 195.6C230.397 192.056 230.763 187.283 230.768 183.739C227.544 188.912 223.905 193.826 219.896 198.41C216.784 196.463 212.054 191.145 208.943 189.198C213.344 182.855 223.669 164.737 232.768 160.433C239.104 157.434 246.451 159.365 246.451 159.365L246.462 159.359Z" fill="#CFFF8D"/>
<path d="M276.505 197.143C269.298 192.919 261.671 189.408 253.776 186.69C254.351 184.715 254.814 182.704 255.158 180.67C255.367 179.43 255.534 178.135 255.195 176.921C254.432 174.187 251.562 172.876 248.74 172.078C248.353 171.97 248.085 172.461 248.38 172.731C249.278 173.561 250.251 174.316 251.277 174.985C249.772 173.939 248.165 173.038 246.483 172.31C246.032 172.116 245.569 172.585 245.779 173.027C246.44 174.435 247.66 175.578 249.122 176.107L245.048 173.982C244.774 173.836 244.452 174.068 244.495 174.376C244.726 176.015 246.096 177.482 247.752 177.709C246.854 176.986 245.827 176.425 244.736 176.053C244.64 176.021 244.543 175.994 244.441 175.983C243.334 175.859 243.301 176.414 243.844 177.083C244.306 177.655 244.968 178.734 245.51 179.23C246.806 180.411 246.8 182.461 246.376 184.171C245.956 185.875 245.22 187.569 245.403 189.316C245.505 190.271 245.892 191.199 246.499 191.943C247.241 192.849 248.267 193.464 249.272 194.058L269.787 206.145C271.104 206.922 272.716 207.003 274.108 206.361L276.102 205.438C277.365 204.856 278.3 203.739 278.66 202.391C279.203 200.352 278.321 198.195 276.505 197.132V197.143Z" fill="#F6A472"/>
<path d="M241.689 125.195C241.576 130.416 241.84 136.037 241.84 136.037L236.127 136.614L241.388 141.781C241.388 141.781 241.157 146.204 241.63 147.784C242.157 149.548 243.898 150.729 245.693 151.112C247.488 151.495 249.348 151.225 251.164 150.961C251.186 153.48 251.207 155.994 251.229 158.512C251.191 158.48 248.579 159.856 244.097 158.858C246.816 165.001 245.629 169.602 252.314 169.23C259 168.858 263.644 165.357 265.138 157.984L262.026 158.108C262.026 158.108 260.699 146.107 260.715 142.822C262.601 144.305 265.235 144.543 267.175 143.135C269.12 141.727 269.744 138.674 268.287 136.765C266.825 134.855 262.15 136.851 262.15 136.851L261.505 124.494L241.689 125.195Z" fill="#F6A472"/>
<path d="M243.984 117.293C242.151 118.383 240.265 119.521 238.873 121.166C238.18 121.986 237.653 122.908 237.309 123.928C236.97 124.936 236.793 125.993 236.589 127.034C236.39 128.054 236.175 129.095 235.734 130.039C235.267 131.047 234.536 131.824 233.649 132.482C232.746 133.151 231.779 133.723 230.956 134.494C230.204 135.206 229.564 136.042 229.059 136.948C228.054 138.766 227.581 140.891 227.791 142.962C227.818 143.226 227.855 143.485 227.898 143.744C227.947 144.03 228.377 143.906 228.328 143.626C227.968 141.608 228.301 139.483 229.199 137.649C229.645 136.732 230.225 135.886 230.93 135.147C231.682 134.359 232.585 133.777 233.472 133.156C234.364 132.531 235.202 131.84 235.772 130.902C236.309 130.023 236.61 129.025 236.831 128.027C237.056 127.007 237.212 125.966 237.47 124.952C237.728 123.938 238.104 122.978 238.701 122.115C239.91 120.368 241.748 119.165 243.533 118.086C243.758 117.951 243.979 117.816 244.204 117.682C244.452 117.536 244.226 117.148 243.979 117.293H243.984Z" fill="#3F3622"/>
<path d="M270.894 127.493C271.636 127.595 272.146 128.167 272.512 128.787C272.958 129.542 273.269 130.4 273.527 131.236C273.791 132.105 273.979 132.989 274.092 133.89C274.194 134.704 274.264 135.524 274.446 136.322C274.624 137.094 274.919 137.833 275.419 138.448C275.946 139.089 276.666 139.526 277.349 139.974C278.703 140.859 279.783 142.007 280.665 143.367C281.648 144.888 282.379 146.554 283.089 148.216C283.201 148.48 283.588 148.253 283.476 147.989C282.213 145.055 280.831 141.943 278.182 140.006C277.499 139.505 276.736 139.111 276.113 138.534C275.505 137.968 275.14 137.239 274.93 136.441C274.721 135.648 274.651 134.828 274.554 134.014C274.441 133.102 274.274 132.202 274.017 131.322C273.742 130.384 273.398 129.413 272.899 128.566C272.479 127.86 271.867 127.185 271.012 127.067C270.894 127.051 270.776 127.094 270.738 127.223C270.706 127.326 270.776 127.482 270.894 127.498V127.493Z" fill="#3F3622"/>
<path opacity="0.46" d="M251.164 150.961L257.168 148.113L251.369 154.947L251.164 150.961Z" fill="#BF6F41"/>
<path d="M263.235 141.074C264.031 140.109 264.939 139.246 265.949 138.512C266.046 138.442 266.095 138.318 266.03 138.205C265.976 138.108 265.82 138.054 265.724 138.124C264.681 138.879 263.741 139.764 262.918 140.756C262.736 140.977 263.053 141.296 263.235 141.074Z" fill="#944F2C"/>
<path d="M264.735 139.823C264.805 139.882 264.832 139.909 264.853 139.931C264.88 139.958 264.901 139.985 264.923 140.012C264.939 140.033 264.95 140.044 264.961 140.06C264.998 140.114 265.03 140.168 265.057 140.228C265.063 140.244 265.073 140.26 265.079 140.276C265.095 140.314 265.106 140.352 265.116 140.384C265.138 140.449 265.149 140.508 265.159 140.573C265.159 140.594 265.159 140.616 265.165 140.632C265.165 140.664 265.165 140.697 265.165 140.729C265.165 140.767 265.165 140.799 265.165 140.837C265.149 140.961 265.133 141.031 265.111 141.096C265.073 141.209 265.154 141.339 265.267 141.371C265.391 141.403 265.503 141.328 265.541 141.215C265.756 140.567 265.498 139.839 264.961 139.435C264.864 139.365 264.713 139.419 264.654 139.516C264.59 139.629 264.638 139.748 264.735 139.823Z" fill="#944F2C"/>
<path d="M242.21 144.715C243.414 144.775 244.602 144.111 245.193 143.059C245.333 142.806 244.951 142.585 244.806 142.833C244.285 143.755 243.258 144.316 242.21 144.262C241.926 144.246 241.926 144.694 242.21 144.71V144.715Z" fill="#944F2C"/>
<path d="M246.956 138.146C246.956 138.852 246.553 139.424 246.053 139.424C245.553 139.424 245.15 138.852 245.15 138.146C245.15 137.439 245.553 136.867 246.053 136.867C246.553 136.867 246.956 137.439 246.956 138.146Z" fill="#010101"/>
<path d="M245.15 132.455C245.355 132.811 245.263 133.361 245.623 133.566C245.822 133.68 246.069 133.62 246.29 133.555C247.472 133.216 248.794 132.843 249.891 133.415C248.869 132.002 246.779 131.5 245.236 132.299L245.15 132.455Z" fill="#3F3622"/>
<path d="M247.209 141.964C245.027 141.964 243.248 140.184 243.248 137.989C243.248 135.794 245.021 134.014 247.209 134.014C249.396 134.014 251.17 135.794 251.17 137.989C251.17 140.184 249.396 141.964 247.209 141.964ZM247.209 134.467C245.274 134.467 243.699 136.047 243.699 137.989C243.699 139.931 245.274 141.511 247.209 141.511C249.144 141.511 250.718 139.931 250.718 137.989C250.718 136.047 249.144 134.467 247.209 134.467Z" fill="white"/>
<path d="M241.308 135.907C241.952 135.4 243.076 135.837 243.258 136.63C243.323 136.91 243.753 136.792 243.688 136.511C243.559 135.95 243.108 135.54 242.581 135.352C242.044 135.163 241.447 135.233 240.996 135.589C240.899 135.664 240.915 135.826 240.996 135.907C241.087 135.999 241.216 135.983 241.313 135.907H241.308Z" fill="white"/>
<path d="M250.858 137.698C253.852 137.709 256.845 137.558 259.823 137.239C260.672 137.148 261.521 137.045 262.365 136.927C262.483 136.91 262.547 136.759 262.521 136.651C262.488 136.522 262.365 136.479 262.246 136.495C259.301 136.9 256.335 137.142 253.362 137.223C252.529 137.245 251.696 137.256 250.858 137.25C250.573 137.25 250.568 137.698 250.858 137.698Z" fill="white"/>
<path d="M265.509 135.864C264.848 131.425 263.536 127.304 262.881 122.87C262.822 122.482 262.752 122.067 262.467 121.792C262.107 121.446 261.542 121.436 261.037 121.441C254.007 121.57 246.983 121.98 239.991 122.676C240.141 123.054 240.297 123.431 240.448 123.809L240.894 123.75C241.824 125.589 242.834 127.525 244.629 128.626C246.596 129.834 249.095 129.796 251.347 130.4C253.83 131.064 255.937 132.66 257.571 134.569C259.538 136.867 259.785 137.655 259.796 138.421C259.806 139.424 258.667 140.255 257.721 139.942C259.011 140.886 260.973 139.936 261.655 138.485C261.929 137.903 262.053 137.283 262.096 136.646C263.821 136.43 265.519 135.869 265.519 135.869L265.509 135.864Z" fill="#3F3622"/>
<path d="M244.543 176.301C246.526 176.959 248.289 178.2 249.6 179.829C249.783 180.055 250.095 179.737 249.917 179.51C248.558 177.822 246.72 176.549 244.667 175.864C244.393 175.773 244.274 176.204 244.548 176.296L244.543 176.301Z" fill="#944F2C"/>
<path d="M246.204 174.71C248.224 175.6 249.96 177.072 251.154 178.939C251.309 179.181 251.696 178.955 251.541 178.712C250.31 176.787 248.52 175.244 246.429 174.322C246.171 174.208 245.94 174.591 246.204 174.71Z" fill="#944F2C"/>
<path d="M248.896 173.906C250.939 174.575 252.691 176.01 253.76 177.876C253.905 178.124 254.287 177.903 254.147 177.65C253.018 175.681 251.164 174.176 249.015 173.475C248.74 173.383 248.622 173.82 248.896 173.906Z" fill="#944F2C"/>
<path d="M249.047 180.627C250.831 179.705 252.621 178.777 254.405 177.855C254.663 177.725 254.437 177.337 254.179 177.466C252.395 178.389 250.605 179.316 248.821 180.239C248.563 180.368 248.789 180.756 249.047 180.627Z" fill="#944F2C"/>
<path d="M253.626 186.949L251.245 189.408C251.046 189.613 251.358 189.931 251.562 189.726C252.357 188.906 253.147 188.087 253.943 187.267C254.142 187.062 253.83 186.744 253.626 186.949Z" fill="#944F2C"/>
<path d="M185.032 207.558C184.784 205.212 181.135 188.432 179.249 179.861C178.679 177.272 180.63 174.818 183.269 174.791L220.062 174.43C222.051 174.408 223.771 175.805 224.174 177.758L230.322 207.564H185.037L185.032 207.558Z" fill="#749F82"/>
<path d="M229.113 204.009H248.773V207.558H228.35L229.113 204.009Z" fill="#749F82"/>
<path d="M205.745 190.347C205.745 192.002 204.407 193.346 202.757 193.346C201.107 193.346 199.768 192.002 199.768 190.347C199.768 188.691 201.107 187.348 202.757 187.348C204.407 187.348 205.745 188.691 205.745 190.347Z" fill="#CFFF8D"/>
<path d="M219.552 176.263C220.111 176.064 220.723 176.269 221.164 176.641C221.653 177.056 221.976 177.628 222.287 178.184C222.427 178.437 222.814 178.211 222.674 177.957C222.32 177.326 221.949 176.673 221.363 176.226C220.826 175.81 220.095 175.589 219.434 175.827C219.165 175.924 219.283 176.355 219.552 176.258V176.263Z" fill="#F9F9FA"/>
<path d="M229.629 204.468C229.059 204.468 228.656 205.002 228.629 205.536C228.608 206.005 228.86 206.506 229.274 206.738C229.726 206.986 230.274 206.873 230.645 206.533C231.015 206.194 231.128 205.633 230.849 205.196C230.548 204.732 229.941 204.5 229.435 204.748C229.328 204.802 229.296 204.958 229.355 205.055C229.419 205.169 229.554 205.19 229.661 205.136C229.779 205.077 229.914 205.077 230.059 205.12C230.193 205.158 230.311 205.239 230.414 205.358C230.607 205.573 230.612 205.892 230.424 206.118C230.317 206.253 230.177 206.345 230.032 206.393C229.876 206.442 229.742 206.447 229.591 206.393C229.473 206.35 229.333 206.242 229.258 206.134C229.156 205.994 229.108 205.87 229.081 205.692C229.081 205.73 229.081 205.654 229.081 205.654C229.081 205.633 229.081 205.606 229.081 205.579C229.081 205.552 229.081 205.53 229.081 205.509C229.081 205.509 229.091 205.438 229.081 205.471C229.086 205.422 229.102 205.374 229.113 205.331C229.129 205.287 229.134 205.271 229.167 205.217C229.269 205.039 229.435 204.91 229.623 204.91C229.908 204.91 229.914 204.462 229.623 204.462L229.629 204.468Z" fill="#F9F9FA"/>
<path d="M231.913 204.942H245.903C246.188 204.942 246.193 204.495 245.903 204.495H231.913C231.628 204.495 231.623 204.942 231.913 204.942Z" fill="#F9F9FA"/>
<path d="M182.436 175.945C180.915 176.145 179.679 177.515 179.684 179.068C179.684 179.354 180.13 179.359 180.13 179.068C180.13 177.784 181.157 176.56 182.436 176.393C182.554 176.377 182.662 176.301 182.662 176.166C182.662 176.058 182.559 175.929 182.436 175.94V175.945Z" fill="#F9F9FA"/>
<path d="M229.172 211.026C221.675 208.88 215.44 203.745 208.48 200.223C200.757 196.312 192.185 194.413 183.656 192.957C180.394 192.402 177.024 191.905 173.799 192.661C167.258 194.192 162.776 200.735 161.798 207.407C160.82 214.079 162.695 220.832 165.044 227.148C170.983 243.092 180.125 257.828 191.76 270.212C191.927 270.39 192.104 270.574 192.336 270.66C192.733 270.806 193.169 270.622 193.556 270.444C202.015 266.485 210.926 263.502 220.057 261.582C215.145 251.129 211.033 240.304 207.76 229.225C215.628 223.988 222.981 217.974 229.677 211.296L229.161 211.037L229.172 211.026Z" fill="#FCB415"/>
<path d="M188.181 202.952C190.1 205.508 191.959 208.108 193.76 210.751C195.566 213.405 197.312 216.097 199 218.826C200.682 221.544 202.3 224.3 203.853 227.094C205.412 229.888 206.906 232.715 208.335 235.573C209.765 238.432 211.13 241.323 212.431 244.247C212.592 244.613 212.753 244.98 212.914 245.342C213.011 245.563 213.334 245.617 213.527 245.503C213.753 245.369 213.785 245.115 213.688 244.889C212.404 241.96 211.055 239.058 209.641 236.194C208.222 233.313 206.739 230.466 205.191 227.655C203.649 224.856 202.047 222.089 200.381 219.36C198.715 216.63 196.99 213.939 195.206 211.291C193.421 208.642 191.578 206.026 189.675 203.459C189.439 203.141 189.197 202.817 188.96 202.499C188.815 202.305 188.573 202.208 188.348 202.337C188.16 202.45 188.041 202.758 188.186 202.952H188.181Z" fill="#F9F9FA"/>
<path d="M192.884 203.836C193.711 206.711 194.539 209.581 195.372 212.456C195.533 213.006 196.393 212.774 196.232 212.218C195.404 209.343 194.577 206.474 193.744 203.599C193.582 203.049 192.723 203.281 192.884 203.836Z" fill="#F9F9FA"/>
<path d="M195.85 212.806C199.575 211.965 203.316 211.215 207.078 210.557C210.797 209.91 214.537 209.349 218.283 208.885C220.406 208.621 222.535 208.389 224.663 208.189C224.905 208.168 225.109 208 225.109 207.742C225.109 207.515 224.905 207.272 224.663 207.294C220.836 207.661 217.015 208.119 213.215 208.669C209.437 209.219 205.675 209.861 201.929 210.6C199.817 211.016 197.71 211.463 195.614 211.938C195.378 211.992 195.243 212.262 195.302 212.488C195.367 212.731 195.614 212.855 195.85 212.801V212.806Z" fill="#F9F9FA"/>
<path d="M166.146 232.078C168.495 236.258 170.913 240.401 173.396 244.5C175.868 248.578 178.405 252.618 181.012 256.615C182.479 258.864 183.962 261.097 185.472 263.319C185.607 263.519 185.865 263.61 186.085 263.481C186.284 263.368 186.381 263.071 186.246 262.866C183.554 258.902 180.931 254.889 178.373 250.838C175.825 246.803 173.348 242.731 170.935 238.616C169.575 236.302 168.242 233.972 166.925 231.631C166.64 231.129 165.872 231.582 166.157 232.084L166.146 232.078Z" fill="#F9F9FA"/>
<path d="M210.028 289.862C212.071 291.755 214.193 293.567 216.392 295.283C214.79 298.357 211.581 300.525 208.136 300.849C207.819 300.881 207.47 300.887 207.212 300.698C206.847 300.428 206.825 299.9 206.847 299.447C207.04 295.957 210.023 289.856 210.023 289.856L210.028 289.862Z" fill="#425F57"/>
<path d="M146.099 306.798C146.078 309.592 146.169 312.386 146.379 315.17C143.036 316.049 139.279 315.121 136.721 312.785C136.484 312.57 136.242 312.316 136.21 311.998C136.162 311.545 136.538 311.173 136.887 310.887C139.591 308.686 146.094 306.798 146.094 306.798H146.099Z" fill="#425F57"/>
<path d="M216.467 278.902C216.338 279.333 216.429 279.819 216.682 280.191C216.945 280.579 217.337 280.844 217.81 280.897C217.929 280.908 218.036 280.784 218.036 280.671C218.036 280.541 217.934 280.461 217.81 280.444C217.762 280.434 217.735 280.434 217.714 280.428C217.671 280.417 217.628 280.407 217.585 280.39C217.536 280.369 217.515 280.358 217.499 280.353C217.461 280.331 217.423 280.31 217.386 280.288C217.268 280.207 217.133 280.072 217.053 279.948C216.951 279.792 216.902 279.678 216.865 279.49C216.865 279.484 216.854 279.425 216.859 279.441C216.859 279.463 216.859 279.403 216.859 279.393C216.859 279.349 216.859 279.306 216.859 279.258C216.859 279.236 216.859 279.215 216.859 279.193C216.87 279.118 216.881 279.069 216.897 279.026C216.983 278.751 216.547 278.632 216.467 278.907V278.902Z" fill="#944F2C"/>
<path d="M158.627 302.672C157.67 303.168 157.294 304.468 157.805 305.412C157.939 305.666 158.326 305.439 158.192 305.186C157.794 304.447 158.122 303.443 158.858 303.06C159.111 302.926 158.885 302.543 158.632 302.672H158.627Z" fill="#944F2C"/>
<path d="M190.406 267.483C193.523 265.725 196.651 263.972 199.876 262.408C203.058 260.865 206.341 259.511 209.749 258.573C211.651 258.049 213.592 257.656 215.548 257.434C215.79 257.407 215.994 257.246 215.994 256.987C215.994 256.766 215.79 256.512 215.548 256.539C211.963 256.938 208.47 257.877 205.1 259.16C201.725 260.444 198.473 262.046 195.292 263.751C193.496 264.711 191.723 265.709 189.949 266.712C189.45 266.992 189.896 267.769 190.401 267.483H190.406Z" fill="#F9F9FA"/>
<path d="M228.549 209.122C231.316 210.816 233.971 212.693 236.481 214.748C237.191 215.331 237.889 215.924 238.577 216.533C238.76 216.695 239.029 216.711 239.206 216.533C239.367 216.372 239.389 216.059 239.206 215.902C236.729 213.707 234.1 211.684 231.349 209.851C230.575 209.333 229.79 208.837 229 208.351C228.506 208.049 228.06 208.826 228.549 209.122Z" fill="#F9F9FA"/>
<path d="M231.214 209.807C233.816 210.589 236.315 211.674 238.669 213.038C239.169 213.33 239.615 212.553 239.12 212.267C236.707 210.865 234.127 209.748 231.456 208.944C230.903 208.777 230.672 209.646 231.22 209.807H231.214Z" fill="#F9F9FA"/>
<path d="M147.755 278.875C151.232 280.002 154.763 280.978 158.326 281.798C161.889 282.618 165.49 283.276 169.113 283.778C171.176 284.064 173.246 284.295 175.315 284.479C175.557 284.5 175.761 284.258 175.761 284.031C175.761 283.772 175.557 283.605 175.315 283.583C171.703 283.265 168.102 282.785 164.528 282.149C160.943 281.507 157.38 280.714 153.865 279.759C151.893 279.225 149.937 278.643 147.996 278.012C147.765 277.936 147.507 278.098 147.448 278.325C147.384 278.567 147.529 278.799 147.76 278.875H147.755Z" fill="#F9F9FA"/>
<path d="M231.564 164.64C230.376 167.272 229.72 170.088 229.172 172.908C228.613 175.773 227.877 178.772 228.769 181.646C229.22 183.103 229.989 184.446 230.887 185.67C231.032 185.864 231.273 185.961 231.499 185.832C231.693 185.719 231.8 185.417 231.66 185.217C230.897 184.176 230.215 183.054 229.779 181.83C229.312 180.53 229.172 179.187 229.274 177.811C229.376 176.387 229.683 174.985 229.951 173.583C230.215 172.213 230.494 170.848 230.838 169.5C231.225 167.995 231.698 166.506 232.338 165.087C232.434 164.866 232.402 164.607 232.176 164.473C231.983 164.359 231.666 164.413 231.564 164.634V164.64Z" fill="#A8E890"/>
<path d="M267.25 186.237C267.685 183.799 268.148 181.361 268.637 178.933C269.126 176.506 269.647 174.079 270.19 171.663C270.496 170.298 270.813 168.933 271.141 167.574C271.275 167.013 270.416 166.776 270.281 167.337C269.706 169.748 269.158 172.164 268.637 174.586C268.115 177.008 267.621 179.44 267.153 181.873C266.89 183.248 266.637 184.624 266.39 185.999C266.347 186.237 266.455 186.485 266.702 186.549C266.917 186.609 267.207 186.474 267.25 186.237Z" fill="#A8E890"/>
<path d="M271.125 170.185C270.211 171.323 269.427 172.553 268.803 173.874C268.701 174.09 268.744 174.359 268.964 174.489C269.158 174.602 269.47 174.548 269.577 174.327C270.168 173.081 270.899 171.894 271.759 170.821C271.91 170.632 271.942 170.373 271.759 170.19C271.603 170.034 271.281 170.001 271.13 170.19L271.125 170.185Z" fill="#A8E890"/>
<path d="M267.949 191.744C271.447 192.375 275.215 193.054 277.951 195.525C278.622 196.134 279.203 196.824 279.649 197.612C279.934 198.114 280.708 197.661 280.417 197.159C278.574 193.928 274.984 192.358 271.523 191.544C270.416 191.285 269.298 191.08 268.185 190.881C267.949 190.837 267.701 190.945 267.637 191.193C267.578 191.409 267.712 191.7 267.949 191.744Z" fill="#A8E890"/>
<path d="M238.4 185.783C239.84 185.832 241.248 186.263 242.474 187.024C242.963 187.326 243.414 186.555 242.925 186.253C241.566 185.411 239.996 184.942 238.4 184.888C237.825 184.867 237.825 185.767 238.4 185.783Z" fill="#A8E890"/>
<path d="M239.674 187.278H239.733C239.792 187.288 239.722 187.283 239.701 187.278C239.738 187.288 239.776 187.288 239.813 187.299C239.889 187.315 239.964 187.331 240.039 187.353C240.114 187.375 240.19 187.396 240.26 187.423C240.297 187.434 240.335 187.45 240.367 187.466C240.383 187.472 240.405 187.482 240.421 187.488C240.378 187.472 240.346 187.456 240.405 187.488C240.544 187.553 240.684 187.628 240.813 187.709C240.845 187.731 240.878 187.752 240.91 187.774C240.926 187.785 240.942 187.795 240.958 187.806C240.969 187.812 241.023 187.855 240.969 187.817C240.915 187.774 240.969 187.817 240.98 187.828C240.996 187.838 241.012 187.855 241.023 187.865C241.055 187.892 241.087 187.925 241.119 187.952C241.291 188.108 241.582 188.135 241.748 187.952C241.904 187.779 241.931 187.488 241.748 187.321C241.168 186.787 240.442 186.474 239.663 186.393C239.432 186.371 239.206 186.614 239.217 186.841C239.228 187.105 239.416 187.261 239.663 187.288L239.674 187.278Z" fill="#A8E890"/>
<path d="M263.972 164.289C262.166 166.555 259.699 168.259 256.942 169.127C256.157 169.376 255.351 169.559 254.534 169.672C254.298 169.705 254.163 170.012 254.222 170.222C254.292 170.481 254.534 170.568 254.771 170.535C257.764 170.12 260.607 168.771 262.865 166.76C263.493 166.199 264.079 165.584 264.606 164.92C264.756 164.732 264.789 164.473 264.606 164.289C264.45 164.133 264.128 164.1 263.977 164.289H263.972Z" fill="#A8E890"/>
<path d="M242.35 162.709C242.829 164.521 243.506 166.274 244.366 167.941C244.478 168.157 244.774 168.221 244.978 168.103C245.193 167.973 245.247 167.703 245.14 167.488C244.317 165.891 243.678 164.208 243.215 162.472C243.07 161.916 242.205 162.153 242.356 162.709H242.35Z" fill="#A8E890"/>
<path d="M249.944 158.777C249.826 160.53 250.009 162.299 250.466 163.993C250.697 164.839 250.998 165.665 251.363 166.468C251.546 166.873 251.745 167.267 251.965 167.655C252.153 167.989 252.352 168.362 252.696 168.561C253.056 168.766 253.486 168.734 253.873 168.647C254.238 168.566 254.593 168.448 254.937 168.302C255.614 168.016 256.232 167.617 256.797 167.143C257.92 166.199 258.791 164.99 259.581 163.766C260.731 161.986 261.838 160.179 262.961 158.383C263.117 158.14 262.73 157.914 262.574 158.156C261.575 159.748 260.58 161.333 259.581 162.925C258.839 164.106 258.06 165.282 257.076 166.269C256.592 166.754 256.06 167.191 255.464 167.536C254.867 167.881 254.163 168.194 253.475 168.259C253.051 168.297 252.771 168.135 252.551 167.779C252.331 167.434 252.142 167.062 251.96 166.689C251.589 165.934 251.277 165.152 251.035 164.349C250.487 162.547 250.267 160.659 250.39 158.782C250.412 158.496 249.966 158.496 249.944 158.782V158.777Z" fill="white"/>
<path d="M253.115 168.243C252.298 168.664 252.25 170.05 253.056 170.492C253.862 170.929 255.018 170.061 254.781 169.171C254.55 168.281 253.056 168.135 252.691 168.982L253.11 168.243H253.115Z" fill="white"/>
<path d="M223.706 0C223.658 9.14246 223.609 34.1265 223.561 35.8741L223.405 41.5267C223.378 42.4437 223.325 43.3606 223.33 44.2776C223.314 44.8277 223.787 45.3132 224.297 45.2916C224.835 45.27 225.254 44.8655 225.265 44.3207C225.286 43.5656 225.308 42.8105 225.329 42.0553C225.378 40.2538 225.431 38.4469 225.48 36.6454C225.528 34.9463 225.571 9.23416 225.587 0.00539378H223.712L223.706 0Z" fill="#749F82"/>
<path d="M265.546 82.2767L228.188 49.5904V44.2614C228.188 42.2495 226.56 40.6152 224.555 40.6152C222.551 40.6152 220.922 42.2495 220.922 44.2614V50.4049L183.048 82.2714H265.546V82.2767Z" fill="#FCB415"/>
<path d="M265.546 82.2768C265.546 84.5799 246.677 86.4408 224.039 86.4408C201.402 86.4408 183.048 84.5745 183.048 82.2768C183.048 79.979 201.402 78.1128 224.039 78.1128C246.677 78.1128 265.546 79.979 265.546 82.2768Z" fill="#F39E1E"/>
<path d="M224.039 83.3178C228.91 83.3178 232.859 79.3549 232.859 74.4666C232.859 69.5782 228.91 65.6154 224.039 65.6154C219.169 65.6154 215.22 69.5782 215.22 74.4666C215.22 79.3549 219.169 83.3178 224.039 83.3178Z" fill="white"/>
<path d="M193.023 77.1311C196.587 76.3922 200.171 75.7719 203.778 75.2757C207.357 74.7848 210.953 74.4234 214.559 74.1753C218.187 73.9272 221.825 73.8085 225.464 73.8085C229.086 73.8085 232.703 73.9326 236.315 74.1807C239.937 74.4288 243.549 74.7956 247.144 75.2972C247.59 75.3566 248.031 75.4213 248.477 75.486C248.735 75.5238 248.998 75.4213 249.074 75.1462C249.138 74.9197 248.998 74.5853 248.735 74.5475C245.113 74.0135 241.469 73.6036 237.814 73.3177C234.17 73.0318 230.516 72.8754 226.861 72.8431C223.206 72.8107 219.546 72.9024 215.897 73.1181C212.248 73.3339 208.604 73.6791 204.982 74.143C201.348 74.6122 197.731 75.2001 194.136 75.9121C193.679 76.0038 193.222 76.0955 192.765 76.1926C192.153 76.322 192.411 77.2552 193.023 77.1311Z" fill="#D79128"/>
<path d="M221.685 46.2247H226.393C227.017 46.2247 227.017 45.2538 226.393 45.2538H221.685C221.062 45.2538 221.062 46.2247 221.685 46.2247Z" fill="#D79128"/>
<path d="M221.685 48.5872H227.339C227.963 48.5872 227.963 47.6163 227.339 47.6163H221.685C221.062 47.6163 221.062 48.5872 221.685 48.5872Z" fill="#D79128"/>
<path d="M85.5882 50.9227C85.5882 50.9227 78.983 51.5754 82.1001 45.7878C85.2173 40.0003 98.03 44.9896 92.1396 50.9659" fill="#3F3622"/>
<path d="M89.5868 48.7113C89.5868 48.7113 77.8113 46.0198 72.969 60.076C68.1266 74.1322 56.1953 73.609 59.1351 82.2876C62.0749 90.9662 49.9018 91.5595 51.6646 103.323C53.4274 115.087 77.7468 127.099 105.2 109.224C132.652 91.3491 105.474 78.6522 104.608 69.623C103.743 60.5938 99.8036 49.4988 89.5814 48.7113H89.5868Z" fill="#3F3622"/>
<path d="M108.199 154.785C108.199 154.785 121.506 184.877 123.403 211.566C125.3 238.254 109.316 278.805 109.316 278.805L100.884 276.922C100.884 276.922 104.625 249.031 103.222 224.058C101.819 199.079 87.6359 177.731 87.6359 177.731V159.548L108.204 154.78L108.199 154.785Z" fill="#EFB9A4"/>
<path d="M71.0611 224.166C73.4903 210.266 66.6218 196.528 64.4988 186.803C61.6719 173.874 62.1771 161.058 64.2785 152.045L89.6405 159.554C89.6405 159.554 96.2189 189.457 91.9999 215.875C87.7863 242.294 61.688 280.072 61.688 280.072L55.2172 274.355C55.2172 274.355 66.7507 248.81 71.0611 224.171V224.166Z" fill="#EFB9A4"/>
<path d="M71.6254 129.899C77.5427 117.024 67.0463 116.846 68.5351 101.673C70.8031 82.0233 81.0092 80.4807 88.6033 81.0686C96.1974 80.4861 108.043 80.3782 110.311 100.028C111.799 115.206 105.044 115.891 107.22 129.899C109.397 143.906 108.483 159.548 108.483 159.548C101.932 166.096 88.6033 161.026 88.6033 161.026C88.6033 161.026 70.8353 158.588 64.2785 152.04C64.2785 152.04 65.0632 144.181 71.6254 129.899Z" fill="white"/>
<path d="M62.4834 278.886C62.4834 278.886 61.5913 283.281 62.65 286.965C63.7088 290.644 65.1814 292.483 61.5859 295.488C58.3075 293.071 55.9159 287.855 54.5669 284.42C53.2233 280.984 50.2673 278.637 50.8209 276.615C51.3744 274.592 55.9266 272.726 55.9266 272.726L62.4834 278.88V278.886Z" fill="#FAF0E7"/>
<path d="M80.8049 81.6511L24.7977 32.4005L20.2778 36.4566L70.0614 95.0061C70.0614 95.0061 79.2033 91.9155 80.8049 81.6511Z" fill="#EFB9A4"/>
<path d="M14.3767 28.1124C14.9948 27.4328 17.7733 30.3454 17.7733 30.3454C17.7733 30.3454 14.3874 26.3163 14.7637 25.723C15.3548 24.7791 19.1331 29.4177 19.1331 29.4177C19.1331 29.4177 15.1506 24.2613 16.204 23.641C17.252 23.0207 20.6164 28.5709 20.6164 28.5709C20.6164 28.5709 17.7733 23.1555 18.7622 22.7834C19.7511 22.4112 23.1478 29.5418 23.1478 29.5418C23.1478 29.5418 24.0991 25.6583 24.8999 25.8039C26.2489 26.0466 24.5667 34.3746 24.5667 34.3746L20.7293 36.996C20.7293 36.996 13.7586 28.7974 14.3767 28.1124Z" fill="#EFB9A4"/>
<path d="M96.3478 81.376L152.355 32.1254L156.875 36.1815L108.731 93.0859C108.731 93.0859 97.9494 91.6404 96.3478 81.376Z" fill="#EFB9A4"/>
<path d="M162.776 27.8373C162.158 27.1577 159.379 30.0704 159.379 30.0704C159.379 30.0704 162.765 26.0412 162.389 25.4479C161.798 24.504 158.02 29.1426 158.02 29.1426C158.02 29.1426 162.002 23.9862 160.949 23.3659C159.901 22.7456 156.536 28.2958 156.536 28.2958C156.536 28.2958 159.379 22.8805 158.39 22.5083C157.402 22.1361 154.005 29.2667 154.005 29.2667C154.005 29.2667 153.054 25.3886 152.253 25.5288C150.904 25.7715 152.586 34.0995 152.586 34.0995L156.423 36.7209C156.423 36.7209 163.394 28.5223 162.776 27.8373Z" fill="#EFB9A4"/>
<path d="M93.4134 260.579C93.4134 260.579 103.711 266.62 119.463 261.048C135.92 203.103 121.242 180.352 112.358 156.76C110.633 143.361 107.838 134.64 107.838 134.64C89.7641 139.834 70.3033 132.87 70.3033 132.87C70.3033 132.87 58.3612 145.632 59.2964 171.204C60.2315 196.776 77.2954 218.831 53.4543 254.49C62.3383 265.628 77.9995 262.834 77.9995 262.834C77.9995 262.834 97.1701 234.22 96.9337 205.881C99.7391 223.756 98.7932 233.27 93.4188 260.579H93.4134Z" fill="#FCB415"/>
<path d="M78.0693 86.0579C86.1041 86.9424 92.6771 87.0989 101.556 86.0687" stroke="#FCB415" stroke-miterlimit="10"/>
<path d="M77.4406 89.3966C85.8999 90.3513 92.8276 90.5185 102.163 89.4128" stroke="#FCB415" stroke-miterlimit="10"/>
<path d="M76.8171 92.73C85.6957 93.7656 92.9781 93.9382 102.781 92.7462" stroke="#FCB415" stroke-miterlimit="10"/>
<path d="M76.199 96.0579C85.4915 97.1744 93.1339 97.3578 103.399 96.0741" stroke="#FCB415" stroke-miterlimit="10"/>
<path d="M75.5864 99.3805C85.2873 100.583 93.2898 100.777 104.017 99.3967" stroke="#FCB415" stroke-miterlimit="10"/>
<path d="M74.9737 102.698C85.0777 103.992 93.4457 104.192 104.635 102.714" stroke="#FCB415" stroke-miterlimit="10"/>
<path d="M74.3663 106.015C84.8734 107.401 93.6015 107.617 105.259 106.026" stroke="#FCB415" stroke-miterlimit="10"/>
<path d="M73.7644 109.327C84.6692 110.81 93.7574 111.036 105.888 109.337" stroke="#FCB415" stroke-miterlimit="10"/>
<path d="M73.1678 112.633C84.4596 114.219 93.9186 114.456 106.516 112.633" stroke="#FCB415" stroke-miterlimit="10"/>
<path d="M72.5713 115.939C84.2553 117.622 94.0745 117.876 107.145 115.939" stroke="#FCB415" stroke-miterlimit="10"/>
<path d="M71.3889 122.541C83.8361 124.435 94.3862 124.715 108.414 122.525" stroke="#FCB415" stroke-miterlimit="10"/>
<path d="M70.8031 125.842C83.6265 127.838 94.5474 128.135 109.053 125.815" stroke="#FCB415" stroke-miterlimit="10"/>
<path d="M71.9747 119.24C84.0404 121.026 94.225 121.295 107.774 119.235" stroke="#FCB415" stroke-miterlimit="10"/>
<path d="M70.2173 129.143C83.4169 131.247 94.7033 131.56 109.687 129.111" stroke="#FCB415" stroke-miterlimit="10"/>
<path d="M69.6368 132.444C83.2073 134.65 94.8591 134.979 110.332 132.401" stroke="#FCB415" stroke-miterlimit="10"/>
<path d="M81.9712 69.0674C82.5355 67.0394 81.1704 64.8549 79.0743 64.8225C79.0529 64.8225 79.0314 64.8225 79.0152 64.8225C76.9514 64.8225 76.9729 70.7071 79.9074 70.7071C81.1543 70.7071 81.7293 69.9466 81.9712 69.0674Z" fill="#F6A692"/>
<path d="M97.5571 69.0674C96.9928 67.0394 98.3579 64.8549 100.454 64.8225C100.475 64.8225 100.497 64.8225 100.513 64.8225C102.577 64.8225 102.555 70.7071 99.6209 70.7071C98.374 70.7071 97.7989 69.9466 97.5571 69.0674Z" fill="#F6A692"/>
<path d="M95.7352 79.9089C94.4077 77.3846 94.9344 73.5334 94.9344 73.5334L89.7642 72.7352L84.594 73.5334C84.594 73.5334 84.8519 75.4159 84.5563 77.4062C86.4428 79.3318 90.0705 81.6565 95.7352 79.9035V79.9089Z" fill="#F6A692"/>
<path d="M95.7352 79.9089C90.0705 81.6565 86.4427 79.3371 84.5563 77.4116C84.3789 78.5982 84.0081 79.828 83.2664 80.7233C82.2722 81.9208 83.8952 82.7514 85.7709 83.2854C88.3775 84.0243 91.1561 84.0243 93.7627 83.2854C95.6384 82.7514 97.2615 81.9208 96.2672 80.7233C96.063 80.4752 95.891 80.2001 95.7405 79.9089H95.7352Z" fill="#F5B8A4"/>
<path d="M94.0529 70.5615C94.0529 68.4741 95.7351 66.7858 97.815 66.7858C98.6158 66.7858 99.3575 67.0393 99.9648 67.4708C100.303 66.117 100.508 64.5582 100.508 62.7567C100.508 54.9788 96.8423 51.5646 93.7896 50.0705C91.2582 48.8299 88.27 48.8299 85.7386 50.0705C82.6913 51.5646 79.0206 54.9788 79.0206 62.7567C79.0206 64.5582 79.2248 66.117 79.5634 67.4708C80.1761 67.0447 80.9124 66.7858 81.7132 66.7858C83.7931 66.7858 85.4753 68.4741 85.4753 70.5615C85.4753 71.9962 84.6691 73.2314 83.4921 73.8679C83.9274 74.2131 84.3628 74.5313 84.7981 74.7848C87.8777 76.5863 91.6344 76.5863 94.714 74.7848C95.1493 74.5313 95.59 74.2131 96.02 73.8679C94.8483 73.2314 94.0368 71.9962 94.0368 70.5615H94.0529Z" fill="#EFB9A4"/>
<path d="M85.4807 70.5615C85.4807 68.4741 83.7985 66.7858 81.7186 66.7858C80.9178 66.7858 80.1815 67.0393 79.5688 67.4708C80.3427 70.5615 81.8637 72.5626 83.5029 73.8733C84.6745 73.2314 85.4861 72.0016 85.4861 70.5669L85.4807 70.5615Z" fill="#F6A692"/>
<path d="M99.9648 67.4655C99.3521 67.0394 98.6158 66.7805 97.815 66.7805C95.7351 66.7805 94.0529 68.4687 94.0529 70.5561C94.0529 71.9909 94.8591 73.226 96.0361 73.8625C97.6699 72.5518 99.1909 70.5507 99.9702 67.4601L99.9648 67.4655Z" fill="#F6A692"/>
<path d="M92.2901 70.7071C92.2901 70.7071 91.4249 71.6186 89.7695 71.6186C88.1142 71.6186 87.2489 70.7071 87.2489 70.7071" stroke="#703622" stroke-width="0.48" stroke-linecap="round" stroke-linejoin="round"/>
<path d="M85.04 65.9767C85.04 66.4298 85.4054 66.802 85.8623 66.802C86.3191 66.802 86.6846 66.4352 86.6846 65.9767C86.6846 65.5183 86.3191 65.1515 85.8623 65.1515C85.4054 65.1515 85.04 65.5183 85.04 65.9767Z" fill="#703622"/>
<path d="M92.9996 65.9767C92.9996 66.4298 93.365 66.802 93.8219 66.802C94.2787 66.802 94.6442 66.4352 94.6442 65.9767C94.6442 65.5183 94.2787 65.1515 93.8219 65.1515C93.365 65.1515 92.9996 65.5183 92.9996 65.9767Z" fill="#703622"/>
<path d="M89.8394 69.7416V65.1515C89.8394 65.1515 86.6147 69.7416 89.8394 69.7416Z" fill="#F6A692"/>
<path d="M84.739 63.3877C84.739 63.3877 85.3033 62.4169 86.6792 62.4169" stroke="#703622" stroke-width="0.48" stroke-linecap="round" stroke-linejoin="round"/>
<path d="M94.7892 63.3877C94.7892 63.3877 94.2249 62.4169 92.8491 62.4169" stroke="#703622" stroke-width="0.48" stroke-linecap="round" stroke-linejoin="round"/>
<path d="M51.4282 52.5193C51.4282 52.5193 50.622 57.2173 46.5858 59.159C42.5549 61.1008 40.2923 66.7697 40.2923 66.7697C40.2923 66.7697 42.872 70.2109 46.5858 72.541C50.2942 74.8657 49.0043 83.4472 56.5876 87.8216C56.6629 87.8648 56.7381 87.9079 56.8134 87.951C61.0807 90.4753 63.037 95.594 61.7686 100.395C60.9033 103.663 59.9359 108.971 60.6239 114.693C61.7525 124.084 49.3321 129.267 47.7198 139.953C59.1727 148.372 76.758 148.049 76.758 148.049C76.758 148.049 84.3682 129.915 80.8049 118.259C77.2417 106.603 89.7856 93.7332 83.6265 80.2056C75.8551 70.7287 70.142 71.0038 65.4609 63.706C60.7797 56.4082 51.4228 52.5247 51.4228 52.5247L51.4282 52.5193Z" fill="#CFFF8D"/>
<path d="M128.272 52.5193C128.272 52.5193 129.078 57.2173 133.114 59.159C137.145 61.1008 139.408 66.7697 139.408 66.7697C139.408 66.7697 136.828 70.2109 133.114 72.541C129.406 74.8657 130.696 83.4472 123.113 87.8216C123.037 87.8647 122.962 87.9079 122.887 87.951C118.62 90.4753 116.663 95.594 117.932 100.395C118.797 103.663 119.764 108.971 119.076 114.693C117.948 124.084 125.45 130.913 127.063 141.598C115.61 150.017 102.942 148.049 102.942 148.049C102.942 148.049 95.332 129.915 98.8953 118.259C102.459 106.603 90.1081 94.251 96.2618 80.7234C104.033 71.2465 109.553 71.0038 114.234 63.706C118.915 56.4082 128.272 52.5247 128.272 52.5247V52.5193Z" fill="#CFFF8D"/>
<path d="M76.7365 65.1353C76.7365 65.1353 82.5032 65.7556 85.8623 59.5851C89.2213 53.4146 95.144 57.6002 98.3955 53.5764C94.4936 48.242 80.5684 42.4545 76.7365 65.1353Z" fill="#3F3622"/>
<path d="M42.1357 63.3878L40.2977 66.7697C40.2977 66.7697 41.7488 68.7923 43.6674 70.3296C45.5861 71.8668 48.6926 72.5788 50.1598 79.472C51.4927 85.7234 57.7969 88.6145 57.7969 88.6145" stroke="#703622" stroke-width="0.48" stroke-linecap="round" stroke-linejoin="round"/>
<path d="M50.7886 54.5312L51.4281 52.5193C51.4281 52.5193 56.6682 54.6067 61.2473 58.8354C65.8263 63.0587 65.6059 64.7686 67.874 66.802" stroke="#703622" stroke-width="0.48" stroke-linecap="round" stroke-linejoin="round"/>
<path d="M55.9373 55.7556C55.9373 55.7556 55.2172 61.446 50.5414 67.4493" stroke="#A8E890" stroke-miterlimit="10"/>
<path d="M57.7915 58.377C57.7915 58.377 57.5228 66.3867 55.9373 77.4116" stroke="#A8E890" stroke-miterlimit="10"/>
<path d="M68.4437 69.0512C68.4437 69.0512 73.2753 81.1333 64.2839 96.3006" stroke="#A8E890" stroke-miterlimit="10"/>
<path d="M54.8194 55.7556C54.8194 55.7556 52.4869 62.2874 44.8337 67.4493" stroke="#A8E890" stroke-miterlimit="10"/>
<path d="M106.258 72.2336C106.258 72.2336 101.19 86.279 115.744 97.703" stroke="#A8E890" stroke-miterlimit="10"/>
<path d="M125.488 55.7556C125.488 55.7556 124.236 65.6693 129.46 73.8679" stroke="#A8E890" stroke-miterlimit="10"/>
<path d="M124.144 56.2194C124.144 56.2194 122 63.9649 125.359 72.7352" stroke="#A8E890" stroke-miterlimit="10"/>
<path d="M119.759 63.7006C119.759 63.7006 116.868 80.567 119.759 87.7785" stroke="#A8E890" stroke-miterlimit="10"/>
<path d="M53.449 134.877C53.449 134.877 65.0793 141.43 73.6623 140.778" stroke="#A8E890" stroke-miterlimit="10"/>
<path d="M108.145 137.854C108.145 137.854 115.653 137.973 121.807 134.882" stroke="#A8E890" stroke-miterlimit="10"/>
<path d="M58.4794 248.853C58.4794 248.853 62.9564 256.011 79.0475 256.512" stroke="white" stroke-width="2" stroke-linecap="round" stroke-linejoin="round"/>
<path d="M96.1329 254.344C96.1329 254.344 104.979 258.174 119.463 253.68" stroke="white" stroke-width="2" stroke-linecap="round" stroke-linejoin="round"/>
<path d="M97.2937 203.907L94.5151 166.285L98.288 163.788L94.5151 142.574" stroke="white" stroke-width="2" stroke-linecap="round" stroke-linejoin="round"/>
<path d="M99.2876 140.826C99.2876 140.826 93.15 142.666 80.8748 140.826" stroke="white" stroke-width="2" stroke-linecap="round" stroke-linejoin="round"/>
<path d="M90.1833 143.475L94.5152 164.122" stroke="white" stroke-width="2" stroke-linecap="round" stroke-linejoin="round"/>
<path d="M61.9997 162.126C61.9997 162.126 71.0771 164.624 74.3179 149.478" stroke="white" stroke-width="2" stroke-linecap="round" stroke-linejoin="round"/>
<path d="M104.098 150.19C104.098 150.19 105.758 162.099 113.385 162.277" stroke="white" stroke-width="2" stroke-linecap="round" stroke-linejoin="round"/>
<path d="M75.5111 65.1515C75.5111 65.1515 79.9558 66.4029 84.2822 61.8397" stroke="#703622" stroke-width="0.48" stroke-linecap="round" stroke-linejoin="round"/>
<path d="M77.1933 61.6024C77.1933 61.6024 80.5577 61.9476 83.5029 58.3769C86.4481 54.8063 88.1303 54.2669 91.2529 54.1428" stroke="#703622" stroke-width="0.48" stroke-linecap="round" stroke-linejoin="round"/>
<path d="M61.1936 280.067L55.2225 273.05L56.0502 272.445L62.1448 278.567" stroke="#703622" stroke-width="0.48" stroke-linecap="round" stroke-linejoin="round"/>
<path d="M54.4647 273.427C54.4647 273.427 51.5518 274.371 50.8208 276.62C50.2834 278.476 53.3038 281.992 53.3038 281.992C53.3038 281.992 55.9911 290.477 61.1452 295.088" stroke="#703622" stroke-width="0.48" stroke-linecap="round" stroke-linejoin="round"/>
<path d="M62.3813 279.517C62.3813 279.517 61.473 282.796 62.6554 286.965C63.8378 291.14 64.4666 292.753 62.0481 295.083" stroke="#703622" stroke-width="0.48" stroke-linecap="round" stroke-linejoin="round"/>
<path d="M59.3662 282.143H62.0481" stroke="#703622" stroke-width="0.48" stroke-linecap="round" stroke-linejoin="round"/>
<path d="M59.7532 284.457L62.1448 284.366" stroke="#703622" stroke-width="0.48" stroke-linecap="round" stroke-linejoin="round"/>
<path d="M60.3444 286.534H62.5371" stroke="#703622" stroke-width="0.48" stroke-linecap="round" stroke-linejoin="round"/>
<path d="M109.306 278.492C109.306 278.492 110.649 282.774 113.353 285.477C116.056 288.184 118.233 289.069 116.534 293.454C112.498 292.936 107.887 289.533 105.054 287.181C102.222 284.829 98.4976 284.209 98.0139 282.176C97.5248 280.137 100.604 276.291 100.604 276.291L109.311 278.492H109.306Z" fill="#FAF0E7"/>
<path d="M108.747 280.153L100.137 276.917L100.567 275.984L108.854 278.379" stroke="#703622" stroke-width="0.48" stroke-linecap="round" stroke-linejoin="round"/>
<path d="M99.6531 277.613C99.6531 277.613 97.5625 279.851 98.0085 282.176C98.4385 284.058 102.77 285.666 102.77 285.666C102.77 285.666 108.634 291.615 115.368 293.141" stroke="#703622" stroke-width="0.48" stroke-linecap="round" stroke-linejoin="round"/>
<path d="M109.521 279.091C109.521 279.091 110.305 282.402 113.353 285.477C116.4 288.551 117.733 289.657 116.739 292.872" stroke="#703622" stroke-width="0.48" stroke-linecap="round" stroke-linejoin="round"/>
<path d="M108.15 282.855L110.493 281.555" stroke="#703622" stroke-width="0.48" stroke-linecap="round" stroke-linejoin="round"/>
<path d="M109.607 284.689L111.654 283.449" stroke="#703622" stroke-width="0.48" stroke-linecap="round" stroke-linejoin="round"/>
<path d="M111.122 286.221L113.046 285.153" stroke="#703622" stroke-width="0.48" stroke-linecap="round" stroke-linejoin="round"/>
<path d="M94.5151 54.5635C94.5151 54.5635 95.1547 62.3683 101.556 63.3878C100.954 56.6833 98.7233 50.7447 94.5151 54.5635Z" fill="#3F3622"/>
<path d="M95.7352 84.8496C95.7352 85.2434 96.0523 85.5616 96.4446 85.5616C96.8369 85.5616 97.154 85.2434 97.154 84.8496C97.154 84.4559 96.8369 84.1376 96.4446 84.1376C96.0523 84.1376 95.7352 84.4559 95.7352 84.8496Z" fill="#A8E890"/>
<path d="M96.7187 98.0644C96.7187 98.4581 97.0358 98.7764 97.4281 98.7764C97.8204 98.7764 98.1375 98.4581 98.1375 98.0644C98.1375 97.6706 97.8204 97.3524 97.4281 97.3524C97.0358 97.3524 96.7187 97.6706 96.7187 98.0644Z" fill="#A8E890"/>
<path d="M99.7982 108.615C99.7982 109.008 100.115 109.327 100.508 109.327C100.9 109.327 101.217 109.008 101.217 108.615C101.217 108.221 100.9 107.903 100.508 107.903C100.115 107.903 99.7982 108.221 99.7982 108.615Z" fill="#A8E890"/>
<path d="M99.0888 119.958C99.0888 120.352 99.4059 120.67 99.7982 120.67C100.191 120.67 100.508 120.352 100.508 119.958C100.508 119.564 100.191 119.246 99.7982 119.246C99.4059 119.246 99.0888 119.564 99.0888 119.958Z" fill="#A8E890"/>
<path d="M101.459 142.763C101.459 143.156 101.776 143.475 102.168 143.475C102.561 143.475 102.878 143.156 102.878 142.763C102.878 142.369 102.561 142.051 102.168 142.051C101.776 142.051 101.459 142.369 101.459 142.763Z" fill="#A8E890"/>
<path d="M98.5782 129.974C98.5782 130.368 98.8953 130.686 99.2877 130.686C99.68 130.686 99.9971 130.368 99.9971 129.974C99.9971 129.58 99.68 129.262 99.2877 129.262C98.8953 129.262 98.5782 129.58 98.5782 129.974Z" fill="#A8E890"/>
<path opacity="0.06" d="M88.5764 316.55C111.185 316.55 129.514 313.722 129.514 310.234C129.514 306.746 111.185 303.918 88.5764 303.918C65.9674 303.918 47.6392 306.746 47.6392 310.234C47.6392 313.722 65.9674 316.55 88.5764 316.55Z" fill="black"/>
<path d="M82.5247 49.31C82.5247 49.31 87.0661 47.174 92.3653 49.31" stroke="#703622" stroke-width="0.48" stroke-linecap="round" stroke-linejoin="round"/>
</g>
<defs>
<clipPath id="clip0_107_1830">
<rect width="336" height="322.759" fill="white"/>
</clipPath>
</defs>
</svg>
