<svg width="600" height="432" viewBox="0 0 600 432" fill="none" xmlns="http://www.w3.org/2000/svg">
<path d="M589.344 308.41C587.294 309.289 585.364 310.841 584.629 312.311C583.778 313.46 583.587 315.21 584.125 316.554C584.418 317.285 585.042 318.2 586.355 318.419C588.608 318.862 589.564 316.472 589.875 315.423C590.545 313.169 590.356 310.374 589.344 308.41ZM586.911 319.534C586.668 319.534 586.419 319.508 586.166 319.457C584.779 319.227 583.701 318.335 583.145 316.947C582.468 315.257 582.71 313.122 583.733 311.757C584.526 310.159 586.571 308.48 588.768 307.504C588.321 306.931 587.773 306.485 587.129 306.227C585.646 305.635 582.959 305.517 580.903 306.471C579.834 306.966 579.141 307.665 578.848 308.544C578.755 308.821 578.459 308.972 578.18 308.879C577.903 308.786 577.754 308.487 577.846 308.211C578.229 307.06 579.133 306.127 580.459 305.512C582.498 304.566 585.536 304.451 587.521 305.247C588.446 305.617 589.201 306.271 589.787 307.107C590.167 306.981 590.545 306.878 590.919 306.804C593.162 306.053 595.1 306.097 596.613 306.955C598.241 307.876 599.376 309.737 599.988 312.488C600.05 312.773 599.87 313.055 599.586 313.118C599.3 313.18 599.019 313.002 598.956 312.718C598.412 310.27 597.448 308.641 596.093 307.874C594.847 307.168 593.198 307.152 591.189 307.823C590.908 307.879 590.624 307.953 590.339 308.042C591.439 310.263 591.616 313.274 590.887 315.724C590.164 318.16 588.707 319.533 586.911 319.534Z" fill="#292929"/>
<path d="M144.922 334.735C144.577 334.735 144.216 334.812 143.854 334.967C141.706 335.882 140.896 337.664 140.595 338.997C140.339 340.141 140.35 341.413 140.591 342.624C141.078 342.616 141.57 342.557 142.061 342.445C144.437 341.869 146.648 340.009 147.087 338.213C147.324 336.949 147.008 335.809 146.237 335.19C145.862 334.889 145.409 334.735 144.922 334.735ZM148.415 350.045C145.824 350.045 143.409 349.019 141.57 347.121C140.754 346.2 140.136 344.977 139.762 343.652C138.395 343.533 137.082 343.063 135.924 342.26C133.903 340.862 132.54 338.573 132.184 335.983C131.781 332.772 132.888 330.797 134.622 328.148C134.783 327.904 135.11 327.836 135.354 327.996C135.598 328.156 135.666 328.483 135.507 328.728C133.858 331.244 132.866 332.933 133.231 335.844C133.546 338.136 134.747 340.161 136.525 341.392C137.434 342.021 138.451 342.415 139.515 342.561C139.292 341.282 139.296 339.962 139.566 338.766C140.075 336.509 141.414 334.858 143.44 333.995C144.666 333.472 145.959 333.612 146.898 334.367C147.977 335.233 148.435 336.754 148.12 338.435C147.578 340.647 145.081 342.8 142.303 343.474C141.822 343.582 141.338 343.649 140.859 343.672C141.192 344.717 141.697 345.673 142.345 346.404C144.07 348.183 146.398 349.095 148.863 348.979C151.462 348.846 153.876 347.6 155.487 345.56C155.668 345.331 156.001 345.292 156.229 345.472C156.458 345.653 156.497 345.985 156.316 346.213C154.517 348.494 151.82 349.885 148.916 350.033C148.748 350.041 148.581 350.045 148.415 350.045Z" fill="#292929"/>
<path d="M164.521 33.1131C164.502 33.149 164.483 33.1849 164.464 33.2208C163.172 35.7294 163.672 38.3277 165.872 40.5373C167.477 42.1481 168.991 42.7364 170.024 42.1544C171.106 41.545 171.581 39.7177 171.131 37.9041C170.864 36.8278 169.604 33.3433 164.521 33.1131ZM152.704 47.3648C152.414 47.3648 152.177 47.1292 152.176 46.8388C152.156 42.3318 153.897 37.8186 156.718 35.0608C158.712 33.112 161.195 32.0738 163.924 32.0463C166.061 28.6917 170.525 26.6268 174.444 27.2764C176.741 27.6577 178.753 28.9146 180.699 30.1303C184.297 32.3769 187.405 34.3193 191.401 30.1018C191.602 29.8905 191.936 29.881 192.148 30.0817C192.359 30.2824 192.369 30.6172 192.168 30.8285C187.579 35.6734 183.798 33.3117 180.139 31.0249C178.282 29.8652 176.361 28.6643 174.27 28.3178C171.006 27.7791 167.197 29.4269 165.172 32.1012C169.391 32.5195 171.544 35.1833 172.156 37.6485C172.726 39.9448 172.047 42.2262 170.544 43.0744C169.676 43.5645 167.816 43.9838 165.124 41.283C162.722 38.8706 162.083 35.9195 163.338 33.1247C161.104 33.2768 159.129 34.1799 157.456 35.816C154.833 38.3816 153.214 42.6033 153.232 46.8345C153.233 47.1261 152.998 47.3637 152.706 47.3648C152.705 47.3648 152.704 47.3648 152.704 47.3648Z" fill="#292929"/>
<path d="M587.053 181.274C584.941 181.274 582.945 182.184 581.712 183.706C580.493 185.212 580.097 187.175 580.567 189.383C581.21 192.406 583.682 194.36 586.862 194.36C587.786 194.36 588.717 194.192 589.627 193.861C591.189 193.293 592.646 191.838 593.431 190.064C594.098 188.555 594.189 187.048 593.688 185.82C592.485 182.976 590.003 181.274 587.053 181.274ZM586.862 195.416C583.163 195.416 580.286 193.133 579.533 189.602C578.853 186.407 579.896 184.271 580.891 183.041C582.321 181.273 584.625 180.218 587.053 180.218C590.442 180.218 593.286 182.16 594.664 185.415C595.278 186.916 595.182 188.717 594.397 190.492C593.5 192.52 591.81 194.191 589.989 194.853C588.962 195.227 587.91 195.416 586.862 195.416Z" fill="#FAAD3A"/>
<path d="M58.4095 325.625C56.2971 325.625 54.3008 326.534 53.0692 328.056C51.8493 329.563 51.4532 331.526 51.9232 333.732C52.5675 336.756 55.0391 338.711 58.2183 338.711C59.1436 338.711 60.0741 338.543 60.9846 338.212C62.5446 337.644 64.0022 336.19 64.787 334.418C65.4556 332.907 65.5464 331.399 65.0437 330.171C63.8406 327.327 61.3596 325.625 58.4095 325.625ZM58.2183 339.767C54.5194 339.767 51.6423 337.485 50.8902 333.953C50.209 330.758 51.2525 328.621 52.2485 327.392C53.6787 325.624 55.9823 324.568 58.4095 324.568C61.7979 324.568 64.6423 326.511 66.0196 329.764C66.6343 331.268 66.5393 333.069 65.7535 334.844C64.8557 336.872 63.1668 338.542 61.3448 339.205C60.3181 339.577 59.2672 339.767 58.2183 339.767Z" fill="#40BDDE"/>
<path d="M580.246 229.846C579.27 229.846 578.33 230.134 577.526 230.68L561.938 241.269C560.868 241.995 560.144 243.101 559.899 244.384C559.654 245.665 559.92 246.961 560.648 248.031L571.234 263.616C572.138 264.949 573.649 265.745 575.274 265.745C576.251 265.745 577.193 265.455 577.998 264.908L593.582 254.324C595.803 252.815 596.383 249.781 594.876 247.559L584.288 231.975C583.384 230.642 581.871 229.846 580.246 229.846ZM575.274 266.801C573.298 266.801 571.461 265.832 570.36 264.211L559.772 248.625C558.888 247.321 558.564 245.744 558.861 244.185C559.158 242.626 560.04 241.28 561.345 240.394L576.932 229.805C577.912 229.141 579.058 228.789 580.246 228.789C582.222 228.789 584.061 229.758 585.164 231.381L595.75 246.966C597.583 249.669 596.877 253.361 594.176 255.198L578.593 265.783C577.611 266.449 576.463 266.801 575.274 266.801Z" fill="#40BDDE"/>
<path d="M107.596 373.285C106.671 373.285 105.904 373.602 105.381 374.204C104.704 374.986 104.446 376.232 104.656 377.718L107.72 399.356C108.037 401.6 109.196 402.94 110.82 402.94C111.717 402.94 112.712 402.533 113.696 401.761L130.903 388.287C132.287 387.202 132.959 385.952 132.79 384.767C132.622 383.582 131.63 382.567 129.996 381.909L109.726 373.746C108.967 373.44 108.251 373.285 107.596 373.285ZM110.82 403.996C108.654 403.996 107.067 402.275 106.674 399.505L103.611 377.865C103.353 376.048 103.69 374.542 104.584 373.513C105.778 372.136 107.845 371.849 110.121 372.766L130.391 380.93C132.39 381.733 133.613 383.045 133.837 384.619C134.06 386.193 133.25 387.792 131.553 389.119L114.346 402.593C113.176 403.511 111.956 403.996 110.82 403.996Z" fill="#FAAD3A"/>
<path d="M274.564 11.5445C273.764 11.5445 272.858 11.8381 271.942 12.3927L253.246 23.7112C251.741 24.6217 250.926 25.7825 250.951 26.9792C250.976 28.1759 251.839 29.3018 253.381 30.151L272.533 40.6806C274.335 41.6702 276.018 41.6523 277.018 40.632C277.718 39.9169 278.073 38.7794 278.043 37.3418L277.586 15.4948C277.536 13.0581 276.377 11.5445 274.564 11.5445ZM275.042 42.4761C274.09 42.4761 273.074 42.1836 272.024 41.6058L252.873 31.0763C250.986 30.0391 249.927 28.592 249.895 27.0014C249.861 25.4117 250.857 23.9224 252.699 22.8071L271.395 11.4885C272.492 10.8252 273.557 10.4883 274.564 10.4883C276.978 10.4883 278.58 12.4444 278.642 15.4726L279.099 37.3207C279.135 39.0476 278.676 40.4482 277.773 41.3713C277.064 42.0938 276.121 42.4761 275.042 42.4761Z" fill="#FDCA81"/>
<path d="M374.996 167.55C329.174 167.55 284.95 190.596 250.472 232.445C202.891 290.193 192.905 319.134 187.54 334.682C187.261 335.488 186.995 336.263 186.735 337.004C179.939 356.425 180.264 373.162 187.701 386.749C196.529 402.878 215.365 414.456 243.688 421.164C268.763 427.103 306.588 430.375 350.199 430.376C350.203 430.376 350.213 430.376 350.217 430.376C419.03 430.376 502.702 421.874 534.532 402.879C551.742 392.608 560.689 366.515 557.881 334.782C553.334 283.379 515.784 211.163 424.925 176.802C408.691 170.662 391.893 167.55 374.996 167.55ZM350.217 431.432C350.208 431.432 350.207 431.432 350.199 431.432C306.509 431.431 268.597 428.149 243.444 422.192C214.819 415.412 195.752 403.658 186.775 387.256C179.188 373.395 178.839 356.371 185.738 336.656C185.998 335.914 186.263 335.143 186.542 334.337C191.928 318.726 201.954 289.668 249.657 231.772C284.34 189.676 328.853 166.494 374.996 166.494C392.02 166.494 408.945 169.629 425.298 175.813C466.065 191.231 500.156 216.015 523.885 247.488C543.854 273.974 556.302 304.942 558.934 334.688C561.777 366.829 552.635 393.305 535.073 403.786C503.073 422.883 419.173 431.432 350.217 431.432Z" fill="#292929"/>
<path d="M142.736 124.046C144.837 127.485 146.554 133.601 147.512 140.29C148.183 144.97 149.424 145.449 154.009 147.551C158.597 149.653 159.649 153.666 157.164 155.959C153.625 159.225 153.629 157.441 153.152 161.118C152.832 163.572 153.497 165.53 150.196 164.474C148.9 164.059 146.221 162.464 145.839 162.758C144.697 163.641 145.047 166.983 149.404 169.491C150.993 170.406 152.309 170.283 150.905 177.553C149.682 183.884 142.019 184.862 134.423 183.428C126.826 181.996 128.403 187.729 125.394 195.898C122.384 204.068 121.954 208.654 126.109 212.094C130.266 215.534 133.563 232.016 133.133 236.029C132.703 240.042 118.37 248.354 106.188 234.882C99.5957 225.71 92.1418 208.08 92.1418 208.08C92.1418 208.08 99.8808 197.331 99.7382 186.868C99.5956 176.406 95.1521 136.991 109.628 125.812C124.103 114.634 141.302 121.276 142.736 124.046Z" fill="#FEFEFE"/>
<path d="M92.7424 208.145C93.7099 210.396 100.575 226.169 106.616 234.575C111.967 240.488 117.471 241.737 121.14 241.737C127.514 241.737 132.39 237.998 132.608 235.973C133.023 232.096 129.695 215.749 125.772 212.502C121.226 208.738 121.957 203.699 124.897 195.716C125.699 193.543 126.168 191.55 126.584 189.792C127.557 185.664 128.261 182.681 132.344 182.681C132.991 182.681 133.704 182.756 134.52 182.91C136.519 183.288 138.424 183.479 140.182 183.479C144.306 183.479 149.425 182.433 150.386 177.454C151.586 171.239 150.792 170.823 149.589 170.193C149.443 170.116 149.293 170.038 149.14 169.949C146.533 168.449 144.896 166.372 144.762 164.396C144.701 163.506 144.976 162.759 145.516 162.34C145.974 161.986 146.772 162.332 148.461 163.14C149.158 163.474 149.878 163.818 150.356 163.972C150.912 164.15 151.359 164.239 151.683 164.239C152.308 164.239 152.425 163.982 152.515 162.403C152.539 161.981 152.566 161.526 152.627 161.052C152.945 158.605 153.071 158.34 154.305 157.53C154.825 157.189 155.612 156.673 156.805 155.571C157.695 154.749 158.084 153.66 157.9 152.503C157.622 150.756 156.085 149.084 153.789 148.032L153.521 147.909C149.158 145.911 147.687 145.239 146.989 140.365C145.997 133.44 144.282 127.593 142.285 124.321C141.614 123.031 135.981 120.08 128.021 120.08C123.411 120.08 116.534 121.148 109.949 126.231C97.7056 135.688 99.2678 166.261 100.019 180.954C100.14 183.338 100.245 185.398 100.266 186.862C100.399 196.63 93.9232 206.44 92.7424 208.145ZM121.14 242.793C117.256 242.793 111.443 241.482 105.795 235.237C99.2075 226.075 91.7295 208.464 91.6555 208.287C91.5837 208.117 91.6048 207.923 91.7126 207.773C91.7897 207.667 99.348 197.04 99.2097 186.877C99.1896 185.432 99.085 183.382 98.9636 181.008C98.2031 166.135 96.6219 135.189 109.304 125.396C116.124 120.129 123.246 119.023 128.021 119.023C135.779 119.023 142.195 121.854 143.204 123.804C145.256 127.16 147.023 133.154 148.035 140.216C148.652 144.518 149.67 144.984 153.96 146.948L154.23 147.072C156.886 148.289 158.605 150.209 158.943 152.337C159.184 153.855 158.68 155.278 157.522 156.347C156.265 157.508 155.434 158.052 154.884 158.413C153.973 159.012 153.956 159.023 153.674 161.188C153.616 161.636 153.592 162.066 153.569 162.463C153.474 164.13 153.319 166.031 150.035 164.978C149.487 164.802 148.733 164.442 148.004 164.093C147.368 163.788 146.437 163.343 146.07 163.264C145.879 163.483 145.784 163.868 145.816 164.324C145.901 165.578 146.958 167.474 149.668 169.035C149.807 169.115 149.946 169.187 150.079 169.258C151.799 170.159 152.71 170.993 151.423 177.655C150.567 182.092 146.574 184.535 140.182 184.535C138.359 184.535 136.388 184.337 134.325 183.949C133.584 183.808 132.917 183.737 132.344 183.737C129.228 183.737 128.641 185.668 127.612 190.035C127.189 191.822 126.712 193.848 125.889 196.082C122.692 204.76 122.832 208.697 126.446 211.688C130.779 215.274 134.112 231.849 133.657 236.087C133.368 238.787 127.984 242.793 121.14 242.793Z" fill="#292929"/>
<path d="M99.3567 306.736C102.032 307.884 127.257 309.22 127.257 309.22C127.257 309.22 138.341 273.869 133.756 233.355C124.583 241.381 114.262 239.469 103.944 231.061C110.44 250.936 107.384 291.829 99.3567 306.736Z" fill="#292929"/>
<path d="M138.167 149.893C138.726 151.681 140.005 152.874 141.023 152.557C142.043 152.238 142.415 150.53 141.858 148.741C141.3 146.954 140.02 145.761 139.004 146.081C137.985 146.399 137.609 148.105 138.167 149.893Z" fill="#292929"/>
<path d="M139.883 146.936C139.835 146.936 139.784 146.93 139.734 146.915C139.455 146.833 139.295 146.539 139.377 146.259L140.333 143.01C140.416 142.731 140.709 142.569 140.989 142.653C141.269 142.735 141.429 143.029 141.346 143.308L140.39 146.558C140.323 146.787 140.113 146.936 139.883 146.936Z" fill="#292929"/>
<path d="M114.453 254.757C111.503 232.999 101.776 218.604 93.1715 205.267C91.8512 203.221 90.6302 203.512 90.0683 203.624C85.9543 204.441 81.3629 206.372 82.5395 208.893C82.7898 209.426 83.1722 209.974 83.6496 210.584C81.8646 210.944 79.7278 211.392 77.1897 211.951C67.6329 214.051 61.7202 217.832 55.7958 223.755C49.8714 229.678 19.5777 266.411 11.1702 275.774C22.2542 297.179 41.2727 300.331 41.2727 300.331C41.2727 300.331 58.6529 282.848 69.5447 269.471C69.1613 272.145 67.8262 296.99 64.0037 306.735C70.7541 310.652 89.518 310.465 99.9535 310.018C101.667 311.59 108.339 310.175 108.339 310.175C108.339 310.175 117.51 277.307 114.453 254.757Z" fill="#40BDDE"/>
<path d="M82.2522 129.97C77.2362 131.833 71.6466 136.419 68.6364 156.054C67.1809 165.55 63.6573 175.744 64.3206 185.428C64.9417 194.491 72.7916 196.963 80.7936 198.563C87.8428 199.973 115.241 206.506 116.969 194.709C118.985 180.946 97.2919 174.035 100.403 161.261C101.036 158.665 103.644 155.438 106.329 154.837C109.755 154.072 110.774 157 113.438 158.796C116.684 160.985 118.628 159.706 120.577 156.421C122.421 153.317 121.73 148.343 121.438 144.857C121.056 140.29 120.513 138.64 124.476 137.333C129.833 135.567 134.42 131.937 129.264 125.813C136.143 133.982 139.582 132.693 145.172 129.11C150.761 125.526 151.049 122.23 148.898 116.068C146.748 109.904 140.156 100.445 128.547 101.878C116.938 103.311 118.084 106.464 104.182 109.331C90.2785 112.198 81.3925 116.354 82.2522 129.97Z" fill="#292929"/>
<path d="M134.136 140.673C134.077 140.673 134.018 140.663 133.959 140.642C133.684 140.544 133.54 140.242 133.639 139.967C134.014 138.916 136.133 133.623 141.051 132.605C141.336 132.547 141.616 132.73 141.675 133.015C141.735 133.3 141.551 133.58 141.265 133.64C136.901 134.542 134.975 139.364 134.634 140.322C134.556 140.538 134.353 140.673 134.136 140.673Z" fill="#292929"/>
<path d="M99.5482 309.557C99.5376 309.557 99.526 309.557 99.5154 309.556C99.2239 309.538 99.0031 309.288 99.0211 308.997C99.0496 308.538 99.1468 307.286 99.2883 305.466C100.115 294.842 102.314 266.619 101.507 260.173C100.664 253.426 102.492 251.735 105.261 249.176C105.607 248.857 105.97 248.52 106.348 248.157C104.986 247.287 101.407 245.014 98.699 243.36C95.8704 241.632 95.2482 239.285 93.5847 233.014C93.0883 231.142 92.5253 229.02 91.7785 226.43C89.5087 218.548 86.2756 214.621 84.1357 212.023C83.6107 211.386 83.1576 210.836 82.7795 210.308C82.6105 210.07 82.6643 209.74 82.902 209.571C83.1407 209.401 83.4702 209.455 83.6392 209.693C83.9962 210.192 84.4388 210.729 84.9511 211.351C87.1459 214.017 90.4635 218.046 92.7936 226.138C93.5435 228.739 94.1318 230.958 94.605 232.743C96.1893 238.716 96.783 240.951 99.2503 242.458C102.656 244.54 107.429 247.593 107.477 247.624C107.611 247.71 107.7 247.853 107.717 248.012C107.734 248.17 107.679 248.329 107.566 248.442C107.006 249.001 106.475 249.493 105.977 249.952C103.27 252.455 101.779 253.833 102.556 260.041C103.375 266.594 101.172 294.895 100.341 305.548C100.201 307.36 100.104 308.606 100.075 309.063C100.057 309.342 99.8259 309.557 99.5482 309.557Z" fill="#FEFEFE"/>
<path d="M173.312 240.424L169.298 252.272C169.298 252.272 159.743 234.883 153.628 227.239C147.912 220.095 139.696 215.623 133.187 213.195C128.794 205.926 122.588 204.877 122.588 204.877C122.588 204.877 122.096 206.598 123.006 208.775C123.914 210.951 133.753 228.003 131.461 255.139C129.169 282.275 121.332 309.22 121.332 309.22H127.257C127.257 309.22 127.302 309.07 127.387 308.794C131.844 309.367 140.919 310.281 141.206 308.265C141.589 305.59 146.75 284.187 149.806 277.498C158.979 294.504 167.49 297.975 179.803 292.802C188.606 289.105 195.861 259.535 196.817 247.878C197.007 247.686 173.312 240.424 173.312 240.424Z" fill="#40BDDE"/>
<path d="M127.257 309.748C127.206 309.748 127.154 309.741 127.103 309.726C126.824 309.64 126.667 309.345 126.752 309.066C126.87 308.678 138.614 270.207 140.311 262.857C142.055 255.295 141.999 254.388 140.862 252.166C139.432 249.374 138.205 246.923 138.205 246.923C138.083 246.678 138.168 246.381 138.4 246.236C139.69 245.44 142.916 242.901 142.367 240.746C141.147 235.96 136.5 220.101 133.102 214.073L132.992 213.88C132.848 213.627 132.936 213.304 133.189 213.159C133.442 213.014 133.764 213.103 133.91 213.356L134.023 213.555C137.472 219.674 142.162 235.663 143.391 240.486C144.112 243.317 140.591 246.023 139.36 246.869C139.769 247.684 140.728 249.589 141.801 251.685C143.13 254.279 143.078 255.558 141.34 263.094C139.635 270.481 127.881 308.986 127.762 309.375C127.693 309.601 127.484 309.748 127.257 309.748Z" fill="#FEFEFE"/>
<path d="M149.806 278.025C149.733 278.025 149.658 278.01 149.587 277.978C149.322 277.856 149.206 277.543 149.326 277.278C157.917 258.474 154.715 251.705 152.802 247.661C152.469 246.957 152.181 246.349 151.981 245.75C151.891 245.475 152.04 245.175 152.316 245.082C152.595 244.99 152.893 245.141 152.985 245.416C153.163 245.955 153.438 246.536 153.757 247.209C155.748 251.419 159.082 258.465 150.286 277.717C150.197 277.91 150.006 278.025 149.806 278.025Z" fill="#292929"/>
<path d="M172.406 259.966C172.208 259.966 172.019 259.856 171.928 259.666C171.907 259.622 169.798 255.205 167.904 250.66C167.792 250.391 167.919 250.082 168.188 249.969C168.458 249.862 168.767 249.983 168.879 250.254C170.762 254.775 172.861 259.166 172.882 259.21C173.008 259.473 172.896 259.788 172.633 259.914C172.559 259.95 172.482 259.966 172.406 259.966Z" fill="#292929"/>
<path d="M174.84 235.885C176.99 229.149 180.143 210.947 180.86 204.211C181.576 197.475 177.563 188.015 182.293 181.996C187.023 175.977 190.033 172.966 191.323 169.956C192.612 166.947 195.622 166.517 197.198 169.526C198.775 172.536 196.339 177.84 192.756 181.566C201.498 175.977 202.214 177.982 204.937 173.684C207.661 169.383 212.965 158.347 216.405 158.634C219.27 154.764 222.567 156.914 223.14 162.217C224.86 162.075 226.437 166.087 225.291 172.107C229.446 174.543 229.016 183.428 223.14 190.165C217.263 196.902 206.084 200.914 203.648 206.361C201.212 211.807 197.198 243.768 197.198 243.768L174.84 235.885Z" fill="#FEFEFE"/>
<path d="M175.494 235.556L196.756 243.053C197.355 238.356 200.89 211.233 203.165 206.145C204.535 203.083 208.478 200.494 212.653 197.754C216.297 195.361 220.063 192.888 222.742 189.818C226.222 185.828 228.043 180.623 227.381 176.556C227.072 174.667 226.258 173.285 225.023 172.561C224.83 172.448 224.729 172.227 224.771 172.007C225.608 167.61 224.964 164.411 223.954 163.191C223.784 162.986 223.521 162.742 223.229 162.742C222.959 162.742 222.643 162.542 222.614 162.274C222.285 159.232 221.01 157.188 219.443 157.188C218.585 157.188 217.681 157.796 216.828 158.948C216.719 159.095 216.545 159.179 216.36 159.16C216.36 159.16 216.359 159.16 216.358 159.16C213.885 159.16 210.026 165.927 207.472 170.406C206.703 171.754 205.977 173.028 205.384 173.965C203.74 176.559 202.747 176.997 200.571 177.956C198.959 178.665 196.749 179.638 193.039 182.01C192.814 182.153 192.516 182.106 192.347 181.901C192.178 181.694 192.189 181.393 192.375 181.199C195.62 177.824 198.25 172.671 196.73 169.771C196.132 168.629 195.301 168.001 194.389 168.001C193.353 168.001 192.388 168.809 191.807 170.164C190.883 172.321 189.166 174.402 186.568 177.554C185.437 178.925 184.154 180.48 182.707 182.322C179.748 186.089 180.378 191.35 180.987 196.439C181.322 199.236 181.639 201.878 181.384 204.266C180.707 210.63 177.67 228.363 175.494 235.556ZM197.198 244.296C197.139 244.296 197.08 244.286 197.021 244.267L174.664 236.383C174.395 236.288 174.249 235.996 174.336 235.724C176.502 228.938 179.644 210.632 180.334 204.154C180.575 201.884 180.266 199.301 179.939 196.564C179.304 191.262 178.647 185.779 181.877 181.669C183.332 179.818 184.618 178.258 185.753 176.882C188.294 173.8 189.972 171.765 190.836 169.749C191.588 167.992 192.917 166.944 194.389 166.944C195.694 166.944 196.888 167.796 197.666 169.281C199.076 171.972 197.638 176.045 195.176 179.478C197.432 178.184 199.004 177.492 200.147 176.988C202.237 176.067 203.02 175.723 204.491 173.4C205.072 172.483 205.791 171.22 206.554 169.883C210.175 163.534 213.399 158.262 216.144 158.104C217.423 156.48 218.636 156.132 219.443 156.132C221.525 156.132 223.137 158.314 223.612 161.732C223.954 161.815 224.364 162.03 224.767 162.517C225.825 163.794 226.728 166.992 225.873 171.852C227.211 172.775 228.088 174.334 228.423 176.386C229.134 180.75 227.216 186.295 223.538 190.512C220.764 193.691 216.936 196.205 213.232 198.637C209.19 201.29 205.373 203.796 204.13 206.576C201.753 211.889 197.762 243.516 197.722 243.835C197.702 243.992 197.612 244.134 197.476 244.218C197.391 244.27 197.295 244.296 197.198 244.296Z" fill="#292929"/>
<path d="M197.914 191.41C197.676 191.41 197.459 191.247 197.401 191.004C196.676 187.961 193.953 182.999 192.463 182.005C192.22 181.843 192.155 181.515 192.316 181.272C192.478 181.029 192.805 180.964 193.048 181.127C194.904 182.363 197.698 187.689 198.429 190.759C198.496 191.044 198.321 191.328 198.037 191.395C197.997 191.406 197.955 191.41 197.914 191.41Z" fill="#292929"/>
<path d="M215.402 188.544C215.207 188.544 215.021 188.438 214.928 188.253C214.395 187.185 208.049 179.577 205.63 178.771C205.355 178.679 205.205 178.38 205.297 178.102C205.39 177.827 205.686 177.677 205.965 177.769C208.739 178.694 215.294 186.622 215.874 187.78C216.004 188.042 215.898 188.358 215.637 188.488C215.561 188.526 215.481 188.544 215.402 188.544Z" fill="#292929"/>
<path d="M214.111 189.261C213.911 189.261 213.72 189.147 213.631 188.954C213.509 188.69 213.624 188.375 213.889 188.253C215.548 187.488 219.199 182.807 220.184 177.458C220.689 174.716 221.533 173.012 222.762 172.25C223.9 171.545 225.159 171.787 226.008 172.029C226.289 172.109 226.451 172.401 226.371 172.681C226.29 172.961 225.999 173.121 225.718 173.045C224.661 172.742 223.922 172.774 223.319 173.148C222.371 173.737 221.665 175.251 221.223 177.65C220.208 183.157 216.403 188.257 214.332 189.212C214.26 189.245 214.185 189.261 214.111 189.261Z" fill="#292929"/>
<path d="M212.247 184.53C212.1 184.53 211.954 184.469 211.849 184.348C211.657 184.128 211.68 183.795 211.901 183.603C215.025 180.887 216.305 176.926 217.462 171.003C218.526 165.55 220.599 162.516 223.622 161.985C223.907 161.931 224.183 162.124 224.234 162.412C224.284 162.7 224.092 162.973 223.805 163.024C221.256 163.473 219.471 166.225 218.499 171.204C217.298 177.354 215.947 181.485 212.594 184.401C212.494 184.488 212.371 184.53 212.247 184.53Z" fill="#292929"/>
<path d="M208.95 180.805C208.846 180.805 208.74 180.774 208.647 180.709C208.409 180.541 208.352 180.211 208.52 179.972C210.074 177.763 212.027 171.446 213.595 166.369C214.768 162.573 215.781 159.295 216.514 157.951C216.654 157.695 216.975 157.6 217.23 157.741C217.487 157.88 217.581 158.201 217.441 158.457C216.759 159.708 215.712 163.095 214.604 166.681C212.931 172.096 211.034 178.234 209.384 180.581C209.28 180.727 209.117 180.805 208.95 180.805Z" fill="#292929"/>
<path d="M68.3977 271.146C68.2772 271.146 68.1558 271.105 68.0565 271.021C67.8336 270.831 67.8072 270.499 67.9963 270.276C71.2167 266.488 77.6956 259.624 77.7611 259.555C77.9607 259.344 78.2945 259.333 78.5068 259.534C78.7191 259.734 78.7286 260.068 78.5279 260.281C78.4635 260.349 72.0036 267.193 68.8011 270.96C68.6966 271.084 68.5476 271.146 68.3977 271.146Z" fill="#292929"/>
<path d="M173.907 234.181C171.794 238.142 170.572 244.566 171.002 245.139C171.432 245.713 187.11 246.988 197.804 254.645C200.241 255.791 201.019 244.501 200.639 243.195C199.635 239.755 175.197 232.748 173.907 234.181Z" fill="#292929"/>
<path d="M114.262 254.33C114.139 254.33 114.015 254.287 113.915 254.2C113.866 254.159 109.051 249.978 106.812 248.486C106.569 248.324 106.503 247.996 106.665 247.754C106.826 247.511 107.153 247.445 107.397 247.607C109.693 249.136 114.409 253.229 114.609 253.403C114.828 253.595 114.852 253.927 114.661 254.148C114.556 254.268 114.409 254.33 114.262 254.33Z" fill="#FEFEFE"/>
<path d="M131.669 252.182C131.534 252.182 131.399 252.13 131.295 252.027C131.089 251.82 131.089 251.487 131.295 251.281C133.314 249.262 135.893 247.715 137.599 246.69C138.023 246.437 138.386 246.219 138.662 246.04C138.907 245.88 139.235 245.95 139.393 246.194C139.552 246.439 139.482 246.765 139.238 246.925C138.953 247.11 138.579 247.334 138.143 247.596C136.48 248.594 133.969 250.101 132.043 252.027C131.94 252.13 131.804 252.182 131.669 252.182Z" fill="#FEFEFE"/>
<path d="M116.318 177.12C115.76 171.909 111.653 166.568 106.776 169.684C102.535 172.392 101.244 179.683 105.126 183.139C106.778 184.61 109.452 185.298 111.687 184.861C115.441 184.125 116.696 180.652 116.318 177.12Z" fill="#FAAD3A"/>
<path d="M127.083 66.2652C123.231 66.2652 119.367 66.4342 115.596 66.768C56.7646 71.9773 19.9635 105.067 6.21775 165.117C0.175074 191.511 -5.00044 253.665 17.5669 277.326C41.7229 302.65 60.1118 305.469 99.3665 306.208C112.921 306.465 124.303 306.894 134.345 307.273C146.019 307.714 156.101 308.095 166.387 308.095C166.387 308.095 166.388 308.095 166.389 308.095C174.541 308.095 182.013 307.859 189.904 307.353L192.343 307.2C221.682 305.373 266.017 302.611 270.82 237.519C274.552 186.914 261.042 143.498 231.751 111.965C205.168 83.3486 166.04 66.2652 127.083 66.2652ZM166.389 309.151C166.388 309.151 166.388 309.151 166.387 309.151C156.081 309.151 145.989 308.77 134.304 308.328C124.268 307.95 112.891 307.52 99.3475 307.265C59.7791 306.519 41.2349 303.669 16.8033 278.054C-6.06089 254.084 -0.895939 191.456 5.18793 164.881C19.0478 104.334 56.1636 70.9697 115.504 65.716C119.304 65.3801 123.2 65.209 127.083 65.209C166.328 65.209 205.746 82.4192 232.524 111.246C253.093 133.389 276.617 173.283 271.873 237.597C267.003 303.608 222.113 306.404 192.41 308.254L189.972 308.409C182.059 308.915 174.564 309.151 166.389 309.151Z" fill="#292929"/>
<path d="M181.067 91.6541C188.224 89.7867 211.101 85.4287 223.085 82.9392C235.068 80.4475 248.141 78.7364 249.853 79.5149C251.564 80.2933 232.577 104.259 223.707 113.752C220.751 115.775 216.704 112.04 216.704 112.04C208.301 120.755 198.807 124.023 197.252 124.335C195.695 124.645 194.916 114.998 194.76 109.238C194.605 103.481 195.627 102.359 190.871 100.057C176.086 92.8973 181.067 91.6541 181.067 91.6541Z" fill="#40BDDE"/>
<path d="M197.251 124.863C197.02 124.863 196.806 124.709 196.742 124.474C196.666 124.192 196.832 123.902 197.113 123.826C197.893 123.542 200.733 118.942 202.807 115.583C205.035 111.973 207.14 108.563 208.395 107.31C210.757 104.947 232.526 90.0869 241.767 83.833L196.514 101.793C196.243 101.9 195.936 101.768 195.827 101.497C195.721 101.226 195.853 100.92 196.123 100.812L245.923 81.0477C246.184 80.9421 246.484 81.0646 246.6 81.3223C246.715 81.5811 246.606 81.8842 246.354 82.011C244.816 82.8264 211.613 105.586 209.142 108.056C207.975 109.224 205.804 112.739 203.706 116.138C200.101 121.978 198.413 124.565 197.392 124.844C197.344 124.857 197.297 124.863 197.251 124.863Z" fill="#292929"/>
<path d="M217.638 113.191C217.53 113.191 217.421 113.158 217.327 113.09L217.099 112.923C213.908 110.591 209.937 107.68 209.005 108.155C208.745 108.284 208.428 108.179 208.297 107.918C208.166 107.657 208.271 107.341 208.532 107.21C209.97 106.492 212.817 108.483 217.724 112.07L217.95 112.236C218.186 112.409 218.237 112.74 218.065 112.974C217.961 113.116 217.801 113.191 217.638 113.191Z" fill="#292929"/>
<path d="M258.253 198.358C252.269 198.906 248.87 202.624 249.47 213.203C250.069 223.784 247.672 234.706 251.865 238.799C256.058 242.896 266.637 242.898 276.42 243.067C286.203 243.236 298.873 242.949 302.624 242.896C311.458 242.768 314.601 241.233 315.8 234.32C316.505 230.252 314.812 207.299 314.752 204.885C314.601 198.87 310.709 198.101 302.174 197.718C293.992 197.349 263.844 197.845 258.253 198.358Z" fill="#FAAD3A"/>
<path d="M282.283 226.369C282.244 226.369 282.204 226.367 282.165 226.367C277.955 226.304 274.53 222.762 272.018 219.682C267.376 213.986 256.931 202.312 254.392 200.141C254.171 199.952 254.144 199.618 254.334 199.397C254.522 199.175 254.856 199.151 255.078 199.339C257.65 201.537 268.171 213.291 272.837 219.013C275.204 221.915 278.406 225.254 282.181 225.311C284.882 225.328 287.704 223.69 290.577 220.375C298.485 211.252 310.22 199.759 310.338 199.644C310.548 199.44 310.883 199.444 311.084 199.652C311.289 199.86 311.285 200.195 311.076 200.399C310.959 200.514 299.255 211.976 291.375 221.066C288.286 224.632 285.309 226.369 282.283 226.369Z" fill="#292929"/>
<path d="M251.865 239.327C251.67 239.327 251.484 239.22 251.391 239.034C251.262 238.773 251.368 238.457 251.629 238.327C253.002 237.642 260.005 231.033 265.117 226.207C269.353 222.21 271.777 219.93 272.351 219.58C272.6 219.426 272.925 219.506 273.077 219.755C273.229 220.003 273.151 220.328 272.901 220.481C272.395 220.791 269.212 223.795 265.842 226.976C258.914 233.515 253.503 238.574 252.1 239.271C252.024 239.31 251.944 239.327 251.865 239.327Z" fill="#292929"/>
<path d="M311.559 241.034C311.38 241.034 311.204 240.941 311.104 240.773C310.767 240.201 306.834 235.939 303.029 231.817C298.007 226.377 292.815 220.752 292.029 219.505C291.874 219.258 291.947 218.931 292.194 218.776C292.443 218.62 292.767 218.697 292.922 218.941C293.656 220.107 299.048 225.948 303.806 231.101C308.652 236.351 311.641 239.6 312.016 240.239C312.164 240.491 312.079 240.813 311.827 240.962C311.743 241.011 311.651 241.034 311.559 241.034Z" fill="#292929"/>
<path d="M501.171 64.9707C498.266 52.6477 471.508 36.8054 460.066 41.2067C448.624 45.6069 463.235 50.7116 463.235 50.7116C445.631 47.543 437.182 49.6544 435.421 54.0567C433.66 58.457 441.054 60.2177 441.054 60.2177C429.084 60.5694 415.705 69.9001 417.641 76.4128C419.577 82.9266 427.499 80.5501 427.499 80.5501C416.232 89.6157 418.07 98.8355 429.826 97.7465C417.465 107.043 415.706 124.119 420.458 130.28C425.21 136.442 429.824 127.116 429.824 127.116C424.859 140.843 432.251 149.821 439.293 138.379C437.71 154.046 451.616 156.158 456.017 148.413C460.242 163.376 470.276 161.087 472.037 153.694C477.495 160.559 488.232 158.271 490.345 150.877C496.33 157.919 501.612 151.493 501.083 146.036C507.244 153.253 516.927 154.133 518.863 141.019C527.664 147.533 532.066 147.357 529.689 131.777C544.389 137.146 552.134 120.774 535.234 106.692C546.501 109.684 545.269 98.0655 529.161 91.1124C540.516 90.8483 541.924 83.1019 536.291 77.3814C530.658 71.6598 521.152 60.5694 501.171 64.9707Z" fill="#292929"/>
<path d="M445.222 95.0401C443.502 105.358 446.56 108.418 449.617 115.68C452.675 122.941 448.4 130.594 456.545 139.661C464.141 148.118 475.607 147.593 475.607 147.593L478.855 160.779L506.947 153.516L500.833 127.049C500.833 127.049 506.565 123.897 504.846 112.621C503.126 101.346 502.935 73.4465 475.607 77.6503C448.279 81.8531 447.707 86.8216 445.222 95.0401Z" fill="#FEFEFE"/>
<path d="M475.607 147.065C475.848 147.065 476.062 147.23 476.119 147.467L479.239 160.134L506.317 153.135L500.317 127.169C500.266 126.939 500.371 126.701 500.577 126.587C500.63 126.559 505.96 123.428 504.323 112.701C504.146 111.545 503.986 110.212 503.81 108.757C502.414 97.1608 500.076 77.7515 480.892 77.7515C479.256 77.7515 477.505 77.8931 475.687 78.173C449.612 82.1835 448.243 86.7707 445.973 94.3702L445.727 95.193C444.386 103.268 446.044 106.762 448.338 111.596C448.911 112.801 449.502 114.047 450.103 115.476C451.281 118.271 451.403 121.053 451.531 123.998C451.741 128.799 451.957 133.764 456.938 139.31C463.575 146.697 473.321 147.071 475.208 147.071C475.716 147.071 475.591 147.065 475.607 147.065ZM478.855 161.308C478.76 161.308 478.667 161.282 478.585 161.233C478.463 161.161 478.376 161.044 478.343 160.906L475.194 148.127C473.199 148.126 463.074 147.719 456.152 140.015C450.919 134.188 450.683 128.799 450.476 124.044C450.352 121.196 450.233 118.506 449.131 115.886C448.538 114.479 447.952 113.244 447.385 112.049C445.097 107.229 443.29 103.422 444.701 94.9543L444.962 94.0681C447.35 86.0693 448.79 81.2413 475.527 77.1294C477.397 76.8411 479.202 76.6953 480.892 76.6953C501.012 76.6953 503.421 96.6865 504.859 108.63C505.033 110.073 505.192 111.395 505.367 112.543C506.897 122.568 502.7 126.385 501.43 127.291L507.462 153.398C507.526 153.676 507.356 153.956 507.079 154.028L478.987 161.291C478.944 161.302 478.899 161.308 478.855 161.308Z" fill="#292929"/>
<path d="M511.333 102.991C510.379 97.2321 509.209 91.7851 506.233 86.654C504.397 83.4906 502.74 80.2342 499.637 78.126C490.92 72.2016 479.181 72.5565 469.261 74.614C461.382 76.2491 452.612 79.0407 446.507 84.4718C444.478 86.2758 436.262 94.4669 441.583 96.8328C444.699 98.2197 448.133 95.2781 450.483 93.2934C450.589 93.5923 450.756 93.9134 451 94.281C452.585 96.6575 456.546 96.9216 459.186 96.3935C466.052 95.3372 472.653 90.8483 477.67 85.8312C476.614 87.4155 475.294 89.528 475.822 91.6404C476.878 94.017 479.255 94.281 481.367 94.281C485.856 94.017 490.081 90.3202 493.25 87.4155C490.609 92.4326 487.704 97.4497 487.44 103.259C487.176 105.9 487.44 108.804 488.497 111.181C489.817 114.349 492.721 114.349 495.362 112.501C494.042 116.726 493.25 120.687 495.098 124.912C496.2 127.43 499.675 131.689 504.516 130.809C508.383 130.106 509.099 121.036 510.501 117.87C513.117 111.961 512.398 109.423 511.333 102.991Z" fill="#292929"/>
<path d="M439.928 98.7298C437.563 98.7298 435.276 97.8891 434.639 95.4914C434.267 94.0983 434.488 92.4104 434.819 91.294C435.459 89.1203 437.434 86.0435 439.221 84.4359C439.435 84.2405 439.769 84.2574 439.967 84.475C440.161 84.6915 440.144 85.0263 439.927 85.2207C438.292 86.6931 436.416 89.6114 435.832 91.594C435.541 92.572 435.345 94.0381 435.661 95.22C436.454 98.1996 440.662 97.681 441.498 97.5448C444.003 97.1413 445.859 96.5677 447.341 95.7386C447.595 95.5981 447.918 95.6879 448.061 95.9425C448.203 96.197 448.112 96.5191 447.857 96.6607C446.264 97.5521 444.296 98.1637 441.665 98.5872C441.097 98.6791 440.51 98.7298 439.928 98.7298Z" fill="#FEFEFE"/>
<path d="M467.801 129.75C467.791 129.75 467.782 129.75 467.772 129.749C464.297 129.557 462.125 128.754 461.133 127.293C459.899 125.479 460.687 123.111 461.45 120.821C461.598 120.374 461.747 119.928 461.878 119.492C463.049 115.588 460.368 110.876 457.382 108.15C455.025 105.999 452.021 105.594 450.09 106.146C448.993 106.46 448.24 107.078 448.025 107.844C447.945 108.124 447.658 108.287 447.372 108.209C447.092 108.129 446.929 107.837 447.008 107.557C447.326 106.431 448.342 105.547 449.799 105.13C452.014 104.497 455.437 104.944 458.094 107.371C461.424 110.41 464.198 115.431 462.889 119.795C462.756 120.242 462.604 120.697 462.452 121.154C461.771 123.2 461.066 125.317 462.006 126.699C462.79 127.853 464.75 128.524 467.83 128.695C468.122 128.711 468.344 128.96 468.328 129.251C468.313 129.532 468.079 129.75 467.801 129.75Z" fill="#292929"/>
<path d="M466.185 106.406C466.07 106.406 465.953 106.368 465.856 106.292C465.628 106.11 465.59 105.777 465.771 105.549C467.615 103.22 472.956 98.4015 482.686 103.941C482.94 104.085 483.028 104.407 482.885 104.662C482.74 104.914 482.417 105.003 482.164 104.859C473.471 99.9109 468.682 103.578 466.599 106.205C466.494 106.337 466.34 106.406 466.185 106.406Z" fill="#292929"/>
<path d="M478.592 114.569C479.476 116.22 479.434 117.968 478.493 118.472C477.554 118.978 476.071 118.049 475.185 116.397C474.299 114.749 474.346 113.001 475.283 112.498C476.225 111.993 477.705 112.92 478.592 114.569Z" fill="#292929"/>
<path d="M475.931 113.284C475.846 113.284 475.761 113.264 475.682 113.223L472.692 111.63C472.435 111.493 472.337 111.173 472.474 110.916C472.613 110.657 472.934 110.563 473.19 110.698L476.18 112.29C476.436 112.428 476.535 112.747 476.397 113.004C476.302 113.183 476.12 113.284 475.931 113.284Z" fill="#292929"/>
<path d="M458.671 116.289C459.554 117.939 459.512 119.687 458.571 120.192C457.632 120.697 456.149 119.767 455.264 118.115C454.376 116.468 454.423 114.72 455.362 114.217C456.304 113.712 457.784 114.637 458.671 116.289Z" fill="#292929"/>
<path d="M456.009 115.003C455.925 115.003 455.84 114.982 455.761 114.941L452.771 113.349C452.514 113.211 452.416 112.891 452.553 112.633C452.69 112.376 453.011 112.281 453.268 112.416L456.258 114.009C456.515 114.146 456.612 114.465 456.476 114.723C456.381 114.901 456.198 115.003 456.009 115.003Z" fill="#292929"/>
<path d="M465.745 132.533C467.433 135.817 469.45 137.679 471.35 137.679C474.074 137.679 476.232 133.955 476.969 128.093C470.349 132.306 468.133 132.702 465.745 132.533ZM471.35 138.735C468.83 138.735 466.354 136.396 464.38 132.147C464.3 131.974 464.318 131.773 464.428 131.617C464.537 131.463 464.719 131.38 464.911 131.398C465.452 131.452 466.011 131.508 466.559 131.508C468.597 131.508 471.012 130.706 477.326 126.608C477.496 126.497 477.713 126.495 477.887 126.598C478.06 126.703 478.158 126.897 478.139 127.099C477.479 134.277 474.878 138.735 471.35 138.735Z" fill="#292929"/>
<path d="M469.874 138.326C469.829 138.326 469.782 138.321 469.735 138.308C469.454 138.231 469.288 137.941 469.365 137.659C470.296 134.246 474.087 131.696 476.582 131.843C476.872 131.862 477.094 132.112 477.076 132.404C477.057 132.694 476.832 132.916 476.515 132.898C474.392 132.762 471.168 135.067 470.385 137.937C470.32 138.172 470.107 138.326 469.874 138.326Z" fill="#292929"/>
<path d="M406.382 228.091C411.398 223.22 435.333 191.546 444.649 180.222C453.965 168.899 464.714 168.613 479.334 168.469C475.734 154.046 476.69 153.727 477.407 153.869C478.123 154.013 491.78 156.992 505.397 147.532C509.005 146.564 508.858 161.018 512.298 162.88C515.738 164.744 538.669 160.013 549.993 171.337C561.315 182.659 569.197 209.461 569.197 209.461C563.034 219.35 521.184 250.45 468.584 236.119C467.581 231.675 460.414 224.795 458.265 216.054C449.379 227.663 443.072 236.261 443.072 236.261C443.072 236.261 414.838 234.398 406.382 228.091Z" fill="#FAAD3A"/>
<path d="M490.302 172.813C484.543 172.813 480.53 170.484 478.952 168.835C478.751 168.623 478.758 168.29 478.969 168.088C479.18 167.886 479.513 167.895 479.716 168.105C482.677 171.201 494.827 176.763 511.231 162.199C511.449 162.005 511.783 162.024 511.976 162.244C512.171 162.461 512.151 162.795 511.932 162.989C503.452 170.519 496.016 172.813 490.302 172.813Z" fill="#292929"/>
<path d="M487.265 172.678C487.038 172.678 486.829 172.531 486.759 172.303C486.569 171.675 482.065 156.877 481.591 154.781C481.526 154.496 481.704 154.213 481.989 154.149C482.274 154.084 482.555 154.263 482.621 154.547C483.088 156.606 487.723 171.843 487.771 171.996C487.856 172.275 487.698 172.571 487.419 172.655C487.368 172.671 487.316 172.678 487.265 172.678Z" fill="#292929"/>
<path d="M493.474 172.582C493.249 172.582 493.041 172.437 492.969 172.211L487.429 154.535C487.342 154.257 487.497 153.96 487.775 153.873C488.053 153.788 488.35 153.941 488.437 154.219L493.978 171.895C494.065 172.174 493.911 172.47 493.632 172.557C493.58 172.573 493.527 172.582 493.474 172.582Z" fill="#292929"/>
<path d="M499.972 170.67C499.75 170.67 499.543 170.529 499.47 170.307L493.928 153.395C493.838 153.118 493.989 152.819 494.266 152.728C494.538 152.637 494.841 152.79 494.933 153.066L500.475 169.978C500.566 170.255 500.414 170.553 500.137 170.644C500.082 170.662 500.027 170.67 499.972 170.67Z" fill="#292929"/>
<path d="M505.898 167.613C505.67 167.613 505.46 167.464 505.391 167.234L500.709 151.374C500.625 151.094 500.786 150.8 501.065 150.718C501.344 150.633 501.638 150.794 501.722 151.075L506.404 166.935C506.486 167.215 506.327 167.509 506.047 167.591C505.997 167.606 505.948 167.613 505.898 167.613Z" fill="#292929"/>
<path d="M475.759 148.22C475.703 148.22 475.647 148.219 475.592 148.218C475.302 148.211 475.07 147.968 475.078 147.677C475.085 147.385 475.298 147.16 475.62 147.161C479.362 147.292 489.419 144.006 495.835 136.082C496.019 135.854 496.351 135.821 496.577 136.003C496.804 136.187 496.839 136.52 496.657 136.746C490.104 144.839 479.785 148.22 475.759 148.22Z" fill="#292929"/>
<path d="M460.271 221.885C460.068 221.885 459.875 221.767 459.787 221.569C456.29 213.616 456.018 205.682 456.018 203.441C456.018 203.149 456.254 202.913 456.546 202.913C456.837 202.913 457.074 203.149 457.074 203.441C457.074 205 457.251 213.18 460.755 221.144C460.873 221.411 460.751 221.722 460.484 221.841C460.415 221.87 460.343 221.885 460.271 221.885Z" fill="#292929"/>
<path d="M537.237 231.917C537.008 231.917 536.798 231.767 536.73 231.537C536.683 231.375 531.979 215.279 529.998 209.194C529.908 208.918 530.06 208.62 530.336 208.529C530.619 208.44 530.912 208.591 531.002 208.868C532.989 214.967 537.697 231.078 537.743 231.24C537.826 231.521 537.665 231.814 537.385 231.895C537.336 231.91 537.285 231.917 537.237 231.917Z" fill="#292929"/>
<path d="M502.607 131.737C500.97 131.737 499.08 131.194 497.054 130.133C496.795 129.997 496.696 129.678 496.831 129.42C496.967 129.16 497.288 129.063 497.544 129.197C499.955 130.46 502.118 130.932 503.785 130.558C507.713 129.665 509.345 122.781 509.345 119.295C509.345 119.069 509.49 118.867 509.703 118.794C509.917 118.722 510.154 118.794 510.293 118.973C512.089 121.309 514.203 122.398 516.945 122.398C519.62 122.218 522.205 119.258 522.537 116.928C522.58 116.639 522.852 116.434 523.134 116.48C523.423 116.521 523.624 116.788 523.583 117.078C523.188 119.849 520.217 123.238 516.98 123.453C516.978 123.453 516.976 123.453 516.975 123.453C514.333 123.453 512.159 122.534 510.343 120.65C509.98 124.973 507.945 130.697 504.016 131.588C503.572 131.687 503.102 131.737 502.607 131.737Z" fill="#FEFEFE"/>
<path d="M461.814 1.05623C443.845 1.05623 423.54 3.41584 401.466 8.06853C354.802 17.9062 307.429 36.7303 309.885 101.762C312.38 167.842 336.762 207.181 384.425 222.031C406.305 228.848 443.948 235.727 478.725 235.728C478.729 235.728 478.734 235.728 478.737 235.728C510.093 235.728 550.232 230.229 563.409 204.035C576.674 177.664 578.967 147.289 578.554 126.451C578.078 102.534 573.662 78.2549 567.028 63.0874C559.606 46.1223 539.892 1.05623 461.814 1.05623ZM478.737 236.784C478.732 236.784 478.73 236.784 478.725 236.784C441.448 236.783 404.46 229.379 384.111 223.039C335.968 208.041 311.343 168.384 308.829 101.802C307.662 70.8581 318.219 46.9567 340.21 30.7616C358.414 17.3549 381.281 11.2446 401.248 7.03554C423.394 2.36701 443.771 0 461.814 0C494.35 0 520.397 7.67983 539.232 22.824C554.73 35.2854 562.745 50.6609 567.995 62.6639C574.682 77.9507 579.132 102.384 579.61 126.429C580.025 147.387 577.716 177.945 564.351 204.509C550.934 231.182 510.39 236.784 478.737 236.784Z" fill="#292929"/>
<path d="M356.065 54.7061H314.661C307.464 54.7061 301.964 60.8966 302.404 68.38L303.52 87.4027C303.926 94.3357 309.734 99.7732 316.468 99.6707L346.426 99.2197C347.991 103.868 349.135 108.391 352.132 108.17C354.276 107.96 355.194 103.425 355.805 99.0497C362.088 98.6599 367.262 93.3048 367.498 86.7024L368.172 68.0811C368.437 60.7582 363.031 54.7061 356.065 54.7061Z" fill="#FEFEFE"/>
<path d="M346.427 98.6914C346.654 98.6914 346.855 98.8351 346.928 99.0516C347.084 99.5153 347.236 99.979 347.386 100.436C348.691 104.406 349.837 107.818 352.093 107.644C354.101 107.446 354.958 101.293 355.282 98.9755C355.317 98.7273 355.522 98.5372 355.773 98.5224C361.828 98.1464 366.747 92.9466 366.971 86.6832L367.645 68.0619C367.772 64.5425 366.504 61.1319 364.164 58.7068C362.004 56.4676 359.129 55.234 356.066 55.234H314.662C311.457 55.234 308.48 56.5194 306.278 58.8537C303.943 61.3305 302.723 64.7918 302.932 68.3491L304.048 87.3718C304.428 93.8623 309.915 99.1435 316.281 99.1435L316.461 99.1424L346.419 98.6914C346.422 98.6914 346.424 98.6914 346.427 98.6914ZM351.924 108.707C348.989 108.707 347.781 105.026 346.383 100.766C346.273 100.43 346.162 100.092 346.049 99.7529L316.281 100.2C309.249 100.2 303.413 94.5922 302.994 87.4341L301.877 68.4115C301.652 64.5647 302.976 60.8161 305.51 58.1291C307.913 55.5804 311.163 54.1777 314.662 54.1777H356.066C359.418 54.1777 362.564 55.5255 364.925 57.9738C367.462 60.6038 368.838 64.2953 368.701 68.0999L368.027 86.7212C367.789 93.3722 362.661 98.9196 356.269 99.5417C355.597 104.207 354.614 108.457 352.183 108.696C352.088 108.703 352.005 108.707 351.924 108.707Z" fill="#292929"/>
<path d="M322.637 77.7704C322.637 80.0656 320.819 81.9267 318.578 81.9267C316.336 81.9267 314.518 80.0656 314.518 77.7704C314.518 75.4742 316.336 73.6141 318.578 73.6141C320.819 73.6141 322.637 75.4742 322.637 77.7704Z" fill="#40BDDE"/>
<path d="M338.685 77.7704C338.685 80.0656 336.867 81.9267 334.625 81.9267C332.383 81.9267 330.566 80.0656 330.566 77.7704C330.566 75.4742 332.383 73.6141 334.625 73.6141C336.867 73.6141 338.685 75.4742 338.685 77.7704Z" fill="#40BDDE"/>
<path d="M354.731 77.7705C354.731 80.0657 352.914 81.9268 350.673 81.9268C348.429 81.9268 346.612 80.0657 346.612 77.7705C346.612 75.4743 348.429 73.6143 350.673 73.6143C352.914 73.6143 354.731 75.4743 354.731 77.7705Z" fill="#40BDDE"/>
<path d="M489.231 412.417H448.12C447.829 412.417 447.592 412.181 447.592 411.889C447.592 411.597 447.829 411.361 448.12 411.361H489.231C489.524 411.361 489.759 411.597 489.759 411.889C489.759 412.181 489.524 412.417 489.231 412.417Z" fill="#292929"/>
<path d="M367.734 262.778C355.551 256.904 353.258 243.717 371.03 238.7C358.56 223.365 371.173 214.479 379.63 212.758C388.086 211.039 404.855 215.339 421.05 229.241C437.246 243.143 444.269 243.86 449.141 254.753C454.015 265.646 451.722 274.102 446.847 285.138C441.975 296.174 441.401 299.613 450.861 308.499C460.32 317.386 468.059 326.272 461.468 343.041C454.875 359.81 376.046 353.647 372.32 342.18C368.593 330.715 377.479 288.72 377.479 288.72L367.734 262.778Z" fill="#292929"/>
<path d="M358.704 331.43C356.841 323.261 359.004 304.504 375.329 295.169C387.237 288.361 393.532 297.893 393.532 297.893L395.396 329.281C395.396 329.281 362.717 331.574 358.704 331.43Z" fill="#292929"/>
<path d="M266.976 284.278C265.544 282.271 263.398 279.526 261.391 280.959C259.385 282.392 262.579 294.03 271.563 292.59C269.269 289.151 266.976 284.278 266.976 284.278Z" fill="#FEFEFE"/>
<path d="M262.567 281.088C262.265 281.088 261.981 281.187 261.699 281.388C261.306 281.668 261.122 283.178 261.796 285.282C262.864 288.618 265.596 292.184 270.058 292.184H270.059C270.255 292.184 270.456 292.177 270.658 292.164C268.532 288.806 266.521 284.548 266.499 284.502C265.8 283.538 264.051 281.088 262.567 281.088ZM270.059 293.24H270.058C265.023 293.24 261.918 289.126 260.79 285.604C260.204 283.778 259.932 281.353 261.085 280.529C261.546 280.199 262.045 280.032 262.567 280.032C264.349 280.032 265.946 281.925 267.407 283.97C267.479 284.101 269.759 288.931 272.003 292.297C272.104 292.446 272.121 292.636 272.048 292.801C271.976 292.966 271.825 293.083 271.648 293.111C271.111 293.197 270.577 293.24 270.059 293.24Z" fill="#292929"/>
<path d="M292.345 285.567C287.472 283.99 284.318 280.121 285.896 276.967C287.472 273.815 292.632 277.971 296.215 280.837C299.799 283.704 303.239 284.277 303.239 284.277C303.239 284.277 297.934 287 292.345 285.567Z" fill="#FEFEFE"/>
<path d="M287.702 276.367C287.077 276.367 286.654 276.633 286.369 277.204C285.902 278.135 285.893 279.153 286.343 280.226C287.195 282.256 289.556 284.11 292.507 285.065C293.512 285.321 294.615 285.456 295.755 285.456C298.153 285.456 300.283 284.861 301.603 284.386C300.221 283.929 298.085 283.01 295.885 281.25C293.27 279.157 289.781 276.367 287.702 276.367ZM295.755 286.512C294.526 286.512 293.335 286.367 292.214 286.079C288.947 285.023 286.337 282.939 285.369 280.634C284.803 279.284 284.822 277.935 285.423 276.731C285.888 275.801 286.676 275.311 287.702 275.311C290.152 275.311 293.659 278.116 296.477 280.37C299.968 283.162 303.293 283.751 303.326 283.757C303.549 283.795 303.725 283.972 303.76 284.197C303.794 284.422 303.681 284.643 303.479 284.746C303.339 284.819 299.992 286.512 295.755 286.512Z" fill="#292929"/>
<path d="M297.457 329.569C297.076 321.159 296.12 304.343 294.783 298.992C293.444 293.642 285.034 295.168 284.462 294.979C283.889 294.788 273.426 298.753 268.266 288.291C263.106 277.827 267.263 273.957 270.13 274.96C271.133 271.521 274 272.524 275.575 274.244C277.01 271.234 281.165 274.389 282.168 278.258C283.172 282.128 284.175 285.567 292.201 284.563C300.228 283.56 310.116 281.267 313.986 292.876C317.856 304.486 321.01 322.544 321.01 322.544C321.01 322.544 319.482 334.013 297.457 329.569Z" fill="#FEFEFE"/>
<path d="M297.965 329.132C301.14 329.751 304.058 330.064 306.642 330.064C318.66 330.064 320.324 323.32 320.474 322.545C320.227 321.154 317.159 304.065 313.486 293.044C310.877 285.218 305.504 284.215 301.115 284.215C298.795 284.215 296.392 284.538 294.068 284.851C293.46 284.933 292.857 285.013 292.266 285.087C291.309 285.208 290.418 285.268 289.615 285.268C283.441 285.268 282.494 281.613 281.657 278.391C280.954 275.677 278.726 273.573 277.279 273.573C276.742 273.573 276.34 273.867 276.052 274.471C275.977 274.63 275.827 274.741 275.654 274.766C275.477 274.793 275.305 274.731 275.186 274.601C274.39 273.733 273.382 273.194 272.553 273.194C271.652 273.194 271.007 273.839 270.637 275.108C270.595 275.248 270.499 275.364 270.37 275.43C270.242 275.497 270.091 275.505 269.955 275.459C268.919 275.099 267.758 275.573 267.084 276.658C266.419 277.728 265.25 280.979 268.74 288.058C271.023 292.686 274.668 295.032 279.577 295.032C281.283 295.032 282.72 294.746 283.577 294.574C283.984 294.493 284.229 294.443 284.403 294.443C284.459 294.443 284.575 294.459 284.628 294.477C284.825 294.468 285.041 294.457 285.312 294.442C285.779 294.418 286.396 294.386 287.092 294.386C291.792 294.386 294.552 295.894 295.295 298.865C296.732 304.613 297.681 322.967 297.965 329.132ZM306.642 331.12C303.878 331.12 300.753 330.772 297.353 330.087C297.115 330.038 296.941 329.836 296.929 329.593C296.672 323.907 295.717 304.909 294.271 299.122C293.659 296.681 291.245 295.443 287.092 295.443C286.417 295.443 285.819 295.473 285.367 295.498C284.843 295.524 284.553 295.536 284.376 295.502C284.262 295.51 284.06 295.556 283.785 295.61C282.888 295.789 281.388 296.088 279.577 296.088C274.308 296.088 270.233 293.473 267.793 288.523C264.202 281.243 265.246 277.615 266.187 276.101C267.017 274.766 268.414 274.089 269.785 274.328C270.513 272.436 271.809 272.138 272.553 272.138C273.508 272.138 274.566 272.603 275.475 273.407C275.935 272.829 276.557 272.517 277.279 272.517C279.381 272.517 281.905 275.138 282.68 278.125C283.527 281.391 284.259 284.212 289.615 284.212C290.373 284.212 291.221 284.155 292.135 284.04C292.723 283.967 293.322 283.886 293.927 283.805C296.285 283.487 298.723 283.159 301.115 283.159C305.488 283.159 311.634 284.149 314.488 292.709C318.326 304.223 321.499 322.272 321.53 322.454C321.539 322.506 321.54 322.561 321.533 322.615C321.521 322.7 320.24 331.12 306.642 331.12Z" fill="#292929"/>
<path d="M272.349 293.898C272.236 293.898 272.123 293.862 272.027 293.788C268.781 291.281 266.629 287.533 265.628 282.65C265.568 282.364 265.752 282.085 266.038 282.026C266.328 281.968 266.603 282.152 266.662 282.438C267.611 287.065 269.634 290.603 272.673 292.953C272.904 293.131 272.946 293.462 272.768 293.693C272.664 293.828 272.508 293.898 272.349 293.898Z" fill="#292929"/>
<path d="M285.896 291.972C285.888 291.972 285.88 291.972 285.873 291.972C282.92 291.843 280.475 290.581 278.606 288.218C275.029 283.7 274.624 276.419 275.057 274.145C275.111 273.86 275.384 273.669 275.675 273.726C275.961 273.78 276.149 274.056 276.094 274.344C275.701 276.408 276.116 283.371 279.434 287.562C281.105 289.674 283.286 290.803 285.918 290.916C286.21 290.93 286.436 291.176 286.423 291.466C286.41 291.75 286.177 291.972 285.896 291.972Z" fill="#292929"/>
<path d="M280.307 295.841C280.292 295.841 280.277 295.84 280.262 295.839C277.504 295.609 275.201 294.323 273.419 292.017C269.203 286.558 269.227 277.069 269.609 274.871C269.66 274.582 269.931 274.386 270.221 274.441C270.508 274.491 270.7 274.764 270.651 275.051C270.285 277.149 270.255 286.191 274.256 291.371C275.848 293.433 277.899 294.583 280.35 294.787C280.641 294.81 280.857 295.067 280.833 295.357C280.81 295.633 280.578 295.841 280.307 295.841Z" fill="#292929"/>
<path d="M379.631 339.027C384.36 341.176 398.119 346.05 423.058 339.743C422.198 356.943 420.479 393.204 420.479 393.204C420.479 393.204 399.696 404.957 385.793 400.083C381.924 393.49 379.631 339.027 379.631 339.027Z" fill="#292929"/>
<path d="M383.887 325.418C388.043 324.844 392.529 323.262 392.098 316.382C391.668 309.503 390.522 300.473 390.522 300.473C379.773 300.33 369.166 294.74 364.294 283.704C359.421 272.669 365.87 266.936 369.454 255.469C373.037 244.004 379.773 234.544 394.822 235.548C409.871 236.55 417.897 243.717 417.897 243.717C415.317 257.189 412.737 276.252 418.326 277.399C423.916 278.545 425.35 268.656 425.35 268.656C433.806 264.499 442.664 269.557 439.252 276.968C435.096 285.997 425.207 281.411 425.207 281.411C423.201 286.571 414.745 292.303 414.745 292.303C416.034 302.91 417.318 320.455 425.344 321.457C422.047 338.227 420.334 344.331 420.334 344.331C420.334 344.331 391.526 351.354 381.063 341.034C381.493 337.452 383.887 325.418 383.887 325.418Z" fill="#FEFEFE"/>
<path d="M381.619 340.838C385.334 344.355 391.734 346.135 400.646 346.135C409.583 346.135 418.203 344.276 419.907 343.888C420.277 342.487 421.925 336.06 424.72 321.884C417.439 320.286 415.775 305.831 414.552 295.205C414.439 294.22 414.329 293.268 414.22 292.367C414.196 292.17 414.283 291.977 414.448 291.865C414.53 291.81 422.79 286.165 424.714 281.219C424.766 281.083 424.874 280.976 425.009 280.921C425.144 280.866 425.297 280.871 425.428 280.931C425.452 280.943 427.877 282.047 430.74 282.047C434.451 282.047 437.154 280.264 438.772 276.747C439.753 274.616 439.71 272.613 438.646 270.954C437.335 268.908 434.677 267.687 431.534 267.687C429.644 267.687 427.676 268.144 425.827 269.013C425.552 270.593 424.008 278.019 419.207 278.019C418.886 278.019 418.554 277.984 418.22 277.916C413.511 276.949 413.208 265.512 417.319 243.923C415.923 242.795 408.097 236.962 394.785 236.074C382.282 235.243 374.395 241.425 369.958 255.627C368.93 258.911 367.647 261.783 366.515 264.316C363.647 270.734 361.381 275.802 364.776 283.491C369.191 293.488 379.058 299.792 390.529 299.944C390.792 299.948 391.013 300.144 391.045 300.406C391.057 300.496 392.199 309.531 392.624 316.349C393.076 323.576 388.221 325.292 384.332 325.886C383.939 327.876 382.067 337.413 381.619 340.838ZM400.646 347.192C391.296 347.192 384.581 345.246 380.691 341.411C380.575 341.295 380.519 341.133 380.538 340.972C380.965 337.409 383.27 325.806 383.369 325.314C383.412 325.093 383.591 324.925 383.814 324.895C387.877 324.334 391.975 322.888 391.57 316.415C391.202 310.501 390.29 302.906 390.054 300.991C378.362 300.672 368.333 294.163 363.81 283.917C360.226 275.799 362.575 270.542 365.551 263.885C366.726 261.256 367.94 258.537 368.948 255.311C373.491 240.775 381.943 234.158 394.856 235.02C409.914 236.024 417.915 243.025 418.247 243.322C418.386 243.447 418.45 243.634 418.414 243.815C414.543 264.033 414.549 276.084 418.432 276.881C418.696 276.936 418.957 276.963 419.207 276.963C423.561 276.963 424.815 268.664 424.827 268.58C424.852 268.407 424.961 268.259 425.116 268.183C427.181 267.168 429.4 266.631 431.534 266.631C435.039 266.631 438.03 268.034 439.537 270.384C440.784 272.334 440.854 274.75 439.731 277.188C437.481 282.077 433.6 283.103 430.74 283.103C428.408 283.103 426.392 282.446 425.488 282.098C423.356 286.742 416.743 291.55 415.306 292.556C415.403 293.364 415.501 294.211 415.601 295.085C416.815 305.628 418.477 320.067 425.409 320.933C425.553 320.951 425.685 321.029 425.771 321.147C425.856 321.265 425.89 321.414 425.861 321.559C422.598 338.158 420.859 344.412 420.841 344.473C420.79 344.657 420.644 344.799 420.458 344.844C420.362 344.867 410.707 347.192 400.646 347.192Z" fill="#292929"/>
<path d="M380.489 277.353C380.4 277.353 380.31 277.331 380.228 277.284C377.204 275.561 375.618 273.873 375.381 272.122C375.087 269.949 376.849 268.183 378.553 266.474C378.886 266.14 379.218 265.807 379.531 265.474C382.32 262.504 382.024 257.091 380.569 253.317C379.946 251.7 378.892 250.742 377.439 250.471C375.521 250.119 373.452 251.068 372.472 252.146C372.276 252.362 371.943 252.378 371.726 252.182C371.51 251.986 371.495 251.652 371.69 251.436C372.892 250.114 375.317 249.007 377.634 249.432C378.896 249.668 380.603 250.468 381.555 252.938C383.178 257.144 383.42 262.876 380.3 266.198C379.982 266.537 379.642 266.877 379.3 267.219C377.778 268.747 376.205 270.326 376.427 271.981C376.615 273.363 378.069 274.838 380.75 276.366C381.004 276.51 381.092 276.833 380.948 277.086C380.85 277.257 380.672 277.353 380.489 277.353Z" fill="#292929"/>
<path d="M406.383 259.486C406.213 259.486 406.046 259.403 405.945 259.251C400.372 250.94 394.45 252.085 391.414 253.512C391.154 253.635 390.838 253.522 390.712 253.257C390.589 252.993 390.703 252.678 390.967 252.555C393.658 251.295 400.589 249.364 406.822 258.664C406.984 258.906 406.92 259.234 406.677 259.396C406.587 259.457 406.485 259.486 406.383 259.486Z" fill="#292929"/>
<path d="M397.874 267.001C397.316 268.788 396.037 269.981 395.017 269.664C393.999 269.345 393.626 267.637 394.184 265.849C394.741 264.061 396.021 262.869 397.038 263.189C398.057 263.507 398.432 265.211 397.874 267.001Z" fill="#292929"/>
<path d="M397.306 264.358C397.078 264.358 396.867 264.21 396.8 263.98L395.843 260.731C395.761 260.45 395.921 260.158 396.2 260.075C396.484 259.994 396.775 260.151 396.856 260.432L397.813 263.681C397.896 263.961 397.735 264.255 397.456 264.337C397.405 264.352 397.356 264.358 397.306 264.358Z" fill="#292929"/>
<path d="M376.998 263.083C376.439 264.87 375.16 266.063 374.141 265.746C373.123 265.428 372.75 263.719 373.306 261.932C373.865 260.143 375.145 258.951 376.162 259.271C377.18 259.589 377.557 261.294 376.998 263.083Z" fill="#292929"/>
<path d="M376.429 260.44C376.202 260.44 375.99 260.293 375.923 260.062L374.967 256.812C374.885 256.531 375.044 256.239 375.325 256.156C375.602 256.073 375.899 256.232 375.98 256.513L376.936 259.764C377.019 260.043 376.859 260.337 376.579 260.419C376.528 260.434 376.479 260.44 376.429 260.44Z" fill="#292929"/>
<path d="M376.839 280.429C376.828 283.143 377.318 285.086 378.272 286.084C380.282 288.18 384.755 286.037 389.537 280.995C384.422 281.997 379.279 281.704 376.839 280.429ZM380.279 287.955C379.166 287.955 378.233 287.572 377.508 286.813C376.225 285.473 375.652 282.988 375.807 279.43C375.816 279.225 375.944 279.044 376.133 278.966C376.322 278.886 376.539 278.924 376.691 279.063C377.448 279.756 379.669 280.563 383.436 280.563C385.788 280.563 388.376 280.233 390.923 279.609C391.151 279.554 391.382 279.651 391.501 279.848C391.62 280.045 391.598 280.296 391.446 280.47C387.265 285.227 383.196 287.955 380.279 287.955Z" fill="#292929"/>
<path d="M378.055 287.004C377.965 287.004 377.874 286.98 377.792 286.933C377.538 286.788 377.45 286.465 377.596 286.213C378.838 284.052 383.883 282.704 386.895 283.724C387.171 283.818 387.32 284.118 387.226 284.394C387.133 284.671 386.831 284.817 386.556 284.725C383.83 283.8 379.433 285.136 378.512 286.739C378.414 286.909 378.236 287.004 378.055 287.004Z" fill="#292929"/>
<path d="M390.297 301.049C389.988 301.046 389.708 300.831 389.709 300.519C389.71 300.227 389.945 299.993 390.237 299.993C390.26 299.99 390.279 299.993 390.299 299.993C395.651 299.993 404.276 296.906 410.053 293.844C410.312 293.707 410.632 293.805 410.767 294.063C410.904 294.322 410.806 294.641 410.548 294.777C404.654 297.9 395.822 301.049 390.297 301.049Z" fill="#292929"/>
<path d="M297.075 327.132C299.511 327.991 311.407 327.991 321.011 322.544C322.587 331.288 328.462 357.372 328.462 357.372C336.632 348.486 347.954 338.025 353.115 333.581C358.274 329.137 366.157 324.837 373.896 325.125C381.636 325.411 385.649 324.981 385.649 324.981C385.649 324.981 379.487 335.874 382.639 366.115C385.792 396.357 386.796 400.369 386.796 400.369L376.19 399.367C376.19 399.367 378.34 392.63 371.89 384.891C365.44 377.15 363.577 372.278 362.717 366.545C355.838 373.569 337.492 393.06 322.157 393.204C306.821 393.347 301.374 379.588 299.225 362.389C297.075 345.19 297.075 327.132 297.075 327.132Z" fill="#40BDDE"/>
<path d="M415.177 393.016C410.878 394.305 392.385 399.797 383.929 399.223C375.473 398.65 366.73 394.492 359.85 396.213C352.971 397.932 341.171 406.604 342.007 410.043C342.652 412.695 345.804 411.262 345.804 411.262C346.951 413.699 349.245 412.408 349.245 412.408C350.392 414.846 355.695 413.412 358.848 410.688C362.001 407.965 365.87 406.532 370.744 408.253C375.616 409.972 383.212 412.408 392.098 412.839C400.985 413.269 421.911 412.292 421.911 412.292C421.911 412.292 425.066 399.895 415.177 393.016Z" fill="#FEFEFE"/>
<path d="M349.245 411.881C349.3 411.881 349.355 411.89 349.407 411.908C349.546 411.952 349.661 412.051 349.723 412.183C350.09 412.965 351.044 413.129 351.78 413.129C353.804 413.129 356.568 411.962 358.503 410.29C362.319 406.993 366.41 406.163 370.92 407.755C376.318 409.66 383.606 411.899 392.125 412.312C393.616 412.384 395.557 412.42 397.892 412.42C406.788 412.42 419.1 411.89 421.481 411.783C421.887 409.699 423.366 399.539 415.083 393.596C406.747 396.087 391.43 400.264 383.894 399.75C380.534 399.522 377.138 398.738 373.855 397.979C370.178 397.13 366.703 396.327 363.499 396.327C362.203 396.327 361.052 396.458 359.979 396.726C353.059 398.454 341.801 406.962 342.52 409.919C342.72 410.738 343.205 411.122 344.047 411.122C344.824 411.122 345.58 410.785 345.588 410.781C345.852 410.666 346.161 410.777 346.283 411.038C346.659 411.834 347.186 412.222 347.893 412.222C348.482 412.222 348.983 411.95 348.989 411.948C349.068 411.903 349.155 411.881 349.245 411.881ZM351.78 414.185C350.277 414.185 349.468 413.649 349.033 413.074C348.742 413.176 348.339 413.279 347.893 413.279C347.191 413.279 346.249 413.029 345.56 411.918C345.186 412.039 344.631 412.178 344.047 412.178C342.717 412.178 341.809 411.464 341.494 410.168C340.495 406.06 353.118 397.352 359.723 395.701C360.881 395.413 362.115 395.271 363.499 395.271C366.824 395.271 370.355 396.086 374.093 396.95C377.337 397.7 380.69 398.475 383.966 398.696C391.406 399.21 406.824 394.97 415.026 392.51C415.18 392.465 415.348 392.491 415.479 392.583C425.552 399.59 422.457 412.295 422.423 412.422C422.367 412.648 422.168 412.809 421.936 412.819C421.795 412.827 407.755 413.476 397.893 413.476C397.892 413.476 397.893 413.476 397.892 413.476C395.539 413.476 393.581 413.439 392.073 413.366C383.418 412.947 376.034 410.68 370.569 408.751C366.422 407.289 362.72 408.043 359.194 411.089C357.082 412.912 354.034 414.185 351.78 414.185Z" fill="#292929"/>
<path d="M439.682 388.187L440.686 376.148L443.982 387.327L439.682 388.187ZM480.1 382.884C473.793 365.972 468.347 347.627 463.187 339.313C458.028 331.001 451.865 323.262 440.399 322.115C432.087 321.541 424.633 321.255 424.633 321.255C421.91 328.421 413.168 363.106 417.754 392.201C415.747 392.201 414.315 393.347 414.315 393.347C418.9 397.074 421.48 403.81 420.334 412.839C440.256 414.415 461.324 411.262 468.203 409.542C475.084 407.823 486.406 399.797 480.1 382.884Z" fill="#40BDDE"/>
<path d="M289.381 285.184C289.104 285.184 288.872 284.968 288.854 284.688C288.836 284.398 289.058 284.148 289.348 284.129C290.333 284.067 291.518 283.955 292.809 283.834C297.14 283.424 302.531 282.918 305.752 283.748C306.035 283.821 306.204 284.11 306.133 284.392C306.059 284.674 305.772 284.844 305.488 284.772C302.441 283.984 297.156 284.485 292.908 284.885C291.604 285.007 290.408 285.121 289.415 285.183C289.403 285.184 289.391 285.184 289.381 285.184Z" fill="#292929"/>
<path d="M363.146 369.51C362.899 369.51 362.68 369.336 362.629 369.085C361.671 364.29 362.742 358.142 364.23 354.177C364.332 353.904 364.638 353.761 364.909 353.869C365.183 353.97 365.321 354.275 365.218 354.548C364.149 357.402 362.615 363.632 363.664 368.878C363.721 369.164 363.536 369.443 363.25 369.499C363.215 369.507 363.18 369.51 363.146 369.51Z" fill="#292929"/>
<path d="M414.633 393.491C414.399 393.491 414.186 393.335 414.122 393.098C414.049 392.817 414.216 392.527 414.497 392.453C419.133 391.226 448.173 385.528 458.413 384.651C458.698 384.625 458.958 384.841 458.985 385.131C459.009 385.423 458.794 385.678 458.504 385.703C448.307 386.577 419.386 392.251 414.768 393.474C414.722 393.486 414.677 393.491 414.633 393.491Z" fill="#292929"/>
<path d="M441.402 378.54C441.178 378.54 440.971 378.396 440.899 378.172C439.862 374.93 437.312 364.704 436.087 359.789L435.73 358.36C435.66 358.078 435.831 357.791 436.114 357.72C436.393 357.65 436.684 357.822 436.756 358.105L437.113 359.534C438.335 364.437 440.879 374.642 441.906 377.851C441.994 378.128 441.84 378.427 441.562 378.515C441.51 378.531 441.456 378.54 441.402 378.54Z" fill="#292929"/>
<path d="M349.245 412.937C349.229 412.937 349.213 412.936 349.197 412.935C348.906 412.908 348.692 412.652 348.718 412.361C348.893 410.442 356.61 404.002 363.575 402.013C363.858 401.929 364.149 402.096 364.228 402.374C364.308 402.655 364.147 402.948 363.866 403.028C356.858 405.03 349.883 411.214 349.77 412.456C349.746 412.731 349.515 412.937 349.245 412.937Z" fill="#292929"/>
<path d="M345.805 411.791C345.513 411.791 345.276 411.555 345.276 411.263C345.276 408.508 351.06 402.698 360.123 399.865C360.407 399.777 360.697 399.935 360.785 400.212C360.872 400.49 360.716 400.786 360.439 400.874C351.132 403.781 346.333 409.474 346.333 411.263C346.333 411.555 346.097 411.791 345.805 411.791Z" fill="#292929"/>
<path d="M383.206 410.851H337.946L319.732 357.655C318.143 353.016 312.831 349.22 307.928 349.22H230.635C225.734 349.22 223.022 353.016 224.609 357.655L243.372 412.453C245.424 417.773 245.665 422.152 250.999 422.152H383.206C386.326 422.152 388.857 419.622 388.857 416.499C388.857 413.379 386.326 410.851 383.206 410.851Z" fill="#FAAD3A"/>
<path d="M333.956 412.36H244.062C243.77 412.36 243.533 412.124 243.533 411.832C243.533 411.54 243.77 411.304 244.062 411.304H333.956C334.248 411.304 334.484 411.54 334.484 411.832C334.484 412.124 334.248 412.36 333.956 412.36Z" fill="#292929"/>
<path d="M275.237 376.87C273.907 376.87 272.806 377.397 272.057 378.395C270.971 379.838 270.749 382.045 271.445 384.451C272.698 388.794 276.54 392.328 280.006 392.328C281.335 392.328 282.434 391.8 283.184 390.801C284.269 389.356 284.492 387.15 283.796 384.746C282.546 380.403 278.705 376.87 275.237 376.87ZM280.006 393.384C276.102 393.384 271.805 389.508 270.43 384.744C269.641 382.017 269.926 379.472 271.212 377.761C272.157 376.504 273.586 375.813 275.237 375.813C279.144 375.813 283.439 379.69 284.811 384.453C285.6 387.178 285.315 389.724 284.028 391.436C283.083 392.692 281.656 393.384 280.006 393.384Z" fill="#292929"/>
</svg>
